M48
; DRILL file {KiCad 8.0.1} date 2025-06-08T13:02:27-0400
; FORMAT={-:-/ absolute / inch / decimal}
; #@! TF.CreationDate,2025-06-08T13:02:27-04:00
; #@! TF.GenerationSoftware,Kicad,Pcbnew,8.0.1
; #@! TF.FileFunction,Plated,1,4,PTH
FMAT,2
INCH
; #@! TA.AperFunction,Plated,PTH,ViaDrill
T1C0.0118
; #@! TA.AperFunction,Plated,PTH,ComponentDrill
T2C0.0236
; #@! TA.AperFunction,Plated,PTH,ComponentDrill
T3C0.0394
%
G90
G05
T1
X6.122Y-1.6535
X6.122Y-1.7126
X6.122Y-1.7717
X6.122Y-1.8307
X6.122Y-1.8898
X6.122Y-1.9685
X6.122Y-2.0276
X6.122Y-2.0866
X6.122Y-2.1457
X6.122Y-2.2047
X6.122Y-2.2835
X6.122Y-2.3425
X6.122Y-2.4016
X6.122Y-2.4606
X6.122Y-2.5197
X6.122Y-3.0118
X6.1417Y-3.8976
X6.1417Y-4.0748
X6.1417Y-4.1732
X6.1614Y-3.9567
X6.1811Y-2.7953
X6.1811Y-3.0118
X6.2008Y-3.5433
X6.2402Y-3.0118
X6.2402Y-3.5433
X6.2598Y-3.7205
X6.2795Y-2.4409
X6.2795Y-2.8543
X6.2795Y-3.7992
X6.2992Y-3.0118
X6.2992Y-3.5433
X6.2992Y-3.878
X6.3189Y-2.8937
X6.3189Y-4.1535
X6.3197Y-2.5
X6.3386Y-3.7992
X6.3583Y-3.0118
X6.3583Y-3.7008
X6.3583Y-3.9764
X6.3583Y-4.1929
X6.378Y-2.6378
X6.378Y-2.9528
X6.3804Y-3.5906
X6.3976Y-2.5394
X6.3976Y-3.7992
X6.4173Y-2.4606
X6.4173Y-2.6969
X6.4173Y-2.7756
X6.4173Y-3.4055
X6.4173Y-4.2126
X6.437Y-1.5551
X6.437Y-1.6142
X6.437Y-1.6732
X6.437Y-1.7323
X6.437Y-1.7913
X6.437Y-1.9488
X6.437Y-2.0079
X6.437Y-2.0669
X6.437Y-2.126
X6.437Y-2.185
X6.437Y-2.4016
X6.437Y-2.7362
X6.4469Y-3.1201
X6.4567Y-3.0118
X6.4567Y-3.2874
X6.4567Y-3.5827
X6.4567Y-3.7992
X6.4567Y-3.9961
X6.4619Y-3.7007
X6.4764Y-2.3425
X6.4764Y-3.5039
X6.4764Y-3.5433
X6.4961Y-2.5787
X6.4961Y-2.6378
X6.4961Y-2.6969
X6.4961Y-2.7559
X6.4961Y-2.815
X6.4961Y-2.874
X6.4961Y-4.0748
X6.5157Y-3.0512
X6.5157Y-3.1102
X6.5157Y-3.3071
X6.5157Y-3.7992
X6.5354Y-2.3031
X6.5354Y-2.9528
X6.5383Y-3.5844
X6.5551Y-2.3622
X6.5551Y-3.189
X6.5554Y-3.7007
X6.5748Y-2.4213
X6.5748Y-3.3071
X6.5945Y-1.8898
X6.5945Y-1.9488
X6.5945Y-2.0079
X6.5945Y-2.0669
X6.5945Y-2.126
X6.5945Y-3.189
X6.5945Y-3.5827
X6.6142Y-1.6535
X6.6142Y-2.2441
X6.6142Y-2.2835
X6.6142Y-3.248
X6.6339Y-2.3228
X6.6339Y-2.4803
X6.6339Y-2.6378
X6.6339Y-3.4055
X6.6535Y-1.8307
X6.6535Y-2.2047
X6.6535Y-3.4449
X6.6634Y-4.0256
X6.6732Y-1.6535
X6.6732Y-1.7717
X6.6732Y-2.0079
X6.6732Y-2.0669
X6.6732Y-2.1063
X6.6732Y-3.7008
X6.6732Y-3.878
X6.6929Y-1.6929
X6.6929Y-1.811
X6.7126Y-2.6378
X6.7126Y-3.7598
X6.7281Y-3.2486
X6.7296Y-1.9794
X6.7323Y-3.3071
X6.7323Y-3.4646
X6.7323Y-3.8583
X6.7323Y-4.0157
X6.752Y-1.9488
X6.752Y-2.815
X6.752Y-4.1732
X6.7596Y-3.669
X6.7717Y-2.0472
X6.7717Y-3.0315
X6.784Y-2.5197
X6.8036Y-2.5594
X6.811Y-1.6929
X6.811Y-1.752
X6.811Y-1.7913
X6.811Y-2.2835
X6.811Y-2.7953
X6.811Y-2.9528
X6.811Y-3.7598
X6.8307Y-2.1063
X6.8307Y-2.2244
X6.8307Y-2.3228
X6.8375Y-2.7536
X6.8431Y-3.0734
X6.8504Y-2.0276
X6.8504Y-2.1654
X6.8504Y-3.1496
X6.8504Y-3.3858
X6.8504Y-3.4646
X6.8504Y-4.0748
X6.8504Y-4.1732
X6.8505Y-2.8151
X6.8701Y-1.7717
X6.8701Y-1.8307
X6.8701Y-2.0866
X6.8701Y-2.2244
X6.8701Y-3.0512
X6.8701Y-3.3465
X6.8701Y-3.7402
X6.8701Y-3.8386
X6.8701Y-3.9764
X6.8898Y-1.6535
X6.8898Y-3.1102
X6.8898Y-3.4252
X6.8898Y-3.6811
X6.9291Y-3.3268
X6.9488Y-3.9567
X6.9882Y-1.5748
X6.9882Y-1.6339
X6.9882Y-1.6929
X6.9882Y-1.752
X6.9882Y-1.811
X6.9882Y-1.9882
X6.9882Y-2.0472
X6.9882Y-2.1063
X6.9882Y-2.1654
X6.9882Y-2.2244
X6.9882Y-3.3465
X6.9882Y-3.6811
X6.9982Y-2.9825
X7.0079Y-2.9134
X7.0079Y-3.9567
X7.0106Y-3.0135
X7.0114Y-3.1207
X7.0276Y-2.3228
X7.0276Y-2.3819
X7.0276Y-2.4409
X7.0276Y-2.5
X7.0276Y-2.5591
X7.0276Y-2.815
X7.0472Y-2.9528
X7.0472Y-3.3268
X7.0669Y-2.815
X7.0669Y-3.4055
X7.0669Y-3.4843
X7.0669Y-3.563
X7.0669Y-3.622
X7.0669Y-3.6811
X7.0669Y-3.9567
X7.0866Y-3.0512
X7.0866Y-3.2087
X7.1063Y-3.1299
X7.126Y-3.9567
X7.1457Y-3.7205
X7.1649Y-3.5668
X7.1654Y-3.2087
X7.1654Y-3.4055
X7.1654Y-3.4843
X7.1654Y-3.622
X7.185Y-1.6732
X7.185Y-1.7323
X7.185Y-1.7913
X7.185Y-1.8504
X7.185Y-1.9094
X7.185Y-1.9685
X7.185Y-2.0276
X7.185Y-2.0866
X7.185Y-2.1457
X7.185Y-2.2047
X7.185Y-2.2441
X7.185Y-2.3031
X7.185Y-2.3622
X7.185Y-2.4213
X7.185Y-2.4803
X7.185Y-3.0906
X7.185Y-3.9567
X7.2244Y-3.4055
X7.2244Y-3.4843
X7.2244Y-3.563
X7.2244Y-3.622
X7.2244Y-3.7205
T3
X6.1417Y-3.6402
X6.1417Y-3.7402
X7.185Y-2.5787
X7.185Y-2.6787
X7.185Y-2.7787
X7.185Y-2.8787
X7.185Y-2.9787
T2
G00X6.1785Y-3.0976
M15
G01X6.147Y-3.0976
M16
G05
G00X6.1785Y-3.4378
M15
G01X6.147Y-3.4378
M16
G05
G00X6.349Y-3.0976
M15
G01X6.3056Y-3.0976
M16
G05
G00X6.349Y-3.4378
M15
G01X6.3056Y-3.4378
M16
G05
M30
