G04 #@! TF.GenerationSoftware,KiCad,Pcbnew,8.0.1*
G04 #@! TF.CreationDate,2025-06-08T13:02:34-04:00*
G04 #@! TF.ProjectId,Topaz,546f7061-7a2e-46b6-9963-61645f706362,rev?*
G04 #@! TF.SameCoordinates,Original*
G04 #@! TF.FileFunction,Copper,L2,Inr*
G04 #@! TF.FilePolarity,Positive*
%FSLAX46Y46*%
G04 Gerber Fmt 4.6, Leading zero omitted, Abs format (unit mm)*
G04 Created by KiCad (PCBNEW 8.0.1) date 2025-06-08 13:02:34*
%MOMM*%
%LPD*%
G01*
G04 APERTURE LIST*
G04 #@! TA.AperFunction,ComponentPad*
%ADD10O,1.700000X1.700000*%
G04 #@! TD*
G04 #@! TA.AperFunction,ComponentPad*
%ADD11R,1.700000X1.700000*%
G04 #@! TD*
G04 #@! TA.AperFunction,ComponentPad*
%ADD12O,2.100000X1.000000*%
G04 #@! TD*
G04 #@! TA.AperFunction,ComponentPad*
%ADD13O,1.800000X1.000000*%
G04 #@! TD*
G04 #@! TA.AperFunction,ViaPad*
%ADD14C,0.600000*%
G04 #@! TD*
G04 APERTURE END LIST*
D10*
X182500000Y-75660000D03*
X182500000Y-73120000D03*
X182500000Y-70580000D03*
X182500000Y-68040000D03*
D11*
X182500000Y-65500000D03*
D12*
X160713452Y-78679646D03*
D13*
X156533452Y-78679646D03*
D12*
X160713452Y-87319646D03*
D13*
X156533452Y-87319646D03*
D11*
X156000000Y-95000000D03*
D10*
X156000000Y-92460000D03*
D14*
X165500000Y-79000000D03*
X165500000Y-77500000D03*
X164000000Y-76500000D03*
X162000000Y-75000000D03*
X160500000Y-73500000D03*
X159500000Y-72500000D03*
X168000000Y-82500000D03*
X167000000Y-84000000D03*
X165500000Y-84000000D03*
X168500000Y-86500000D03*
X169000000Y-87500000D03*
X174000000Y-88000000D03*
X160000000Y-98500000D03*
X165000000Y-103500000D03*
X161500000Y-101000000D03*
X163000000Y-107000000D03*
X161500000Y-106500000D03*
X160500000Y-105500000D03*
X164000000Y-101500000D03*
X170500000Y-95500000D03*
X174500000Y-95000000D03*
X174500000Y-97500000D03*
X163000000Y-62500000D03*
X163500000Y-61000000D03*
X164500000Y-59500000D03*
X166000000Y-58500000D03*
X183500000Y-94500000D03*
X181500000Y-94500000D03*
X175000000Y-93500000D03*
X169500000Y-94000000D03*
X166507222Y-93996773D03*
X164132327Y-93996773D03*
X161500000Y-94000000D03*
X167500000Y-91000000D03*
X166072790Y-91042636D03*
X164000000Y-91000000D03*
X162061535Y-91201928D03*
X160000000Y-90000000D03*
X158500000Y-90000000D03*
X157500000Y-90000000D03*
X174500000Y-101000000D03*
X174000000Y-103500000D03*
X156000000Y-106000000D03*
X156000000Y-103500000D03*
X182500000Y-78500000D03*
X173500000Y-56500000D03*
X174500000Y-53000000D03*
X170000000Y-46000000D03*
X173000000Y-45500000D03*
X174500000Y-45000000D03*
X170000000Y-43000000D03*
X173000000Y-44500000D03*
X173000000Y-43000000D03*
X169500000Y-51000000D03*
X174500000Y-56500000D03*
X174000000Y-55000000D03*
X174000000Y-51500000D03*
X165000000Y-70000000D03*
X165000000Y-68500000D03*
X165000000Y-71500000D03*
X165000000Y-73000000D03*
X165000000Y-67000000D03*
X158500000Y-76500000D03*
X157000000Y-76500000D03*
X160000000Y-76500000D03*
X161500000Y-76500000D03*
X155500000Y-76500000D03*
X162500000Y-96500000D03*
X161000000Y-96500000D03*
X164000000Y-96500000D03*
X165500000Y-96500000D03*
X159500000Y-96500000D03*
X179500000Y-100500000D03*
X178000000Y-100500000D03*
X181000000Y-100500000D03*
X182500000Y-100500000D03*
X176500000Y-100500000D03*
X163500000Y-52500000D03*
X163500000Y-51000000D03*
X163500000Y-54000000D03*
X163500000Y-55500000D03*
X163500000Y-49500000D03*
X163500000Y-42500000D03*
X163500000Y-41000000D03*
X163500000Y-44000000D03*
X163500000Y-45500000D03*
X163500000Y-39500000D03*
X177500000Y-43000000D03*
X177500000Y-41500000D03*
X177500000Y-44500000D03*
X177500000Y-46000000D03*
X177500000Y-40000000D03*
X178500000Y-62000000D03*
X178500000Y-60500000D03*
X178500000Y-63500000D03*
X178500000Y-65000000D03*
X178500000Y-59000000D03*
X177500000Y-53500000D03*
X177500000Y-52000000D03*
X177500000Y-55000000D03*
X177500000Y-56500000D03*
X177500000Y-50500000D03*
X167500000Y-51000000D03*
X167500000Y-49500000D03*
X167500000Y-52500000D03*
X167500000Y-54000000D03*
X167500000Y-48000000D03*
X155500000Y-61000000D03*
X155500000Y-59500000D03*
X155500000Y-62500000D03*
X155500000Y-64000000D03*
X155500000Y-58000000D03*
X155500000Y-53000000D03*
X155500000Y-51500000D03*
X155500000Y-54500000D03*
X155500000Y-56000000D03*
X155500000Y-50000000D03*
X155500000Y-45000000D03*
X155500000Y-43500000D03*
X155500000Y-46500000D03*
X155500000Y-48000000D03*
X155500000Y-42000000D03*
X182500000Y-60000000D03*
X182500000Y-58500000D03*
X182500000Y-61500000D03*
X182500000Y-63000000D03*
X182500000Y-57000000D03*
X182500000Y-53000000D03*
X182500000Y-51500000D03*
X182500000Y-54500000D03*
X182500000Y-56000000D03*
X182500000Y-50000000D03*
X182500000Y-48500000D03*
X182500000Y-47000000D03*
X182500000Y-45500000D03*
X182500000Y-44000000D03*
X182500000Y-42500000D03*
X164000000Y-83500000D03*
X164500000Y-90000000D03*
X163000000Y-86500000D03*
X174000000Y-106000000D03*
X171500000Y-106000000D03*
X169500000Y-98500000D03*
X171000000Y-98000000D03*
X171000000Y-102000000D03*
X169250000Y-102250000D03*
X179000000Y-75000000D03*
X173000000Y-75000000D03*
X173000000Y-95500000D03*
X172000000Y-77000000D03*
X171693480Y-93193480D03*
X156500000Y-100500000D03*
X156000000Y-99000000D03*
X159000000Y-94500000D03*
X183500000Y-88500000D03*
X178500000Y-71500000D03*
X172312500Y-64000000D03*
X179000000Y-84500000D03*
X179500000Y-92000000D03*
X177500000Y-93500000D03*
X157000000Y-71000000D03*
X179500000Y-93500000D03*
X177500000Y-85000000D03*
X178068202Y-76541970D03*
X183500000Y-86500000D03*
X179500000Y-86500000D03*
X179500000Y-90500000D03*
X178089579Y-79265980D03*
X182000000Y-86500000D03*
X174003643Y-71503643D03*
X183500000Y-90500000D03*
X167500000Y-81000000D03*
X176000000Y-84500000D03*
X182000000Y-88500000D03*
X163000000Y-70500000D03*
X181988821Y-90597449D03*
X179500000Y-88500000D03*
X174500000Y-85000000D03*
X182000000Y-92000000D03*
X183500000Y-92000000D03*
X163500000Y-69500000D03*
X168500000Y-59000000D03*
X160520000Y-63500000D03*
X169500000Y-52500000D03*
X159500000Y-62000000D03*
X171000000Y-88000000D03*
X169500000Y-42000000D03*
X180500000Y-79500000D03*
X175000000Y-87000000D03*
X168000000Y-57000000D03*
X174500000Y-77500000D03*
X180000000Y-77500000D03*
X182000000Y-81500000D03*
X166500000Y-81000000D03*
X169500000Y-45000000D03*
X169500000Y-53500000D03*
X165000000Y-65500000D03*
X174000000Y-86000000D03*
X169000000Y-46500000D03*
X173500000Y-53500000D03*
X173000000Y-58000000D03*
X174500000Y-46500000D03*
X170500000Y-67000000D03*
X168000000Y-42000000D03*
X175000000Y-42000000D03*
X162500000Y-64500000D03*
X168500000Y-63000000D03*
X167000000Y-61500000D03*
X171500000Y-49500000D03*
X173672873Y-69940718D03*
X166500000Y-60000000D03*
X180000000Y-81500000D03*
X162000000Y-67000000D03*
X163000000Y-68500000D03*
X171000000Y-84000000D03*
X163750000Y-79250000D03*
X168000000Y-58000000D03*
X168500000Y-67000000D03*
X170894400Y-82514873D03*
X164500000Y-89000000D03*
X172000000Y-52000000D03*
X170932096Y-50276849D03*
X177755054Y-75755054D03*
X175000000Y-79000000D03*
X173815127Y-78064625D03*
X179500000Y-71500000D03*
X178000000Y-74000000D03*
X174000000Y-80000000D03*
X172812500Y-65009469D03*
X169000000Y-56000000D03*
X171500000Y-71500000D03*
X173000000Y-71000000D03*
X173500000Y-59000000D03*
X166000000Y-75000000D03*
G04 #@! TA.AperFunction,Conductor*
G36*
X183942539Y-36520185D02*
G01*
X183988294Y-36572989D01*
X183999500Y-36624500D01*
X183999500Y-64309897D01*
X183979815Y-64376936D01*
X183927011Y-64422691D01*
X183857853Y-64432635D01*
X183794297Y-64403610D01*
X183776234Y-64384208D01*
X183707547Y-64292455D01*
X183707544Y-64292452D01*
X183592335Y-64206206D01*
X183592328Y-64206202D01*
X183457482Y-64155908D01*
X183457483Y-64155908D01*
X183397883Y-64149501D01*
X183397881Y-64149500D01*
X183397873Y-64149500D01*
X183397864Y-64149500D01*
X181602129Y-64149500D01*
X181602123Y-64149501D01*
X181542516Y-64155908D01*
X181407671Y-64206202D01*
X181407664Y-64206206D01*
X181292455Y-64292452D01*
X181292452Y-64292455D01*
X181206206Y-64407664D01*
X181206202Y-64407671D01*
X181155908Y-64542517D01*
X181149501Y-64602116D01*
X181149500Y-64602135D01*
X181149500Y-66397870D01*
X181149501Y-66397876D01*
X181155908Y-66457483D01*
X181206202Y-66592328D01*
X181206206Y-66592335D01*
X181292452Y-66707544D01*
X181292455Y-66707547D01*
X181407664Y-66793793D01*
X181407671Y-66793797D01*
X181407674Y-66793798D01*
X181539598Y-66843002D01*
X181595531Y-66884873D01*
X181619949Y-66950337D01*
X181605098Y-67018610D01*
X181583947Y-67046865D01*
X181461886Y-67168926D01*
X181326400Y-67362420D01*
X181326399Y-67362422D01*
X181226570Y-67576507D01*
X181226567Y-67576513D01*
X181169364Y-67789999D01*
X181169364Y-67790000D01*
X182066988Y-67790000D01*
X182034075Y-67847007D01*
X182000000Y-67974174D01*
X182000000Y-68105826D01*
X182034075Y-68232993D01*
X182066988Y-68290000D01*
X181169364Y-68290000D01*
X181226567Y-68503486D01*
X181226570Y-68503492D01*
X181326399Y-68717578D01*
X181461894Y-68911082D01*
X181628917Y-69078105D01*
X181814595Y-69208119D01*
X181858219Y-69262696D01*
X181865412Y-69332195D01*
X181833890Y-69394549D01*
X181814595Y-69411269D01*
X181628594Y-69541508D01*
X181461505Y-69708597D01*
X181325965Y-69902169D01*
X181325964Y-69902171D01*
X181226098Y-70116335D01*
X181226094Y-70116344D01*
X181164938Y-70344586D01*
X181164936Y-70344596D01*
X181144341Y-70579999D01*
X181144341Y-70580000D01*
X181164936Y-70815403D01*
X181164938Y-70815413D01*
X181226094Y-71043655D01*
X181226096Y-71043659D01*
X181226097Y-71043663D01*
X181266271Y-71129816D01*
X181325965Y-71257830D01*
X181325967Y-71257834D01*
X181461501Y-71451395D01*
X181461506Y-71451402D01*
X181628597Y-71618493D01*
X181628603Y-71618498D01*
X181814158Y-71748425D01*
X181857783Y-71803002D01*
X181864977Y-71872500D01*
X181833454Y-71934855D01*
X181814158Y-71951575D01*
X181628597Y-72081505D01*
X181461505Y-72248597D01*
X181325965Y-72442169D01*
X181325964Y-72442171D01*
X181226098Y-72656335D01*
X181226094Y-72656344D01*
X181164938Y-72884586D01*
X181164936Y-72884596D01*
X181144341Y-73119999D01*
X181144341Y-73120000D01*
X181164936Y-73355403D01*
X181164938Y-73355413D01*
X181226094Y-73583655D01*
X181226096Y-73583659D01*
X181226097Y-73583663D01*
X181261319Y-73659196D01*
X181325965Y-73797830D01*
X181325967Y-73797834D01*
X181461501Y-73991395D01*
X181461506Y-73991402D01*
X181628597Y-74158493D01*
X181628603Y-74158498D01*
X181814158Y-74288425D01*
X181857783Y-74343002D01*
X181864977Y-74412500D01*
X181833454Y-74474855D01*
X181814158Y-74491575D01*
X181628597Y-74621505D01*
X181461505Y-74788597D01*
X181325965Y-74982169D01*
X181325964Y-74982171D01*
X181226098Y-75196335D01*
X181226094Y-75196344D01*
X181164938Y-75424586D01*
X181164936Y-75424596D01*
X181144341Y-75659999D01*
X181144341Y-75660000D01*
X181164936Y-75895403D01*
X181164938Y-75895413D01*
X181226094Y-76123655D01*
X181226096Y-76123659D01*
X181226097Y-76123663D01*
X181268517Y-76214632D01*
X181325965Y-76337830D01*
X181325967Y-76337834D01*
X181417787Y-76468965D01*
X181461505Y-76531401D01*
X181628599Y-76698495D01*
X181661061Y-76721225D01*
X181822165Y-76834032D01*
X181822167Y-76834033D01*
X181822170Y-76834035D01*
X182036337Y-76933903D01*
X182264592Y-76995063D01*
X182452918Y-77011539D01*
X182499999Y-77015659D01*
X182500000Y-77015659D01*
X182500001Y-77015659D01*
X182539234Y-77012226D01*
X182735408Y-76995063D01*
X182963663Y-76933903D01*
X183177830Y-76834035D01*
X183371401Y-76698495D01*
X183538495Y-76531401D01*
X183674035Y-76337830D01*
X183763118Y-76146790D01*
X183809290Y-76094352D01*
X183876484Y-76075200D01*
X183943365Y-76095416D01*
X183988700Y-76148581D01*
X183999500Y-76199196D01*
X183999500Y-85651928D01*
X183979815Y-85718967D01*
X183927011Y-85764722D01*
X183857853Y-85774666D01*
X183834546Y-85768970D01*
X183679257Y-85714632D01*
X183679249Y-85714630D01*
X183500004Y-85694435D01*
X183499996Y-85694435D01*
X183320750Y-85714630D01*
X183320745Y-85714631D01*
X183150476Y-85774211D01*
X182997737Y-85870184D01*
X182870184Y-85997737D01*
X182854994Y-86021913D01*
X182802659Y-86068204D01*
X182733605Y-86078852D01*
X182669757Y-86050477D01*
X182645006Y-86021913D01*
X182629815Y-85997737D01*
X182502262Y-85870184D01*
X182349523Y-85774211D01*
X182179254Y-85714631D01*
X182179249Y-85714630D01*
X182000004Y-85694435D01*
X181999996Y-85694435D01*
X181820750Y-85714630D01*
X181820745Y-85714631D01*
X181650476Y-85774211D01*
X181497737Y-85870184D01*
X181370184Y-85997737D01*
X181274211Y-86150476D01*
X181214631Y-86320745D01*
X181214630Y-86320750D01*
X181194435Y-86499996D01*
X181194435Y-86500003D01*
X181214630Y-86679249D01*
X181214631Y-86679254D01*
X181274211Y-86849523D01*
X181354994Y-86978087D01*
X181370184Y-87002262D01*
X181497738Y-87129816D01*
X181588080Y-87186582D01*
X181643018Y-87221102D01*
X181650478Y-87225789D01*
X181820739Y-87285366D01*
X181820745Y-87285368D01*
X181820750Y-87285369D01*
X181999996Y-87305565D01*
X182000000Y-87305565D01*
X182000004Y-87305565D01*
X182179249Y-87285369D01*
X182179252Y-87285368D01*
X182179255Y-87285368D01*
X182349522Y-87225789D01*
X182502262Y-87129816D01*
X182629816Y-87002262D01*
X182645007Y-86978084D01*
X182697339Y-86931796D01*
X182766393Y-86921146D01*
X182830242Y-86949521D01*
X182854990Y-86978082D01*
X182870184Y-87002262D01*
X182997738Y-87129816D01*
X183088080Y-87186582D01*
X183143018Y-87221102D01*
X183150478Y-87225789D01*
X183320739Y-87285366D01*
X183320745Y-87285368D01*
X183320750Y-87285369D01*
X183499996Y-87305565D01*
X183500000Y-87305565D01*
X183500004Y-87305565D01*
X183679249Y-87285369D01*
X183679251Y-87285368D01*
X183679255Y-87285368D01*
X183679258Y-87285366D01*
X183679262Y-87285366D01*
X183834545Y-87231030D01*
X183904324Y-87227468D01*
X183964951Y-87262196D01*
X183997179Y-87324190D01*
X183999500Y-87348071D01*
X183999500Y-87651928D01*
X183979815Y-87718967D01*
X183927011Y-87764722D01*
X183857853Y-87774666D01*
X183834546Y-87768970D01*
X183679257Y-87714632D01*
X183679249Y-87714630D01*
X183500004Y-87694435D01*
X183499996Y-87694435D01*
X183320750Y-87714630D01*
X183320745Y-87714631D01*
X183150476Y-87774211D01*
X182997737Y-87870184D01*
X182870184Y-87997737D01*
X182854994Y-88021913D01*
X182802659Y-88068204D01*
X182733605Y-88078852D01*
X182669757Y-88050477D01*
X182645006Y-88021913D01*
X182629815Y-87997737D01*
X182502262Y-87870184D01*
X182349523Y-87774211D01*
X182179254Y-87714631D01*
X182179249Y-87714630D01*
X182000004Y-87694435D01*
X181999996Y-87694435D01*
X181820750Y-87714630D01*
X181820745Y-87714631D01*
X181650476Y-87774211D01*
X181497737Y-87870184D01*
X181370184Y-87997737D01*
X181274211Y-88150476D01*
X181214631Y-88320747D01*
X181194435Y-88499996D01*
X181194435Y-88500003D01*
X181214630Y-88679249D01*
X181214631Y-88679254D01*
X181274211Y-88849523D01*
X181354994Y-88978087D01*
X181370184Y-89002262D01*
X181497738Y-89129816D01*
X181650478Y-89225789D01*
X181820739Y-89285366D01*
X181820745Y-89285368D01*
X181820750Y-89285369D01*
X181999996Y-89305565D01*
X182000000Y-89305565D01*
X182000004Y-89305565D01*
X182179249Y-89285369D01*
X182179252Y-89285368D01*
X182179255Y-89285368D01*
X182349522Y-89225789D01*
X182502262Y-89129816D01*
X182629816Y-89002262D01*
X182645007Y-88978084D01*
X182697339Y-88931796D01*
X182766393Y-88921146D01*
X182830242Y-88949521D01*
X182854990Y-88978082D01*
X182870184Y-89002262D01*
X182997738Y-89129816D01*
X183150478Y-89225789D01*
X183320739Y-89285366D01*
X183320745Y-89285368D01*
X183320750Y-89285369D01*
X183499996Y-89305565D01*
X183500000Y-89305565D01*
X183500004Y-89305565D01*
X183679249Y-89285369D01*
X183679251Y-89285368D01*
X183679255Y-89285368D01*
X183679258Y-89285366D01*
X183679262Y-89285366D01*
X183834545Y-89231030D01*
X183904324Y-89227468D01*
X183964951Y-89262196D01*
X183997179Y-89324190D01*
X183999500Y-89348071D01*
X183999500Y-89651928D01*
X183979815Y-89718967D01*
X183927011Y-89764722D01*
X183857853Y-89774666D01*
X183834546Y-89768970D01*
X183679257Y-89714632D01*
X183679249Y-89714630D01*
X183500004Y-89694435D01*
X183499996Y-89694435D01*
X183320750Y-89714630D01*
X183320745Y-89714631D01*
X183150476Y-89774211D01*
X182997737Y-89870184D01*
X182870184Y-89997737D01*
X182870182Y-89997740D01*
X182818060Y-90080691D01*
X182765725Y-90126982D01*
X182696672Y-90137629D01*
X182632824Y-90109254D01*
X182623761Y-90099910D01*
X182623561Y-90100111D01*
X182491083Y-89967633D01*
X182338344Y-89871660D01*
X182168075Y-89812080D01*
X182168070Y-89812079D01*
X181988825Y-89791884D01*
X181988817Y-89791884D01*
X181809571Y-89812079D01*
X181809566Y-89812080D01*
X181639297Y-89871660D01*
X181486558Y-89967633D01*
X181359005Y-90095186D01*
X181263032Y-90247925D01*
X181203452Y-90418194D01*
X181203451Y-90418199D01*
X181183256Y-90597445D01*
X181183256Y-90597452D01*
X181203451Y-90776698D01*
X181203452Y-90776703D01*
X181263032Y-90946972D01*
X181359005Y-91099711D01*
X181475927Y-91216633D01*
X181509412Y-91277956D01*
X181504428Y-91347648D01*
X181475927Y-91391995D01*
X181370184Y-91497737D01*
X181274211Y-91650476D01*
X181214631Y-91820745D01*
X181214630Y-91820750D01*
X181194435Y-91999996D01*
X181194435Y-92000003D01*
X181214630Y-92179249D01*
X181214631Y-92179254D01*
X181274211Y-92349523D01*
X181354994Y-92478087D01*
X181370184Y-92502262D01*
X181497738Y-92629816D01*
X181521913Y-92645006D01*
X181632721Y-92714632D01*
X181650478Y-92725789D01*
X181788860Y-92774211D01*
X181820745Y-92785368D01*
X181820750Y-92785369D01*
X181999996Y-92805565D01*
X182000000Y-92805565D01*
X182000004Y-92805565D01*
X182179249Y-92785369D01*
X182179252Y-92785368D01*
X182179255Y-92785368D01*
X182349522Y-92725789D01*
X182502262Y-92629816D01*
X182629816Y-92502262D01*
X182645007Y-92478084D01*
X182697339Y-92431796D01*
X182766393Y-92421146D01*
X182830242Y-92449521D01*
X182854990Y-92478082D01*
X182870184Y-92502262D01*
X182997738Y-92629816D01*
X183021913Y-92645006D01*
X183132721Y-92714632D01*
X183150478Y-92725789D01*
X183288860Y-92774211D01*
X183320745Y-92785368D01*
X183320750Y-92785369D01*
X183499996Y-92805565D01*
X183500000Y-92805565D01*
X183500004Y-92805565D01*
X183679249Y-92785369D01*
X183679251Y-92785368D01*
X183679255Y-92785368D01*
X183679258Y-92785366D01*
X183679262Y-92785366D01*
X183834545Y-92731030D01*
X183904324Y-92727468D01*
X183964951Y-92762196D01*
X183997179Y-92824190D01*
X183999500Y-92848071D01*
X183999500Y-101376000D01*
X183979815Y-101443039D01*
X183927011Y-101488794D01*
X183875500Y-101500000D01*
X175000000Y-101500000D01*
X175000000Y-108304827D01*
X174980315Y-108371866D01*
X174927511Y-108417621D01*
X174876000Y-108428827D01*
X154624500Y-108428827D01*
X154557461Y-108409142D01*
X154511706Y-108356338D01*
X154500500Y-108304827D01*
X154500500Y-102250003D01*
X168444435Y-102250003D01*
X168464630Y-102429249D01*
X168464631Y-102429254D01*
X168524211Y-102599523D01*
X168620184Y-102752262D01*
X168747738Y-102879816D01*
X168900478Y-102975789D01*
X169070745Y-103035368D01*
X169070750Y-103035369D01*
X169249996Y-103055565D01*
X169250000Y-103055565D01*
X169250004Y-103055565D01*
X169429249Y-103035369D01*
X169429252Y-103035368D01*
X169429255Y-103035368D01*
X169599522Y-102975789D01*
X169752262Y-102879816D01*
X169879816Y-102752262D01*
X169975789Y-102599522D01*
X170035368Y-102429255D01*
X170055565Y-102250000D01*
X170035368Y-102070745D01*
X169975789Y-101900478D01*
X169879816Y-101747738D01*
X169752262Y-101620184D01*
X169599523Y-101524211D01*
X169429254Y-101464631D01*
X169429249Y-101464630D01*
X169250004Y-101444435D01*
X169249996Y-101444435D01*
X169070750Y-101464630D01*
X169070745Y-101464631D01*
X168900476Y-101524211D01*
X168747737Y-101620184D01*
X168620184Y-101747737D01*
X168524211Y-101900476D01*
X168464631Y-102070745D01*
X168464630Y-102070750D01*
X168444435Y-102249996D01*
X168444435Y-102250003D01*
X154500500Y-102250003D01*
X154500500Y-98500003D01*
X168694435Y-98500003D01*
X168714630Y-98679249D01*
X168714631Y-98679254D01*
X168774211Y-98849523D01*
X168870184Y-99002262D01*
X168997738Y-99129816D01*
X169150478Y-99225789D01*
X169320745Y-99285368D01*
X169320750Y-99285369D01*
X169499996Y-99305565D01*
X169500000Y-99305565D01*
X169500004Y-99305565D01*
X169679249Y-99285369D01*
X169679252Y-99285368D01*
X169679255Y-99285368D01*
X169849522Y-99225789D01*
X170002262Y-99129816D01*
X170129816Y-99002262D01*
X170225789Y-98849522D01*
X170285368Y-98679255D01*
X170285368Y-98679254D01*
X170287668Y-98672682D01*
X170290370Y-98673627D01*
X170318176Y-98623882D01*
X170379827Y-98591005D01*
X170449466Y-98596678D01*
X170492667Y-98624745D01*
X170497738Y-98629816D01*
X170650478Y-98725789D01*
X170692520Y-98740500D01*
X170820745Y-98785368D01*
X170820750Y-98785369D01*
X170999996Y-98805565D01*
X171000000Y-98805565D01*
X171000004Y-98805565D01*
X171179249Y-98785369D01*
X171179252Y-98785368D01*
X171179255Y-98785368D01*
X171349522Y-98725789D01*
X171502262Y-98629816D01*
X171629816Y-98502262D01*
X171725789Y-98349522D01*
X171785368Y-98179255D01*
X171785369Y-98179249D01*
X171805565Y-98000003D01*
X171805565Y-97999996D01*
X171785369Y-97820750D01*
X171785368Y-97820745D01*
X171725788Y-97650476D01*
X171692585Y-97597634D01*
X180259500Y-97597634D01*
X180290045Y-97790485D01*
X180350381Y-97976184D01*
X180350382Y-97976187D01*
X180439031Y-98150167D01*
X180553793Y-98308125D01*
X180553797Y-98308130D01*
X180691869Y-98446202D01*
X180691874Y-98446206D01*
X180829653Y-98546307D01*
X180849836Y-98560971D01*
X180919915Y-98596678D01*
X181023812Y-98649617D01*
X181023815Y-98649618D01*
X181094800Y-98672682D01*
X181209516Y-98709955D01*
X181298835Y-98724101D01*
X181402366Y-98740500D01*
X181402371Y-98740500D01*
X181597634Y-98740500D01*
X181691125Y-98725691D01*
X181790484Y-98709955D01*
X181976187Y-98649617D01*
X182150164Y-98560971D01*
X182308132Y-98446201D01*
X182446201Y-98308132D01*
X182560971Y-98150164D01*
X182649617Y-97976187D01*
X182709955Y-97790484D01*
X182732130Y-97650476D01*
X182740500Y-97597634D01*
X182740500Y-97402365D01*
X182722730Y-97290174D01*
X182709955Y-97209516D01*
X182649617Y-97023813D01*
X182649617Y-97023812D01*
X182618919Y-96963565D01*
X182560971Y-96849836D01*
X182546307Y-96829653D01*
X182446206Y-96691874D01*
X182446202Y-96691869D01*
X182308130Y-96553797D01*
X182308125Y-96553793D01*
X182150167Y-96439031D01*
X182150166Y-96439030D01*
X182150164Y-96439029D01*
X182094426Y-96410629D01*
X181976187Y-96350382D01*
X181976184Y-96350381D01*
X181790485Y-96290045D01*
X181597634Y-96259500D01*
X181597629Y-96259500D01*
X181402371Y-96259500D01*
X181402366Y-96259500D01*
X181209514Y-96290045D01*
X181023815Y-96350381D01*
X181023812Y-96350382D01*
X180849832Y-96439031D01*
X180691874Y-96553793D01*
X180691869Y-96553797D01*
X180553797Y-96691869D01*
X180553793Y-96691874D01*
X180439031Y-96849832D01*
X180350382Y-97023812D01*
X180350381Y-97023815D01*
X180290045Y-97209514D01*
X180259500Y-97402365D01*
X180259500Y-97597634D01*
X171692585Y-97597634D01*
X171629815Y-97497737D01*
X171502262Y-97370184D01*
X171349523Y-97274211D01*
X171179254Y-97214631D01*
X171179249Y-97214630D01*
X171000004Y-97194435D01*
X170999996Y-97194435D01*
X170820750Y-97214630D01*
X170820745Y-97214631D01*
X170650476Y-97274211D01*
X170497737Y-97370184D01*
X170370184Y-97497737D01*
X170274211Y-97650476D01*
X170212332Y-97827318D01*
X170209648Y-97826378D01*
X170181738Y-97876200D01*
X170120055Y-97909018D01*
X170050422Y-97903278D01*
X170007332Y-97875254D01*
X170002262Y-97870184D01*
X169849523Y-97774211D01*
X169679254Y-97714631D01*
X169679249Y-97714630D01*
X169500004Y-97694435D01*
X169499996Y-97694435D01*
X169320750Y-97714630D01*
X169320745Y-97714631D01*
X169150476Y-97774211D01*
X168997737Y-97870184D01*
X168870184Y-97997737D01*
X168774211Y-98150476D01*
X168714631Y-98320745D01*
X168714630Y-98320750D01*
X168694435Y-98499996D01*
X168694435Y-98500003D01*
X154500500Y-98500003D01*
X154500500Y-96189269D01*
X154520185Y-96122230D01*
X154572989Y-96076475D01*
X154642147Y-96066531D01*
X154705703Y-96095556D01*
X154723766Y-96114958D01*
X154792809Y-96207187D01*
X154792812Y-96207190D01*
X154907906Y-96293350D01*
X154907913Y-96293354D01*
X155042620Y-96343596D01*
X155042627Y-96343598D01*
X155102155Y-96349999D01*
X155102172Y-96350000D01*
X155750000Y-96350000D01*
X155750000Y-95433012D01*
X155807007Y-95465925D01*
X155934174Y-95500000D01*
X156065826Y-95500000D01*
X156192993Y-95465925D01*
X156250000Y-95433012D01*
X156250000Y-96350000D01*
X156897828Y-96350000D01*
X156897844Y-96349999D01*
X156957372Y-96343598D01*
X156957379Y-96343596D01*
X157092086Y-96293354D01*
X157092093Y-96293350D01*
X157207187Y-96207190D01*
X157207190Y-96207187D01*
X157293350Y-96092093D01*
X157293354Y-96092086D01*
X157343596Y-95957379D01*
X157343598Y-95957372D01*
X157349999Y-95897844D01*
X157350000Y-95897827D01*
X157350000Y-95500003D01*
X172194435Y-95500003D01*
X172214630Y-95679249D01*
X172214631Y-95679254D01*
X172274211Y-95849523D01*
X172341978Y-95957372D01*
X172370184Y-96002262D01*
X172497738Y-96129816D01*
X172650478Y-96225789D01*
X172746819Y-96259500D01*
X172820745Y-96285368D01*
X172820750Y-96285369D01*
X172999996Y-96305565D01*
X173000000Y-96305565D01*
X173000004Y-96305565D01*
X173179249Y-96285369D01*
X173179252Y-96285368D01*
X173179255Y-96285368D01*
X173349522Y-96225789D01*
X173502262Y-96129816D01*
X173629816Y-96002262D01*
X173725789Y-95849522D01*
X173785368Y-95679255D01*
X173805565Y-95500000D01*
X173785368Y-95320745D01*
X173725789Y-95150478D01*
X173629816Y-94997738D01*
X173502262Y-94870184D01*
X173349523Y-94774211D01*
X173179254Y-94714631D01*
X173179249Y-94714630D01*
X173000004Y-94694435D01*
X172999996Y-94694435D01*
X172820750Y-94714630D01*
X172820745Y-94714631D01*
X172650476Y-94774211D01*
X172497737Y-94870184D01*
X172370184Y-94997737D01*
X172274211Y-95150476D01*
X172214631Y-95320745D01*
X172214630Y-95320750D01*
X172194435Y-95499996D01*
X172194435Y-95500003D01*
X157350000Y-95500003D01*
X157350000Y-95250000D01*
X156433012Y-95250000D01*
X156465925Y-95192993D01*
X156500000Y-95065826D01*
X156500000Y-94934174D01*
X156465925Y-94807007D01*
X156433012Y-94750000D01*
X157350000Y-94750000D01*
X157350000Y-94102172D01*
X157349999Y-94102155D01*
X157343598Y-94042627D01*
X157343596Y-94042620D01*
X157293354Y-93907913D01*
X157293350Y-93907906D01*
X157207190Y-93792812D01*
X157207187Y-93792809D01*
X157092093Y-93706649D01*
X157092088Y-93706646D01*
X156960528Y-93657577D01*
X156904595Y-93615705D01*
X156880178Y-93550241D01*
X156895030Y-93481968D01*
X156916175Y-93453720D01*
X157038495Y-93331401D01*
X157135066Y-93193483D01*
X170887915Y-93193483D01*
X170908110Y-93372729D01*
X170908111Y-93372734D01*
X170967691Y-93543003D01*
X171063664Y-93695742D01*
X171191218Y-93823296D01*
X171343958Y-93919269D01*
X171514225Y-93978848D01*
X171514230Y-93978849D01*
X171693476Y-93999045D01*
X171693480Y-93999045D01*
X171693484Y-93999045D01*
X171872729Y-93978849D01*
X171872732Y-93978848D01*
X171872735Y-93978848D01*
X172043002Y-93919269D01*
X172195742Y-93823296D01*
X172323296Y-93695742D01*
X172419269Y-93543002D01*
X172434315Y-93500003D01*
X176694435Y-93500003D01*
X176714630Y-93679249D01*
X176714631Y-93679254D01*
X176774211Y-93849523D01*
X176818035Y-93919268D01*
X176870184Y-94002262D01*
X176997738Y-94129816D01*
X177150478Y-94225789D01*
X177320745Y-94285368D01*
X177320750Y-94285369D01*
X177499996Y-94305565D01*
X177500000Y-94305565D01*
X177500004Y-94305565D01*
X177679249Y-94285369D01*
X177679252Y-94285368D01*
X177679255Y-94285368D01*
X177849522Y-94225789D01*
X178002262Y-94129816D01*
X178129816Y-94002262D01*
X178225789Y-93849522D01*
X178285368Y-93679255D01*
X178287811Y-93657577D01*
X178305565Y-93500003D01*
X178694435Y-93500003D01*
X178714630Y-93679249D01*
X178714631Y-93679254D01*
X178774211Y-93849523D01*
X178818035Y-93919268D01*
X178870184Y-94002262D01*
X178997738Y-94129816D01*
X179150478Y-94225789D01*
X179320745Y-94285368D01*
X179320750Y-94285369D01*
X179499996Y-94305565D01*
X179500000Y-94305565D01*
X179500004Y-94305565D01*
X179679249Y-94285369D01*
X179679252Y-94285368D01*
X179679255Y-94285368D01*
X179849522Y-94225789D01*
X180002262Y-94129816D01*
X180129816Y-94002262D01*
X180225789Y-93849522D01*
X180285368Y-93679255D01*
X180287811Y-93657577D01*
X180305565Y-93500003D01*
X180305565Y-93499996D01*
X180285369Y-93320750D01*
X180285368Y-93320745D01*
X180240836Y-93193480D01*
X180225789Y-93150478D01*
X180129816Y-92997738D01*
X180002262Y-92870184D01*
X179978084Y-92854992D01*
X179931796Y-92802661D01*
X179921146Y-92733607D01*
X179949521Y-92669758D01*
X179978082Y-92645009D01*
X180002262Y-92629816D01*
X180129816Y-92502262D01*
X180225789Y-92349522D01*
X180285368Y-92179255D01*
X180285369Y-92179249D01*
X180305565Y-92000003D01*
X180305565Y-91999996D01*
X180285369Y-91820750D01*
X180285368Y-91820745D01*
X180225788Y-91650476D01*
X180129815Y-91497737D01*
X180002264Y-91370186D01*
X180002262Y-91370184D01*
X179978084Y-91354992D01*
X179931796Y-91302661D01*
X179921146Y-91233607D01*
X179949521Y-91169758D01*
X179978082Y-91145009D01*
X180002262Y-91129816D01*
X180129816Y-91002262D01*
X180225789Y-90849522D01*
X180285368Y-90679255D01*
X180294585Y-90597452D01*
X180305565Y-90500003D01*
X180305565Y-90499996D01*
X180285369Y-90320750D01*
X180285368Y-90320745D01*
X180225788Y-90150476D01*
X180129815Y-89997737D01*
X180002262Y-89870184D01*
X179849523Y-89774211D01*
X179679254Y-89714631D01*
X179679249Y-89714630D01*
X179500004Y-89694435D01*
X179499996Y-89694435D01*
X179320750Y-89714630D01*
X179320745Y-89714631D01*
X179150476Y-89774211D01*
X178997737Y-89870184D01*
X178870184Y-89997737D01*
X178774211Y-90150476D01*
X178714631Y-90320745D01*
X178714630Y-90320750D01*
X178694435Y-90499996D01*
X178694435Y-90500003D01*
X178714630Y-90679249D01*
X178714631Y-90679254D01*
X178774211Y-90849523D01*
X178850206Y-90970467D01*
X178870184Y-91002262D01*
X178997738Y-91129816D01*
X179021911Y-91145005D01*
X179021913Y-91145006D01*
X179068204Y-91197341D01*
X179078852Y-91266395D01*
X179050477Y-91330243D01*
X179021913Y-91354994D01*
X178997737Y-91370184D01*
X178870184Y-91497737D01*
X178774211Y-91650476D01*
X178714631Y-91820745D01*
X178714630Y-91820750D01*
X178694435Y-91999996D01*
X178694435Y-92000003D01*
X178714630Y-92179249D01*
X178714631Y-92179254D01*
X178774211Y-92349523D01*
X178854994Y-92478087D01*
X178870184Y-92502262D01*
X178997738Y-92629816D01*
X179021911Y-92645005D01*
X179021913Y-92645006D01*
X179068204Y-92697341D01*
X179078852Y-92766395D01*
X179050477Y-92830243D01*
X179021913Y-92854994D01*
X178997737Y-92870184D01*
X178870184Y-92997737D01*
X178774211Y-93150476D01*
X178714631Y-93320745D01*
X178714630Y-93320750D01*
X178694435Y-93499996D01*
X178694435Y-93500003D01*
X178305565Y-93500003D01*
X178305565Y-93499996D01*
X178285369Y-93320750D01*
X178285368Y-93320745D01*
X178240836Y-93193480D01*
X178225789Y-93150478D01*
X178129816Y-92997738D01*
X178002262Y-92870184D01*
X177978087Y-92854994D01*
X177849523Y-92774211D01*
X177679254Y-92714631D01*
X177679249Y-92714630D01*
X177500004Y-92694435D01*
X177499996Y-92694435D01*
X177320750Y-92714630D01*
X177320745Y-92714631D01*
X177150476Y-92774211D01*
X176997737Y-92870184D01*
X176870184Y-92997737D01*
X176774211Y-93150476D01*
X176714631Y-93320745D01*
X176714630Y-93320750D01*
X176694435Y-93499996D01*
X176694435Y-93500003D01*
X172434315Y-93500003D01*
X172478848Y-93372735D01*
X172483505Y-93331402D01*
X172499045Y-93193483D01*
X172499045Y-93193476D01*
X172478849Y-93014230D01*
X172478848Y-93014225D01*
X172447156Y-92923655D01*
X172419269Y-92843958D01*
X172323296Y-92691218D01*
X172195742Y-92563664D01*
X172098025Y-92502264D01*
X172043003Y-92467691D01*
X171872734Y-92408111D01*
X171872729Y-92408110D01*
X171693484Y-92387915D01*
X171693476Y-92387915D01*
X171514230Y-92408110D01*
X171514225Y-92408111D01*
X171343956Y-92467691D01*
X171191217Y-92563664D01*
X171063664Y-92691217D01*
X170967691Y-92843956D01*
X170908111Y-93014225D01*
X170908110Y-93014230D01*
X170887915Y-93193476D01*
X170887915Y-93193483D01*
X157135066Y-93193483D01*
X157174035Y-93137830D01*
X157273903Y-92923663D01*
X157335063Y-92695408D01*
X157355659Y-92460000D01*
X157335063Y-92224592D01*
X157286888Y-92044799D01*
X157273905Y-91996344D01*
X157273904Y-91996343D01*
X157273903Y-91996337D01*
X157174035Y-91782171D01*
X157038495Y-91588599D01*
X157038494Y-91588597D01*
X156871402Y-91421506D01*
X156871395Y-91421501D01*
X156677834Y-91285967D01*
X156677830Y-91285965D01*
X156660655Y-91277956D01*
X156463663Y-91186097D01*
X156463659Y-91186096D01*
X156463655Y-91186094D01*
X156235413Y-91124938D01*
X156235403Y-91124936D01*
X156000001Y-91104341D01*
X155999999Y-91104341D01*
X155764596Y-91124936D01*
X155764586Y-91124938D01*
X155536344Y-91186094D01*
X155536335Y-91186098D01*
X155322171Y-91285964D01*
X155322169Y-91285965D01*
X155128597Y-91421505D01*
X154961505Y-91588597D01*
X154825965Y-91782169D01*
X154825964Y-91782171D01*
X154736882Y-91973208D01*
X154690709Y-92025647D01*
X154623516Y-92044799D01*
X154556635Y-92024583D01*
X154511300Y-91971418D01*
X154500500Y-91920803D01*
X154500500Y-88500003D01*
X178694435Y-88500003D01*
X178714630Y-88679249D01*
X178714631Y-88679254D01*
X178774211Y-88849523D01*
X178854994Y-88978087D01*
X178870184Y-89002262D01*
X178997738Y-89129816D01*
X179150478Y-89225789D01*
X179320739Y-89285366D01*
X179320745Y-89285368D01*
X179320750Y-89285369D01*
X179499996Y-89305565D01*
X179500000Y-89305565D01*
X179500004Y-89305565D01*
X179679249Y-89285369D01*
X179679252Y-89285368D01*
X179679255Y-89285368D01*
X179849522Y-89225789D01*
X180002262Y-89129816D01*
X180129816Y-89002262D01*
X180225789Y-88849522D01*
X180285368Y-88679255D01*
X180305565Y-88500000D01*
X180285368Y-88320745D01*
X180225789Y-88150478D01*
X180129816Y-87997738D01*
X180002262Y-87870184D01*
X179999499Y-87868448D01*
X179849523Y-87774211D01*
X179679254Y-87714631D01*
X179679249Y-87714630D01*
X179500004Y-87694435D01*
X179499996Y-87694435D01*
X179320750Y-87714630D01*
X179320745Y-87714631D01*
X179150476Y-87774211D01*
X178997737Y-87870184D01*
X178870184Y-87997737D01*
X178774211Y-88150476D01*
X178714631Y-88320747D01*
X178694435Y-88499996D01*
X178694435Y-88500003D01*
X154500500Y-88500003D01*
X154500500Y-87418189D01*
X155132951Y-87418189D01*
X155171399Y-87611475D01*
X155171402Y-87611485D01*
X155246816Y-87793553D01*
X155246823Y-87793566D01*
X155356312Y-87957427D01*
X155356315Y-87957431D01*
X155495666Y-88096782D01*
X155495670Y-88096785D01*
X155659531Y-88206274D01*
X155659544Y-88206281D01*
X155841612Y-88281695D01*
X155841617Y-88281697D01*
X155841621Y-88281697D01*
X155841622Y-88281698D01*
X156034908Y-88320146D01*
X156034911Y-88320146D01*
X157031995Y-88320146D01*
X157162034Y-88294278D01*
X157225287Y-88281697D01*
X157407366Y-88206278D01*
X157571234Y-88096785D01*
X157710591Y-87957428D01*
X157820084Y-87793560D01*
X157895503Y-87611481D01*
X157933952Y-87418189D01*
X159162951Y-87418189D01*
X159201399Y-87611475D01*
X159201402Y-87611485D01*
X159276816Y-87793553D01*
X159276823Y-87793566D01*
X159386312Y-87957427D01*
X159386315Y-87957431D01*
X159525666Y-88096782D01*
X159525670Y-88096785D01*
X159689531Y-88206274D01*
X159689544Y-88206281D01*
X159871612Y-88281695D01*
X159871617Y-88281697D01*
X159871621Y-88281697D01*
X159871622Y-88281698D01*
X160064908Y-88320146D01*
X160064911Y-88320146D01*
X161361995Y-88320146D01*
X161492034Y-88294278D01*
X161555287Y-88281697D01*
X161737366Y-88206278D01*
X161901234Y-88096785D01*
X162040591Y-87957428D01*
X162150084Y-87793560D01*
X162225503Y-87611481D01*
X162263952Y-87418187D01*
X162263952Y-87221105D01*
X162263952Y-87221102D01*
X162225504Y-87027816D01*
X162225503Y-87027815D01*
X162225503Y-87027811D01*
X162204907Y-86978087D01*
X162150087Y-86845738D01*
X162150080Y-86845725D01*
X162040591Y-86681864D01*
X162040588Y-86681860D01*
X161901237Y-86542509D01*
X161901233Y-86542506D01*
X161837623Y-86500003D01*
X178694435Y-86500003D01*
X178714630Y-86679249D01*
X178714631Y-86679254D01*
X178774211Y-86849523D01*
X178854994Y-86978087D01*
X178870184Y-87002262D01*
X178997738Y-87129816D01*
X179088080Y-87186582D01*
X179143018Y-87221102D01*
X179150478Y-87225789D01*
X179320739Y-87285366D01*
X179320745Y-87285368D01*
X179320750Y-87285369D01*
X179499996Y-87305565D01*
X179500000Y-87305565D01*
X179500004Y-87305565D01*
X179679249Y-87285369D01*
X179679252Y-87285368D01*
X179679255Y-87285368D01*
X179849522Y-87225789D01*
X180002262Y-87129816D01*
X180129816Y-87002262D01*
X180225789Y-86849522D01*
X180285368Y-86679255D01*
X180285369Y-86679249D01*
X180305565Y-86500003D01*
X180305565Y-86499996D01*
X180285369Y-86320750D01*
X180285368Y-86320745D01*
X180250000Y-86219669D01*
X180225789Y-86150478D01*
X180129816Y-85997738D01*
X180002262Y-85870184D01*
X179899422Y-85805565D01*
X179849523Y-85774211D01*
X179679254Y-85714631D01*
X179679249Y-85714630D01*
X179500004Y-85694435D01*
X179499996Y-85694435D01*
X179320750Y-85714630D01*
X179320745Y-85714631D01*
X179150476Y-85774211D01*
X178997737Y-85870184D01*
X178870184Y-85997737D01*
X178774211Y-86150476D01*
X178714631Y-86320745D01*
X178714630Y-86320750D01*
X178694435Y-86499996D01*
X178694435Y-86500003D01*
X161837623Y-86500003D01*
X161737372Y-86433017D01*
X161737359Y-86433010D01*
X161555291Y-86357596D01*
X161555281Y-86357593D01*
X161361995Y-86319146D01*
X161361993Y-86319146D01*
X160775502Y-86319146D01*
X160708463Y-86299461D01*
X160662708Y-86246657D01*
X160652764Y-86177499D01*
X160668115Y-86133146D01*
X160693819Y-86088624D01*
X160693818Y-86088624D01*
X160693821Y-86088621D01*
X160728952Y-85957513D01*
X160728952Y-85821779D01*
X160693821Y-85690671D01*
X160658686Y-85629816D01*
X160625956Y-85573125D01*
X160625951Y-85573119D01*
X160529978Y-85477146D01*
X160529972Y-85477141D01*
X160412430Y-85409278D01*
X160412431Y-85409278D01*
X160396936Y-85405126D01*
X160281319Y-85374146D01*
X160145585Y-85374146D01*
X160029967Y-85405126D01*
X160014473Y-85409278D01*
X159896931Y-85477141D01*
X159896925Y-85477146D01*
X159800952Y-85573119D01*
X159800947Y-85573125D01*
X159733084Y-85690667D01*
X159733083Y-85690671D01*
X159697952Y-85821779D01*
X159697952Y-85957513D01*
X159733083Y-86088621D01*
X159733084Y-86088624D01*
X159800947Y-86206166D01*
X159805897Y-86212616D01*
X159803786Y-86214235D01*
X159830982Y-86264040D01*
X159825998Y-86333732D01*
X159784126Y-86389665D01*
X159757268Y-86404959D01*
X159689544Y-86433010D01*
X159689531Y-86433017D01*
X159525670Y-86542506D01*
X159525666Y-86542509D01*
X159386315Y-86681860D01*
X159386312Y-86681864D01*
X159276823Y-86845725D01*
X159276816Y-86845738D01*
X159201402Y-87027806D01*
X159201399Y-87027816D01*
X159162952Y-87221102D01*
X159162952Y-87221105D01*
X159162952Y-87418187D01*
X159162952Y-87418189D01*
X159162951Y-87418189D01*
X157933952Y-87418189D01*
X157933952Y-87418187D01*
X157933952Y-87221105D01*
X157933952Y-87221102D01*
X157895504Y-87027816D01*
X157895503Y-87027815D01*
X157895503Y-87027811D01*
X157874907Y-86978087D01*
X157820087Y-86845738D01*
X157820080Y-86845725D01*
X157710591Y-86681864D01*
X157710588Y-86681860D01*
X157571237Y-86542509D01*
X157571233Y-86542506D01*
X157407372Y-86433017D01*
X157407359Y-86433010D01*
X157225291Y-86357596D01*
X157225281Y-86357593D01*
X157031995Y-86319146D01*
X157031993Y-86319146D01*
X156034911Y-86319146D01*
X156034909Y-86319146D01*
X155841622Y-86357593D01*
X155841612Y-86357596D01*
X155659544Y-86433010D01*
X155659531Y-86433017D01*
X155495670Y-86542506D01*
X155495666Y-86542509D01*
X155356315Y-86681860D01*
X155356312Y-86681864D01*
X155246823Y-86845725D01*
X155246816Y-86845738D01*
X155171402Y-87027806D01*
X155171399Y-87027816D01*
X155132952Y-87221102D01*
X155132952Y-87221105D01*
X155132952Y-87418187D01*
X155132952Y-87418189D01*
X155132951Y-87418189D01*
X154500500Y-87418189D01*
X154500500Y-85000003D01*
X173694435Y-85000003D01*
X173714630Y-85179249D01*
X173714631Y-85179254D01*
X173774211Y-85349523D01*
X173870184Y-85502262D01*
X173997738Y-85629816D01*
X174032929Y-85651928D01*
X174132721Y-85714632D01*
X174150478Y-85725789D01*
X174320745Y-85785368D01*
X174320750Y-85785369D01*
X174499996Y-85805565D01*
X174500000Y-85805565D01*
X174500004Y-85805565D01*
X174679249Y-85785369D01*
X174679252Y-85785368D01*
X174679255Y-85785368D01*
X174849522Y-85725789D01*
X175002262Y-85629816D01*
X175129816Y-85502262D01*
X175225789Y-85349522D01*
X175285368Y-85179255D01*
X175285368Y-85179254D01*
X175287668Y-85172682D01*
X175290370Y-85173627D01*
X175318176Y-85123882D01*
X175379827Y-85091005D01*
X175449466Y-85096678D01*
X175492667Y-85124745D01*
X175497738Y-85129816D01*
X175650478Y-85225789D01*
X175820745Y-85285368D01*
X175820750Y-85285369D01*
X175999996Y-85305565D01*
X176000000Y-85305565D01*
X176000004Y-85305565D01*
X176179249Y-85285369D01*
X176179252Y-85285368D01*
X176179255Y-85285368D01*
X176349522Y-85225789D01*
X176502262Y-85129816D01*
X176507331Y-85124746D01*
X176568649Y-85091261D01*
X176638341Y-85096242D01*
X176694276Y-85138111D01*
X176710573Y-85173297D01*
X176712332Y-85172682D01*
X176774211Y-85349523D01*
X176870184Y-85502262D01*
X176997738Y-85629816D01*
X177032929Y-85651928D01*
X177132721Y-85714632D01*
X177150478Y-85725789D01*
X177320745Y-85785368D01*
X177320750Y-85785369D01*
X177499996Y-85805565D01*
X177500000Y-85805565D01*
X177500004Y-85805565D01*
X177679249Y-85785369D01*
X177679252Y-85785368D01*
X177679255Y-85785368D01*
X177849522Y-85725789D01*
X178002262Y-85629816D01*
X178129816Y-85502262D01*
X178225789Y-85349522D01*
X178285368Y-85179255D01*
X178285368Y-85179254D01*
X178287668Y-85172682D01*
X178290370Y-85173627D01*
X178318176Y-85123882D01*
X178379827Y-85091005D01*
X178449466Y-85096678D01*
X178492667Y-85124745D01*
X178497738Y-85129816D01*
X178650478Y-85225789D01*
X178820745Y-85285368D01*
X178820750Y-85285369D01*
X178999996Y-85305565D01*
X179000000Y-85305565D01*
X179000004Y-85305565D01*
X179179249Y-85285369D01*
X179179252Y-85285368D01*
X179179255Y-85285368D01*
X179349522Y-85225789D01*
X179502262Y-85129816D01*
X179629816Y-85002262D01*
X179725789Y-84849522D01*
X179785368Y-84679255D01*
X179785369Y-84679249D01*
X179805565Y-84500003D01*
X179805565Y-84499996D01*
X179785369Y-84320750D01*
X179785368Y-84320745D01*
X179725788Y-84150476D01*
X179629815Y-83997737D01*
X179502262Y-83870184D01*
X179349523Y-83774211D01*
X179179254Y-83714631D01*
X179179249Y-83714630D01*
X179000004Y-83694435D01*
X178999996Y-83694435D01*
X178820750Y-83714630D01*
X178820745Y-83714631D01*
X178650476Y-83774211D01*
X178497737Y-83870184D01*
X178370184Y-83997737D01*
X178274211Y-84150476D01*
X178212332Y-84327318D01*
X178209648Y-84326378D01*
X178181738Y-84376200D01*
X178120055Y-84409018D01*
X178050422Y-84403278D01*
X178007332Y-84375254D01*
X178002262Y-84370184D01*
X177849523Y-84274211D01*
X177679254Y-84214631D01*
X177679249Y-84214630D01*
X177500004Y-84194435D01*
X177499996Y-84194435D01*
X177320750Y-84214630D01*
X177320745Y-84214631D01*
X177150476Y-84274211D01*
X176997738Y-84370183D01*
X176992663Y-84375259D01*
X176931338Y-84408741D01*
X176861647Y-84403753D01*
X176805715Y-84361878D01*
X176789435Y-84326699D01*
X176787668Y-84327318D01*
X176725788Y-84150476D01*
X176629815Y-83997737D01*
X176502262Y-83870184D01*
X176349523Y-83774211D01*
X176179254Y-83714631D01*
X176179249Y-83714630D01*
X176000004Y-83694435D01*
X175999996Y-83694435D01*
X175820750Y-83714630D01*
X175820745Y-83714631D01*
X175650476Y-83774211D01*
X175497737Y-83870184D01*
X175370184Y-83997737D01*
X175274211Y-84150476D01*
X175212332Y-84327318D01*
X175209648Y-84326378D01*
X175181738Y-84376200D01*
X175120055Y-84409018D01*
X175050422Y-84403278D01*
X175007332Y-84375254D01*
X175002262Y-84370184D01*
X174849523Y-84274211D01*
X174679254Y-84214631D01*
X174679249Y-84214630D01*
X174500004Y-84194435D01*
X174499996Y-84194435D01*
X174320750Y-84214630D01*
X174320745Y-84214631D01*
X174150476Y-84274211D01*
X173997737Y-84370184D01*
X173870184Y-84497737D01*
X173774211Y-84650476D01*
X173714631Y-84820745D01*
X173714630Y-84820750D01*
X173694435Y-84999996D01*
X173694435Y-85000003D01*
X154500500Y-85000003D01*
X154500500Y-81000003D01*
X166694435Y-81000003D01*
X166714630Y-81179249D01*
X166714631Y-81179254D01*
X166774211Y-81349523D01*
X166870184Y-81502262D01*
X166997738Y-81629816D01*
X167150478Y-81725789D01*
X167320745Y-81785368D01*
X167320750Y-81785369D01*
X167499996Y-81805565D01*
X167500000Y-81805565D01*
X167500004Y-81805565D01*
X167679249Y-81785369D01*
X167679252Y-81785368D01*
X167679255Y-81785368D01*
X167849522Y-81725789D01*
X168002262Y-81629816D01*
X168129816Y-81502262D01*
X168225789Y-81349522D01*
X168285368Y-81179255D01*
X168305565Y-81000000D01*
X168285368Y-80820745D01*
X168225789Y-80650478D01*
X168129816Y-80497738D01*
X168002262Y-80370184D01*
X167969379Y-80349522D01*
X167849523Y-80274211D01*
X167679254Y-80214631D01*
X167679249Y-80214630D01*
X167500004Y-80194435D01*
X167499996Y-80194435D01*
X167320750Y-80214630D01*
X167320745Y-80214631D01*
X167150476Y-80274211D01*
X166997737Y-80370184D01*
X166870184Y-80497737D01*
X166774211Y-80650476D01*
X166714631Y-80820745D01*
X166714630Y-80820750D01*
X166694435Y-80999996D01*
X166694435Y-81000003D01*
X154500500Y-81000003D01*
X154500500Y-78778189D01*
X155132951Y-78778189D01*
X155171399Y-78971475D01*
X155171402Y-78971485D01*
X155246816Y-79153553D01*
X155246823Y-79153566D01*
X155356312Y-79317427D01*
X155356315Y-79317431D01*
X155495666Y-79456782D01*
X155495670Y-79456785D01*
X155659531Y-79566274D01*
X155659544Y-79566281D01*
X155833104Y-79638171D01*
X155841617Y-79641697D01*
X155841621Y-79641697D01*
X155841622Y-79641698D01*
X156034908Y-79680146D01*
X156034911Y-79680146D01*
X157031995Y-79680146D01*
X157181152Y-79650476D01*
X157225287Y-79641697D01*
X157407366Y-79566278D01*
X157571234Y-79456785D01*
X157710591Y-79317428D01*
X157820084Y-79153560D01*
X157895503Y-78971481D01*
X157933952Y-78778189D01*
X159162951Y-78778189D01*
X159201399Y-78971475D01*
X159201402Y-78971485D01*
X159276816Y-79153553D01*
X159276823Y-79153566D01*
X159386312Y-79317427D01*
X159386315Y-79317431D01*
X159525666Y-79456782D01*
X159525670Y-79456785D01*
X159689531Y-79566274D01*
X159689538Y-79566278D01*
X159757269Y-79594333D01*
X159811671Y-79638171D01*
X159833737Y-79704465D01*
X159816459Y-79772165D01*
X159805453Y-79786335D01*
X159805897Y-79786676D01*
X159800947Y-79793125D01*
X159733084Y-79910667D01*
X159733083Y-79910671D01*
X159697952Y-80041779D01*
X159697952Y-80177513D01*
X159723863Y-80274211D01*
X159733084Y-80308624D01*
X159800947Y-80426166D01*
X159800949Y-80426168D01*
X159800950Y-80426170D01*
X159896928Y-80522148D01*
X159896929Y-80522149D01*
X159896931Y-80522150D01*
X160014473Y-80590013D01*
X160014474Y-80590013D01*
X160014477Y-80590015D01*
X160145585Y-80625146D01*
X160145587Y-80625146D01*
X160281317Y-80625146D01*
X160281319Y-80625146D01*
X160412427Y-80590015D01*
X160529976Y-80522148D01*
X160625954Y-80426170D01*
X160693821Y-80308621D01*
X160728952Y-80177513D01*
X160728952Y-80041779D01*
X160693821Y-79910671D01*
X160685233Y-79895796D01*
X160668115Y-79866146D01*
X160651642Y-79798246D01*
X160674494Y-79732219D01*
X160729416Y-79689028D01*
X160775502Y-79680146D01*
X161361995Y-79680146D01*
X161511152Y-79650476D01*
X161555287Y-79641697D01*
X161737366Y-79566278D01*
X161901234Y-79456785D01*
X162040591Y-79317428D01*
X162150084Y-79153560D01*
X162225503Y-78971481D01*
X162263952Y-78778187D01*
X162263952Y-78581105D01*
X162263952Y-78581102D01*
X162225504Y-78387816D01*
X162225503Y-78387815D01*
X162225503Y-78387811D01*
X162178449Y-78274211D01*
X162150087Y-78205738D01*
X162150080Y-78205725D01*
X162055801Y-78064628D01*
X173009562Y-78064628D01*
X173029757Y-78243874D01*
X173029758Y-78243879D01*
X173089338Y-78414148D01*
X173168537Y-78540191D01*
X173185311Y-78566887D01*
X173312865Y-78694441D01*
X173387929Y-78741607D01*
X173423118Y-78763718D01*
X173465605Y-78790414D01*
X173586103Y-78832578D01*
X173635872Y-78849993D01*
X173635877Y-78849994D01*
X173815123Y-78870190D01*
X173815127Y-78870190D01*
X173815131Y-78870190D01*
X173994376Y-78849994D01*
X173994379Y-78849993D01*
X173994382Y-78849993D01*
X173994383Y-78849992D01*
X173994386Y-78849992D01*
X174033969Y-78836141D01*
X174103748Y-78832578D01*
X174164376Y-78867307D01*
X174196603Y-78929300D01*
X174198145Y-78967064D01*
X174194435Y-78999994D01*
X174194435Y-79000004D01*
X174201714Y-79064611D01*
X174189659Y-79133433D01*
X174142310Y-79184812D01*
X174074699Y-79202436D01*
X174064611Y-79201714D01*
X174000004Y-79194435D01*
X173999996Y-79194435D01*
X173820750Y-79214630D01*
X173820745Y-79214631D01*
X173650476Y-79274211D01*
X173497737Y-79370184D01*
X173370184Y-79497737D01*
X173274211Y-79650476D01*
X173214631Y-79820745D01*
X173214630Y-79820750D01*
X173194435Y-79999996D01*
X173194435Y-80000003D01*
X173214630Y-80179249D01*
X173214631Y-80179254D01*
X173274211Y-80349523D01*
X173322372Y-80426170D01*
X173370184Y-80502262D01*
X173497738Y-80629816D01*
X173650478Y-80725789D01*
X173820745Y-80785368D01*
X173820750Y-80785369D01*
X173999996Y-80805565D01*
X174000000Y-80805565D01*
X174000004Y-80805565D01*
X174179249Y-80785369D01*
X174179252Y-80785368D01*
X174179255Y-80785368D01*
X174349522Y-80725789D01*
X174502262Y-80629816D01*
X174629816Y-80502262D01*
X174725789Y-80349522D01*
X174785368Y-80179255D01*
X174785369Y-80179249D01*
X174805565Y-80000003D01*
X174805565Y-79999997D01*
X174798285Y-79935389D01*
X174810339Y-79866567D01*
X174857688Y-79815188D01*
X174925298Y-79797563D01*
X174935385Y-79798284D01*
X174961857Y-79801267D01*
X174999998Y-79805565D01*
X175000000Y-79805565D01*
X175000004Y-79805565D01*
X175179249Y-79785369D01*
X175179252Y-79785368D01*
X175179255Y-79785368D01*
X175349522Y-79725789D01*
X175502262Y-79629816D01*
X175629816Y-79502262D01*
X175725789Y-79349522D01*
X175755021Y-79265983D01*
X177284014Y-79265983D01*
X177304209Y-79445229D01*
X177304210Y-79445234D01*
X177363790Y-79615503D01*
X177409989Y-79689028D01*
X177459763Y-79768242D01*
X177587317Y-79895796D01*
X177740057Y-79991769D01*
X177882980Y-80041780D01*
X177910324Y-80051348D01*
X177910329Y-80051349D01*
X178089575Y-80071545D01*
X178089579Y-80071545D01*
X178089583Y-80071545D01*
X178268828Y-80051349D01*
X178268831Y-80051348D01*
X178268834Y-80051348D01*
X178439101Y-79991769D01*
X178591841Y-79895796D01*
X178719395Y-79768242D01*
X178815368Y-79615502D01*
X178874947Y-79445235D01*
X178889347Y-79317431D01*
X178895144Y-79265983D01*
X178895144Y-79265976D01*
X178874948Y-79086730D01*
X178874947Y-79086725D01*
X178844602Y-79000003D01*
X178815368Y-78916458D01*
X178719395Y-78763718D01*
X178591841Y-78636164D01*
X178439102Y-78540191D01*
X178268833Y-78480611D01*
X178268828Y-78480610D01*
X178089583Y-78460415D01*
X178089575Y-78460415D01*
X177910329Y-78480610D01*
X177910324Y-78480611D01*
X177740055Y-78540191D01*
X177587316Y-78636164D01*
X177459763Y-78763717D01*
X177363790Y-78916456D01*
X177304210Y-79086725D01*
X177304209Y-79086730D01*
X177284014Y-79265976D01*
X177284014Y-79265983D01*
X175755021Y-79265983D01*
X175785368Y-79179255D01*
X175785369Y-79179249D01*
X175805565Y-79000003D01*
X175805565Y-78999996D01*
X175785369Y-78820750D01*
X175785368Y-78820745D01*
X175725788Y-78650476D01*
X175629815Y-78497737D01*
X175502262Y-78370184D01*
X175349523Y-78274211D01*
X175179254Y-78214631D01*
X175179249Y-78214630D01*
X175000004Y-78194435D01*
X174999996Y-78194435D01*
X174820750Y-78214630D01*
X174820738Y-78214633D01*
X174781154Y-78228484D01*
X174711375Y-78232045D01*
X174650748Y-78197315D01*
X174618522Y-78135321D01*
X174616981Y-78097559D01*
X174620692Y-78064625D01*
X174618127Y-78041864D01*
X174600496Y-77885375D01*
X174600495Y-77885370D01*
X174540915Y-77715101D01*
X174501709Y-77652705D01*
X174444943Y-77562363D01*
X174317389Y-77434809D01*
X174164650Y-77338836D01*
X173994381Y-77279256D01*
X173994376Y-77279255D01*
X173815131Y-77259060D01*
X173815123Y-77259060D01*
X173635877Y-77279255D01*
X173635872Y-77279256D01*
X173465603Y-77338836D01*
X173312864Y-77434809D01*
X173185311Y-77562362D01*
X173089338Y-77715101D01*
X173029758Y-77885370D01*
X173029757Y-77885375D01*
X173009562Y-78064621D01*
X173009562Y-78064628D01*
X162055801Y-78064628D01*
X162040591Y-78041864D01*
X162040588Y-78041860D01*
X161901237Y-77902509D01*
X161901233Y-77902506D01*
X161737372Y-77793017D01*
X161737359Y-77793010D01*
X161555291Y-77717596D01*
X161555281Y-77717593D01*
X161361995Y-77679146D01*
X161361993Y-77679146D01*
X160064911Y-77679146D01*
X160064909Y-77679146D01*
X159871622Y-77717593D01*
X159871612Y-77717596D01*
X159689544Y-77793010D01*
X159689531Y-77793017D01*
X159525670Y-77902506D01*
X159525666Y-77902509D01*
X159386315Y-78041860D01*
X159386312Y-78041864D01*
X159276823Y-78205725D01*
X159276816Y-78205738D01*
X159201402Y-78387806D01*
X159201399Y-78387816D01*
X159162952Y-78581102D01*
X159162952Y-78581105D01*
X159162952Y-78778187D01*
X159162952Y-78778189D01*
X159162951Y-78778189D01*
X157933952Y-78778189D01*
X157933952Y-78778187D01*
X157933952Y-78581105D01*
X157933952Y-78581102D01*
X157895504Y-78387816D01*
X157895503Y-78387815D01*
X157895503Y-78387811D01*
X157848449Y-78274211D01*
X157820087Y-78205738D01*
X157820080Y-78205725D01*
X157710591Y-78041864D01*
X157710588Y-78041860D01*
X157571237Y-77902509D01*
X157571233Y-77902506D01*
X157407372Y-77793017D01*
X157407359Y-77793010D01*
X157225291Y-77717596D01*
X157225281Y-77717593D01*
X157031995Y-77679146D01*
X157031993Y-77679146D01*
X156034911Y-77679146D01*
X156034909Y-77679146D01*
X155841622Y-77717593D01*
X155841612Y-77717596D01*
X155659544Y-77793010D01*
X155659531Y-77793017D01*
X155495670Y-77902506D01*
X155495666Y-77902509D01*
X155356315Y-78041860D01*
X155356312Y-78041864D01*
X155246823Y-78205725D01*
X155246816Y-78205738D01*
X155171402Y-78387806D01*
X155171399Y-78387816D01*
X155132952Y-78581102D01*
X155132952Y-78581105D01*
X155132952Y-78778187D01*
X155132952Y-78778189D01*
X155132951Y-78778189D01*
X154500500Y-78778189D01*
X154500500Y-77000003D01*
X171194435Y-77000003D01*
X171214630Y-77179249D01*
X171214631Y-77179254D01*
X171274211Y-77349523D01*
X171327800Y-77434809D01*
X171370184Y-77502262D01*
X171497738Y-77629816D01*
X171650478Y-77725789D01*
X171820745Y-77785368D01*
X171820750Y-77785369D01*
X171999996Y-77805565D01*
X172000000Y-77805565D01*
X172000004Y-77805565D01*
X172179249Y-77785369D01*
X172179252Y-77785368D01*
X172179255Y-77785368D01*
X172349522Y-77725789D01*
X172502262Y-77629816D01*
X172629816Y-77502262D01*
X172725789Y-77349522D01*
X172785368Y-77179255D01*
X172786210Y-77171785D01*
X172805565Y-77000003D01*
X172805565Y-76999996D01*
X172785369Y-76820750D01*
X172785368Y-76820745D01*
X172725788Y-76650476D01*
X172657606Y-76541966D01*
X172629816Y-76497738D01*
X172502262Y-76370184D01*
X172490375Y-76362715D01*
X172349523Y-76274211D01*
X172179254Y-76214631D01*
X172179249Y-76214630D01*
X172000004Y-76194435D01*
X171999996Y-76194435D01*
X171820750Y-76214630D01*
X171820745Y-76214631D01*
X171650476Y-76274211D01*
X171497737Y-76370184D01*
X171370184Y-76497737D01*
X171274211Y-76650476D01*
X171214631Y-76820745D01*
X171214630Y-76820750D01*
X171194435Y-76999996D01*
X171194435Y-77000003D01*
X154500500Y-77000003D01*
X154500500Y-75000003D01*
X165194435Y-75000003D01*
X165214630Y-75179249D01*
X165214631Y-75179254D01*
X165274211Y-75349523D01*
X165321383Y-75424596D01*
X165370184Y-75502262D01*
X165497738Y-75629816D01*
X165650478Y-75725789D01*
X165734527Y-75755199D01*
X165820745Y-75785368D01*
X165820750Y-75785369D01*
X165999996Y-75805565D01*
X166000000Y-75805565D01*
X166000004Y-75805565D01*
X166179249Y-75785369D01*
X166179252Y-75785368D01*
X166179255Y-75785368D01*
X166349522Y-75725789D01*
X166502262Y-75629816D01*
X166629816Y-75502262D01*
X166725789Y-75349522D01*
X166785368Y-75179255D01*
X166785369Y-75179249D01*
X166805565Y-75000003D01*
X172194435Y-75000003D01*
X172214630Y-75179249D01*
X172214631Y-75179254D01*
X172274211Y-75349523D01*
X172321383Y-75424596D01*
X172370184Y-75502262D01*
X172497738Y-75629816D01*
X172650478Y-75725789D01*
X172734527Y-75755199D01*
X172820745Y-75785368D01*
X172820750Y-75785369D01*
X172999996Y-75805565D01*
X173000000Y-75805565D01*
X173000004Y-75805565D01*
X173179249Y-75785369D01*
X173179252Y-75785368D01*
X173179255Y-75785368D01*
X173265879Y-75755057D01*
X176949489Y-75755057D01*
X176969684Y-75934303D01*
X176969685Y-75934308D01*
X177029265Y-76104577D01*
X177125238Y-76257316D01*
X177235323Y-76367401D01*
X177268808Y-76428724D01*
X177270862Y-76468965D01*
X177262637Y-76541967D01*
X177262637Y-76541973D01*
X177282832Y-76721219D01*
X177282833Y-76721224D01*
X177342413Y-76891493D01*
X177410593Y-77000000D01*
X177438386Y-77044232D01*
X177565940Y-77171786D01*
X177577827Y-77179255D01*
X177704835Y-77259060D01*
X177718680Y-77267759D01*
X177888947Y-77327338D01*
X177888952Y-77327339D01*
X178068198Y-77347535D01*
X178068202Y-77347535D01*
X178068206Y-77347535D01*
X178247451Y-77327339D01*
X178247454Y-77327338D01*
X178247457Y-77327338D01*
X178417724Y-77267759D01*
X178570464Y-77171786D01*
X178698018Y-77044232D01*
X178793991Y-76891492D01*
X178853570Y-76721225D01*
X178856131Y-76698495D01*
X178873767Y-76541973D01*
X178873767Y-76541966D01*
X178853571Y-76362720D01*
X178853570Y-76362715D01*
X178816689Y-76257316D01*
X178793991Y-76192448D01*
X178698018Y-76039708D01*
X178624874Y-75966564D01*
X178591389Y-75905241D01*
X178596373Y-75835549D01*
X178638245Y-75779616D01*
X178703709Y-75755199D01*
X178753510Y-75761842D01*
X178820737Y-75785366D01*
X178820743Y-75785367D01*
X178820745Y-75785368D01*
X178820746Y-75785368D01*
X178820750Y-75785369D01*
X178999996Y-75805565D01*
X179000000Y-75805565D01*
X179000004Y-75805565D01*
X179179249Y-75785369D01*
X179179252Y-75785368D01*
X179179255Y-75785368D01*
X179349522Y-75725789D01*
X179502262Y-75629816D01*
X179629816Y-75502262D01*
X179725789Y-75349522D01*
X179785368Y-75179255D01*
X179785369Y-75179249D01*
X179805565Y-75000003D01*
X179805565Y-74999996D01*
X179785369Y-74820750D01*
X179785368Y-74820745D01*
X179753199Y-74728812D01*
X179725789Y-74650478D01*
X179629816Y-74497738D01*
X179502262Y-74370184D01*
X179459002Y-74343002D01*
X179349523Y-74274211D01*
X179179254Y-74214631D01*
X179179249Y-74214630D01*
X179000004Y-74194435D01*
X178999996Y-74194435D01*
X178935388Y-74201714D01*
X178866566Y-74189659D01*
X178815187Y-74142310D01*
X178797563Y-74074699D01*
X178798285Y-74064610D01*
X178805565Y-74000002D01*
X178805565Y-73999996D01*
X178785369Y-73820750D01*
X178785368Y-73820745D01*
X178777350Y-73797830D01*
X178725789Y-73650478D01*
X178629816Y-73497738D01*
X178502262Y-73370184D01*
X178478738Y-73355403D01*
X178349523Y-73274211D01*
X178179254Y-73214631D01*
X178179249Y-73214630D01*
X178000004Y-73194435D01*
X177999996Y-73194435D01*
X177820750Y-73214630D01*
X177820745Y-73214631D01*
X177650476Y-73274211D01*
X177497737Y-73370184D01*
X177370184Y-73497737D01*
X177274211Y-73650476D01*
X177214631Y-73820745D01*
X177214630Y-73820750D01*
X177194435Y-73999996D01*
X177194435Y-74000003D01*
X177214630Y-74179249D01*
X177214631Y-74179254D01*
X177274211Y-74349523D01*
X177329176Y-74436998D01*
X177370184Y-74502262D01*
X177497738Y-74629816D01*
X177650478Y-74725789D01*
X177650483Y-74725792D01*
X177656753Y-74728812D01*
X177655730Y-74730935D01*
X177703499Y-74765182D01*
X177729260Y-74830129D01*
X177715818Y-74898694D01*
X177667441Y-74949107D01*
X177619669Y-74964742D01*
X177575803Y-74969684D01*
X177575799Y-74969685D01*
X177405530Y-75029265D01*
X177252791Y-75125238D01*
X177125238Y-75252791D01*
X177029265Y-75405530D01*
X176969685Y-75575799D01*
X176969684Y-75575804D01*
X176949489Y-75755050D01*
X176949489Y-75755057D01*
X173265879Y-75755057D01*
X173349522Y-75725789D01*
X173502262Y-75629816D01*
X173629816Y-75502262D01*
X173725789Y-75349522D01*
X173785368Y-75179255D01*
X173785369Y-75179249D01*
X173805565Y-75000003D01*
X173805565Y-74999996D01*
X173785369Y-74820750D01*
X173785368Y-74820745D01*
X173753199Y-74728812D01*
X173725789Y-74650478D01*
X173629816Y-74497738D01*
X173502262Y-74370184D01*
X173459002Y-74343002D01*
X173349523Y-74274211D01*
X173179254Y-74214631D01*
X173179249Y-74214630D01*
X173000004Y-74194435D01*
X172999996Y-74194435D01*
X172820750Y-74214630D01*
X172820745Y-74214631D01*
X172650476Y-74274211D01*
X172497737Y-74370184D01*
X172370184Y-74497737D01*
X172274211Y-74650476D01*
X172214631Y-74820745D01*
X172214630Y-74820750D01*
X172194435Y-74999996D01*
X172194435Y-75000003D01*
X166805565Y-75000003D01*
X166805565Y-74999996D01*
X166785369Y-74820750D01*
X166785368Y-74820745D01*
X166753199Y-74728812D01*
X166725789Y-74650478D01*
X166629816Y-74497738D01*
X166502262Y-74370184D01*
X166459002Y-74343002D01*
X166349523Y-74274211D01*
X166179254Y-74214631D01*
X166179249Y-74214630D01*
X166000004Y-74194435D01*
X165999996Y-74194435D01*
X165820750Y-74214630D01*
X165820745Y-74214631D01*
X165650476Y-74274211D01*
X165497737Y-74370184D01*
X165370184Y-74497737D01*
X165274211Y-74650476D01*
X165214631Y-74820745D01*
X165214630Y-74820750D01*
X165194435Y-74999996D01*
X165194435Y-75000003D01*
X154500500Y-75000003D01*
X154500500Y-71000003D01*
X156194435Y-71000003D01*
X156214630Y-71179249D01*
X156214631Y-71179254D01*
X156274211Y-71349523D01*
X156368760Y-71499996D01*
X156370184Y-71502262D01*
X156497738Y-71629816D01*
X156650478Y-71725789D01*
X156754035Y-71762025D01*
X156820745Y-71785368D01*
X156820750Y-71785369D01*
X156999996Y-71805565D01*
X157000000Y-71805565D01*
X157000004Y-71805565D01*
X157179249Y-71785369D01*
X157179252Y-71785368D01*
X157179255Y-71785368D01*
X157349522Y-71725789D01*
X157502262Y-71629816D01*
X157629816Y-71502262D01*
X157631235Y-71500003D01*
X170694435Y-71500003D01*
X170714630Y-71679249D01*
X170714631Y-71679254D01*
X170774211Y-71849523D01*
X170788649Y-71872500D01*
X170870184Y-72002262D01*
X170997738Y-72129816D01*
X171150478Y-72225789D01*
X171320745Y-72285368D01*
X171320750Y-72285369D01*
X171499996Y-72305565D01*
X171500000Y-72305565D01*
X171500004Y-72305565D01*
X171679249Y-72285369D01*
X171679252Y-72285368D01*
X171679255Y-72285368D01*
X171849522Y-72225789D01*
X172002262Y-72129816D01*
X172129816Y-72002262D01*
X172225789Y-71849522D01*
X172285368Y-71679255D01*
X172285368Y-71679254D01*
X172287668Y-71672682D01*
X172290370Y-71673627D01*
X172318176Y-71623882D01*
X172379827Y-71591005D01*
X172449466Y-71596678D01*
X172492667Y-71624745D01*
X172497738Y-71629816D01*
X172650478Y-71725789D01*
X172754035Y-71762025D01*
X172820745Y-71785368D01*
X172820750Y-71785369D01*
X172999996Y-71805565D01*
X173000000Y-71805565D01*
X173000004Y-71805565D01*
X173154381Y-71788171D01*
X173223202Y-71800225D01*
X173274582Y-71847575D01*
X173276043Y-71850283D01*
X173277854Y-71853165D01*
X173373827Y-72005905D01*
X173501381Y-72133459D01*
X173563818Y-72172691D01*
X173648321Y-72225788D01*
X173654121Y-72229432D01*
X173813977Y-72285368D01*
X173824388Y-72289011D01*
X173824393Y-72289012D01*
X174003639Y-72309208D01*
X174003643Y-72309208D01*
X174003647Y-72309208D01*
X174182892Y-72289012D01*
X174182895Y-72289011D01*
X174182898Y-72289011D01*
X174353165Y-72229432D01*
X174505905Y-72133459D01*
X174633459Y-72005905D01*
X174729432Y-71853165D01*
X174789011Y-71682898D01*
X174789012Y-71682892D01*
X174809208Y-71503646D01*
X174809208Y-71503639D01*
X174808798Y-71500003D01*
X177694435Y-71500003D01*
X177714630Y-71679249D01*
X177714631Y-71679254D01*
X177774211Y-71849523D01*
X177788649Y-71872500D01*
X177870184Y-72002262D01*
X177997738Y-72129816D01*
X178150478Y-72225789D01*
X178320745Y-72285368D01*
X178320750Y-72285369D01*
X178499996Y-72305565D01*
X178500000Y-72305565D01*
X178500004Y-72305565D01*
X178679249Y-72285369D01*
X178679252Y-72285368D01*
X178679255Y-72285368D01*
X178849522Y-72225789D01*
X178934027Y-72172691D01*
X179001264Y-72153690D01*
X179065973Y-72172691D01*
X179150475Y-72225788D01*
X179320745Y-72285368D01*
X179320750Y-72285369D01*
X179499996Y-72305565D01*
X179500000Y-72305565D01*
X179500004Y-72305565D01*
X179679249Y-72285369D01*
X179679252Y-72285368D01*
X179679255Y-72285368D01*
X179849522Y-72225789D01*
X180002262Y-72129816D01*
X180129816Y-72002262D01*
X180225789Y-71849522D01*
X180285368Y-71679255D01*
X180286109Y-71672682D01*
X180305565Y-71500003D01*
X180305565Y-71499996D01*
X180285369Y-71320750D01*
X180285368Y-71320745D01*
X180252141Y-71225788D01*
X180225789Y-71150478D01*
X180129816Y-70997738D01*
X180002262Y-70870184D01*
X179964265Y-70846309D01*
X179849523Y-70774211D01*
X179679254Y-70714631D01*
X179679249Y-70714630D01*
X179500004Y-70694435D01*
X179499996Y-70694435D01*
X179320750Y-70714630D01*
X179320737Y-70714633D01*
X179150479Y-70774209D01*
X179065971Y-70827309D01*
X178998734Y-70846309D01*
X178934029Y-70827309D01*
X178849520Y-70774209D01*
X178679262Y-70714633D01*
X178679249Y-70714630D01*
X178500004Y-70694435D01*
X178499996Y-70694435D01*
X178320750Y-70714630D01*
X178320745Y-70714631D01*
X178150476Y-70774211D01*
X177997737Y-70870184D01*
X177870184Y-70997737D01*
X177774211Y-71150476D01*
X177714631Y-71320745D01*
X177714630Y-71320750D01*
X177694435Y-71499996D01*
X177694435Y-71500003D01*
X174808798Y-71500003D01*
X174789012Y-71324393D01*
X174789011Y-71324388D01*
X174738226Y-71179254D01*
X174729432Y-71154121D01*
X174633459Y-71001381D01*
X174505905Y-70873827D01*
X174497844Y-70868762D01*
X174353166Y-70777854D01*
X174182897Y-70718274D01*
X174182892Y-70718273D01*
X174003647Y-70698078D01*
X174003639Y-70698078D01*
X173849261Y-70715471D01*
X173780439Y-70703416D01*
X173729060Y-70656067D01*
X173727600Y-70653361D01*
X173725789Y-70650479D01*
X173725789Y-70650478D01*
X173629816Y-70497738D01*
X173502262Y-70370184D01*
X173349523Y-70274211D01*
X173179254Y-70214631D01*
X173179249Y-70214630D01*
X173000004Y-70194435D01*
X172999996Y-70194435D01*
X172820750Y-70214630D01*
X172820745Y-70214631D01*
X172650476Y-70274211D01*
X172497737Y-70370184D01*
X172370184Y-70497737D01*
X172274211Y-70650476D01*
X172212332Y-70827318D01*
X172209648Y-70826378D01*
X172181738Y-70876200D01*
X172120055Y-70909018D01*
X172050422Y-70903278D01*
X172007332Y-70875254D01*
X172002262Y-70870184D01*
X171849523Y-70774211D01*
X171679254Y-70714631D01*
X171679249Y-70714630D01*
X171500004Y-70694435D01*
X171499996Y-70694435D01*
X171320750Y-70714630D01*
X171320745Y-70714631D01*
X171150476Y-70774211D01*
X170997737Y-70870184D01*
X170870184Y-70997737D01*
X170774211Y-71150476D01*
X170714631Y-71320745D01*
X170714630Y-71320750D01*
X170694435Y-71499996D01*
X170694435Y-71500003D01*
X157631235Y-71500003D01*
X157725789Y-71349522D01*
X157785368Y-71179255D01*
X157788200Y-71154119D01*
X157805565Y-71000003D01*
X157805565Y-70999996D01*
X157785369Y-70820750D01*
X157785367Y-70820742D01*
X157741170Y-70694435D01*
X157725789Y-70650478D01*
X157631239Y-70500003D01*
X162194435Y-70500003D01*
X162214630Y-70679249D01*
X162214631Y-70679254D01*
X162274211Y-70849523D01*
X162365747Y-70995200D01*
X162370184Y-71002262D01*
X162497738Y-71129816D01*
X162650478Y-71225789D01*
X162820745Y-71285368D01*
X162820750Y-71285369D01*
X162999996Y-71305565D01*
X163000000Y-71305565D01*
X163000004Y-71305565D01*
X163179249Y-71285369D01*
X163179252Y-71285368D01*
X163179255Y-71285368D01*
X163349522Y-71225789D01*
X163502262Y-71129816D01*
X163629816Y-71002262D01*
X163725789Y-70849522D01*
X163785368Y-70679255D01*
X163788286Y-70653361D01*
X163805565Y-70500003D01*
X163805565Y-70499996D01*
X163788342Y-70347136D01*
X163800397Y-70278315D01*
X163845590Y-70228259D01*
X163849519Y-70225789D01*
X163849522Y-70225789D01*
X164002262Y-70129816D01*
X164129816Y-70002262D01*
X164225789Y-69849522D01*
X164285368Y-69679255D01*
X164288342Y-69652863D01*
X164305565Y-69500003D01*
X164305565Y-69499996D01*
X164285369Y-69320750D01*
X164285368Y-69320745D01*
X164265056Y-69262696D01*
X164225789Y-69150478D01*
X164129816Y-68997738D01*
X164002262Y-68870184D01*
X163849523Y-68774211D01*
X163679254Y-68714631D01*
X163679249Y-68714630D01*
X163500004Y-68694435D01*
X163499996Y-68694435D01*
X163320750Y-68714630D01*
X163320745Y-68714631D01*
X163150476Y-68774211D01*
X162997737Y-68870184D01*
X162870184Y-68997737D01*
X162774211Y-69150476D01*
X162714631Y-69320745D01*
X162714630Y-69320750D01*
X162694435Y-69499996D01*
X162694435Y-69500004D01*
X162711657Y-69652863D01*
X162699602Y-69721685D01*
X162654410Y-69771739D01*
X162497739Y-69870182D01*
X162370184Y-69997737D01*
X162274211Y-70150476D01*
X162214631Y-70320745D01*
X162214630Y-70320750D01*
X162194435Y-70499996D01*
X162194435Y-70500003D01*
X157631239Y-70500003D01*
X157629816Y-70497738D01*
X157502262Y-70370184D01*
X157349523Y-70274211D01*
X157179254Y-70214631D01*
X157179249Y-70214630D01*
X157000004Y-70194435D01*
X156999996Y-70194435D01*
X156820750Y-70214630D01*
X156820745Y-70214631D01*
X156650476Y-70274211D01*
X156497737Y-70370184D01*
X156370184Y-70497737D01*
X156274211Y-70650476D01*
X156214633Y-70820742D01*
X156214630Y-70820750D01*
X156194435Y-70999996D01*
X156194435Y-71000003D01*
X154500500Y-71000003D01*
X154500500Y-63500003D01*
X159714435Y-63500003D01*
X159734630Y-63679249D01*
X159734631Y-63679254D01*
X159794211Y-63849523D01*
X159888760Y-63999996D01*
X159890184Y-64002262D01*
X160017738Y-64129816D01*
X160059263Y-64155908D01*
X160139308Y-64206204D01*
X160170478Y-64225789D01*
X160246211Y-64252289D01*
X160340745Y-64285368D01*
X160340750Y-64285369D01*
X160519996Y-64305565D01*
X160520000Y-64305565D01*
X160520004Y-64305565D01*
X160699249Y-64285369D01*
X160699252Y-64285368D01*
X160699255Y-64285368D01*
X160869522Y-64225789D01*
X161022262Y-64129816D01*
X161149816Y-64002262D01*
X161151235Y-64000003D01*
X171506935Y-64000003D01*
X171527130Y-64179249D01*
X171527131Y-64179254D01*
X171586711Y-64349523D01*
X171623244Y-64407664D01*
X171682684Y-64502262D01*
X171810238Y-64629816D01*
X171962978Y-64725789D01*
X171962979Y-64725789D01*
X171967906Y-64728885D01*
X172014197Y-64781220D01*
X172025154Y-64847762D01*
X172006935Y-65009465D01*
X172006935Y-65009472D01*
X172027130Y-65188718D01*
X172027131Y-65188723D01*
X172086711Y-65358992D01*
X172182684Y-65511731D01*
X172310238Y-65639285D01*
X172462978Y-65735258D01*
X172633245Y-65794837D01*
X172633250Y-65794838D01*
X172812496Y-65815034D01*
X172812500Y-65815034D01*
X172812504Y-65815034D01*
X172991749Y-65794838D01*
X172991752Y-65794837D01*
X172991755Y-65794837D01*
X173162022Y-65735258D01*
X173314762Y-65639285D01*
X173442316Y-65511731D01*
X173538289Y-65358991D01*
X173597868Y-65188724D01*
X173618065Y-65009469D01*
X173599845Y-64847762D01*
X173597869Y-64830219D01*
X173597868Y-64830214D01*
X173538288Y-64659945D01*
X173442315Y-64507206D01*
X173314762Y-64379653D01*
X173157094Y-64280583D01*
X173110803Y-64228248D01*
X173099846Y-64161706D01*
X173118065Y-64000003D01*
X173118065Y-63999996D01*
X173097869Y-63820750D01*
X173097868Y-63820745D01*
X173038289Y-63650478D01*
X172942316Y-63497738D01*
X172814762Y-63370184D01*
X172662023Y-63274211D01*
X172491754Y-63214631D01*
X172491749Y-63214630D01*
X172312504Y-63194435D01*
X172312496Y-63194435D01*
X172133250Y-63214630D01*
X172133245Y-63214631D01*
X171962976Y-63274211D01*
X171810237Y-63370184D01*
X171682684Y-63497737D01*
X171586711Y-63650476D01*
X171527131Y-63820745D01*
X171527130Y-63820750D01*
X171506935Y-63999996D01*
X171506935Y-64000003D01*
X161151235Y-64000003D01*
X161245789Y-63849522D01*
X161305368Y-63679255D01*
X161305369Y-63679249D01*
X161325565Y-63500003D01*
X161325565Y-63499996D01*
X161305369Y-63320750D01*
X161305368Y-63320745D01*
X161245788Y-63150476D01*
X161149815Y-62997737D01*
X161022262Y-62870184D01*
X160869523Y-62774211D01*
X160699254Y-62714631D01*
X160699249Y-62714630D01*
X160520004Y-62694435D01*
X160519996Y-62694435D01*
X160340750Y-62714630D01*
X160340745Y-62714631D01*
X160170476Y-62774211D01*
X160017737Y-62870184D01*
X159890184Y-62997737D01*
X159794211Y-63150476D01*
X159734631Y-63320745D01*
X159734630Y-63320750D01*
X159714435Y-63499996D01*
X159714435Y-63500003D01*
X154500500Y-63500003D01*
X154500500Y-59000003D01*
X167694435Y-59000003D01*
X167714630Y-59179249D01*
X167714631Y-59179254D01*
X167774211Y-59349523D01*
X167870184Y-59502262D01*
X167997738Y-59629816D01*
X168150478Y-59725789D01*
X168320745Y-59785368D01*
X168320750Y-59785369D01*
X168499996Y-59805565D01*
X168500000Y-59805565D01*
X168500004Y-59805565D01*
X168679249Y-59785369D01*
X168679252Y-59785368D01*
X168679255Y-59785368D01*
X168849522Y-59725789D01*
X169002262Y-59629816D01*
X169129816Y-59502262D01*
X169225789Y-59349522D01*
X169285368Y-59179255D01*
X169305565Y-59000003D01*
X172694435Y-59000003D01*
X172714630Y-59179249D01*
X172714631Y-59179254D01*
X172774211Y-59349523D01*
X172870184Y-59502262D01*
X172997738Y-59629816D01*
X173150478Y-59725789D01*
X173320745Y-59785368D01*
X173320750Y-59785369D01*
X173499996Y-59805565D01*
X173500000Y-59805565D01*
X173500004Y-59805565D01*
X173679249Y-59785369D01*
X173679252Y-59785368D01*
X173679255Y-59785368D01*
X173849522Y-59725789D01*
X174002262Y-59629816D01*
X174129816Y-59502262D01*
X174225789Y-59349522D01*
X174285368Y-59179255D01*
X174305565Y-59000000D01*
X174285368Y-58820745D01*
X174225789Y-58650478D01*
X174129816Y-58497738D01*
X174002262Y-58370184D01*
X173849523Y-58274211D01*
X173679254Y-58214631D01*
X173679249Y-58214630D01*
X173500004Y-58194435D01*
X173499996Y-58194435D01*
X173320750Y-58214630D01*
X173320745Y-58214631D01*
X173150476Y-58274211D01*
X172997737Y-58370184D01*
X172870184Y-58497737D01*
X172774211Y-58650476D01*
X172714631Y-58820745D01*
X172714630Y-58820750D01*
X172694435Y-58999996D01*
X172694435Y-59000003D01*
X169305565Y-59000003D01*
X169305565Y-59000000D01*
X169285368Y-58820745D01*
X169225789Y-58650478D01*
X169129816Y-58497738D01*
X169002262Y-58370184D01*
X168849523Y-58274211D01*
X168679254Y-58214631D01*
X168679249Y-58214630D01*
X168500004Y-58194435D01*
X168499996Y-58194435D01*
X168320750Y-58214630D01*
X168320745Y-58214631D01*
X168150476Y-58274211D01*
X167997737Y-58370184D01*
X167870184Y-58497737D01*
X167774211Y-58650476D01*
X167714631Y-58820745D01*
X167714630Y-58820750D01*
X167694435Y-58999996D01*
X167694435Y-59000003D01*
X154500500Y-59000003D01*
X154500500Y-56000003D01*
X168194435Y-56000003D01*
X168214630Y-56179249D01*
X168214631Y-56179254D01*
X168274211Y-56349523D01*
X168370184Y-56502262D01*
X168497738Y-56629816D01*
X168650478Y-56725789D01*
X168820745Y-56785368D01*
X168820750Y-56785369D01*
X168999996Y-56805565D01*
X169000000Y-56805565D01*
X169000004Y-56805565D01*
X169179249Y-56785369D01*
X169179252Y-56785368D01*
X169179255Y-56785368D01*
X169349522Y-56725789D01*
X169502262Y-56629816D01*
X169629816Y-56502262D01*
X169725789Y-56349522D01*
X169785368Y-56179255D01*
X169805565Y-56000000D01*
X169785368Y-55820745D01*
X169725789Y-55650478D01*
X169629816Y-55497738D01*
X169502262Y-55370184D01*
X169349523Y-55274211D01*
X169179254Y-55214631D01*
X169179249Y-55214630D01*
X169000004Y-55194435D01*
X168999996Y-55194435D01*
X168820750Y-55214630D01*
X168820745Y-55214631D01*
X168650476Y-55274211D01*
X168497737Y-55370184D01*
X168370184Y-55497737D01*
X168274211Y-55650476D01*
X168214631Y-55820745D01*
X168214630Y-55820750D01*
X168194435Y-55999996D01*
X168194435Y-56000003D01*
X154500500Y-56000003D01*
X154500500Y-52000003D01*
X171194435Y-52000003D01*
X171214630Y-52179249D01*
X171214631Y-52179254D01*
X171274211Y-52349523D01*
X171370184Y-52502262D01*
X171497738Y-52629816D01*
X171650478Y-52725789D01*
X171820745Y-52785368D01*
X171820750Y-52785369D01*
X171999996Y-52805565D01*
X172000000Y-52805565D01*
X172000004Y-52805565D01*
X172179249Y-52785369D01*
X172179252Y-52785368D01*
X172179255Y-52785368D01*
X172349522Y-52725789D01*
X172502262Y-52629816D01*
X172629816Y-52502262D01*
X172725789Y-52349522D01*
X172785368Y-52179255D01*
X172805565Y-52000000D01*
X172785368Y-51820745D01*
X172725789Y-51650478D01*
X172629816Y-51497738D01*
X172502262Y-51370184D01*
X172349523Y-51274211D01*
X172179254Y-51214631D01*
X172179249Y-51214630D01*
X172000004Y-51194435D01*
X171999996Y-51194435D01*
X171820750Y-51214630D01*
X171820745Y-51214631D01*
X171650476Y-51274211D01*
X171497737Y-51370184D01*
X171370184Y-51497737D01*
X171274211Y-51650476D01*
X171214631Y-51820745D01*
X171214630Y-51820750D01*
X171194435Y-51999996D01*
X171194435Y-52000003D01*
X154500500Y-52000003D01*
X154500500Y-50276852D01*
X170126531Y-50276852D01*
X170146726Y-50456098D01*
X170146727Y-50456103D01*
X170206307Y-50626372D01*
X170302280Y-50779111D01*
X170429834Y-50906665D01*
X170582574Y-51002638D01*
X170752841Y-51062217D01*
X170752846Y-51062218D01*
X170932092Y-51082414D01*
X170932096Y-51082414D01*
X170932100Y-51082414D01*
X171111345Y-51062218D01*
X171111348Y-51062217D01*
X171111351Y-51062217D01*
X171281618Y-51002638D01*
X171434358Y-50906665D01*
X171561912Y-50779111D01*
X171657885Y-50626371D01*
X171717464Y-50456104D01*
X171737661Y-50276849D01*
X171717464Y-50097594D01*
X171657885Y-49927327D01*
X171561912Y-49774587D01*
X171434358Y-49647033D01*
X171281619Y-49551060D01*
X171111350Y-49491480D01*
X171111345Y-49491479D01*
X170932100Y-49471284D01*
X170932092Y-49471284D01*
X170752846Y-49491479D01*
X170752841Y-49491480D01*
X170582572Y-49551060D01*
X170429833Y-49647033D01*
X170302280Y-49774586D01*
X170206307Y-49927325D01*
X170146727Y-50097594D01*
X170146726Y-50097599D01*
X170126531Y-50276845D01*
X170126531Y-50276852D01*
X154500500Y-50276852D01*
X154500500Y-39097634D01*
X157259500Y-39097634D01*
X157290045Y-39290485D01*
X157350381Y-39476184D01*
X157350382Y-39476187D01*
X157439031Y-39650167D01*
X157553793Y-39808125D01*
X157553797Y-39808130D01*
X157691869Y-39946202D01*
X157691874Y-39946206D01*
X157829653Y-40046307D01*
X157849836Y-40060971D01*
X157963565Y-40118919D01*
X158023812Y-40149617D01*
X158023815Y-40149618D01*
X158116664Y-40179786D01*
X158209516Y-40209955D01*
X158298835Y-40224101D01*
X158402366Y-40240500D01*
X158402371Y-40240500D01*
X158597634Y-40240500D01*
X158691125Y-40225691D01*
X158790484Y-40209955D01*
X158976187Y-40149617D01*
X159150164Y-40060971D01*
X159308132Y-39946201D01*
X159446201Y-39808132D01*
X159560971Y-39650164D01*
X159649617Y-39476187D01*
X159709955Y-39290484D01*
X159725691Y-39191125D01*
X159740500Y-39097634D01*
X180259500Y-39097634D01*
X180290045Y-39290485D01*
X180350381Y-39476184D01*
X180350382Y-39476187D01*
X180439031Y-39650167D01*
X180553793Y-39808125D01*
X180553797Y-39808130D01*
X180691869Y-39946202D01*
X180691874Y-39946206D01*
X180829653Y-40046307D01*
X180849836Y-40060971D01*
X180963565Y-40118919D01*
X181023812Y-40149617D01*
X181023815Y-40149618D01*
X181116664Y-40179786D01*
X181209516Y-40209955D01*
X181298835Y-40224101D01*
X181402366Y-40240500D01*
X181402371Y-40240500D01*
X181597634Y-40240500D01*
X181691125Y-40225691D01*
X181790484Y-40209955D01*
X181976187Y-40149617D01*
X182150164Y-40060971D01*
X182308132Y-39946201D01*
X182446201Y-39808132D01*
X182560971Y-39650164D01*
X182649617Y-39476187D01*
X182709955Y-39290484D01*
X182725691Y-39191125D01*
X182740500Y-39097634D01*
X182740500Y-38902365D01*
X182722730Y-38790174D01*
X182709955Y-38709516D01*
X182649617Y-38523813D01*
X182649617Y-38523812D01*
X182618919Y-38463565D01*
X182560971Y-38349836D01*
X182546307Y-38329653D01*
X182446206Y-38191874D01*
X182446202Y-38191869D01*
X182308130Y-38053797D01*
X182308125Y-38053793D01*
X182150167Y-37939031D01*
X182150166Y-37939030D01*
X182150164Y-37939029D01*
X182094426Y-37910629D01*
X181976187Y-37850382D01*
X181976184Y-37850381D01*
X181790485Y-37790045D01*
X181597634Y-37759500D01*
X181597629Y-37759500D01*
X181402371Y-37759500D01*
X181402366Y-37759500D01*
X181209514Y-37790045D01*
X181023815Y-37850381D01*
X181023812Y-37850382D01*
X180849832Y-37939031D01*
X180691874Y-38053793D01*
X180691869Y-38053797D01*
X180553797Y-38191869D01*
X180553793Y-38191874D01*
X180439031Y-38349832D01*
X180350382Y-38523812D01*
X180350381Y-38523815D01*
X180290045Y-38709514D01*
X180259500Y-38902365D01*
X180259500Y-39097634D01*
X159740500Y-39097634D01*
X159740500Y-38902365D01*
X159722730Y-38790174D01*
X159709955Y-38709516D01*
X159649617Y-38523813D01*
X159649617Y-38523812D01*
X159618919Y-38463565D01*
X159560971Y-38349836D01*
X159546307Y-38329653D01*
X159446206Y-38191874D01*
X159446202Y-38191869D01*
X159308130Y-38053797D01*
X159308125Y-38053793D01*
X159150167Y-37939031D01*
X159150166Y-37939030D01*
X159150164Y-37939029D01*
X159094426Y-37910629D01*
X158976187Y-37850382D01*
X158976184Y-37850381D01*
X158790485Y-37790045D01*
X158597634Y-37759500D01*
X158597629Y-37759500D01*
X158402371Y-37759500D01*
X158402366Y-37759500D01*
X158209514Y-37790045D01*
X158023815Y-37850381D01*
X158023812Y-37850382D01*
X157849832Y-37939031D01*
X157691874Y-38053793D01*
X157691869Y-38053797D01*
X157553797Y-38191869D01*
X157553793Y-38191874D01*
X157439031Y-38349832D01*
X157350382Y-38523812D01*
X157350381Y-38523815D01*
X157290045Y-38709514D01*
X157259500Y-38902365D01*
X157259500Y-39097634D01*
X154500500Y-39097634D01*
X154500500Y-36624500D01*
X154520185Y-36557461D01*
X154572989Y-36511706D01*
X154624500Y-36500500D01*
X183875500Y-36500500D01*
X183942539Y-36520185D01*
G37*
G04 #@! TD.AperFunction*
M02*
