G04 #@! TF.GenerationSoftware,KiCad,Pcbnew,8.0.1*
G04 #@! TF.CreationDate,2025-06-08T13:02:34-04:00*
G04 #@! TF.ProjectId,Topaz,546f7061-7a2e-46b6-9963-61645f706362,rev?*
G04 #@! TF.SameCoordinates,Original*
G04 #@! TF.FileFunction,Legend,Top*
G04 #@! TF.FilePolarity,Positive*
%FSLAX46Y46*%
G04 Gerber Fmt 4.6, Leading zero omitted, Abs format (unit mm)*
G04 Created by KiCad (PCBNEW 8.0.1) date 2025-06-08 13:02:34*
%MOMM*%
%LPD*%
G01*
G04 APERTURE LIST*
G04 Aperture macros list*
%AMRoundRect*
0 Rectangle with rounded corners*
0 $1 Rounding radius*
0 $2 $3 $4 $5 $6 $7 $8 $9 X,Y pos of 4 corners*
0 Add a 4 corners polygon primitive as box body*
4,1,4,$2,$3,$4,$5,$6,$7,$8,$9,$2,$3,0*
0 Add four circle primitives for the rounded corners*
1,1,$1+$1,$2,$3*
1,1,$1+$1,$4,$5*
1,1,$1+$1,$6,$7*
1,1,$1+$1,$8,$9*
0 Add four rect primitives between the rounded corners*
20,1,$1+$1,$2,$3,$4,$5,0*
20,1,$1+$1,$4,$5,$6,$7,0*
20,1,$1+$1,$6,$7,$8,$9,0*
20,1,$1+$1,$8,$9,$2,$3,0*%
G04 Aperture macros list end*
%ADD10C,0.150000*%
%ADD11C,0.100000*%
%ADD12C,0.254000*%
%ADD13C,0.300000*%
%ADD14C,0.120000*%
%ADD15C,0.152400*%
%ADD16C,0.200000*%
%ADD17C,0.127000*%
%ADD18C,2.100000*%
%ADD19R,1.800000X0.800000*%
%ADD20RoundRect,0.160000X-0.160000X0.222500X-0.160000X-0.222500X0.160000X-0.222500X0.160000X0.222500X0*%
%ADD21RoundRect,0.155000X0.155000X-0.212500X0.155000X0.212500X-0.155000X0.212500X-0.155000X-0.212500X0*%
%ADD22RoundRect,0.155000X-0.212500X-0.155000X0.212500X-0.155000X0.212500X0.155000X-0.212500X0.155000X0*%
%ADD23R,1.168400X2.209800*%
%ADD24RoundRect,0.160000X-0.160000X0.197500X-0.160000X-0.197500X0.160000X-0.197500X0.160000X0.197500X0*%
%ADD25RoundRect,0.140000X0.140000X0.170000X-0.140000X0.170000X-0.140000X-0.170000X0.140000X-0.170000X0*%
%ADD26RoundRect,0.135000X0.135000X0.185000X-0.135000X0.185000X-0.135000X-0.185000X0.135000X-0.185000X0*%
%ADD27RoundRect,0.140000X-0.170000X0.140000X-0.170000X-0.140000X0.170000X-0.140000X0.170000X0.140000X0*%
%ADD28RoundRect,0.147500X-0.172500X0.147500X-0.172500X-0.147500X0.172500X-0.147500X0.172500X0.147500X0*%
%ADD29RoundRect,0.075000X0.075000X-0.225000X0.075000X0.225000X-0.075000X0.225000X-0.075000X-0.225000X0*%
%ADD30RoundRect,0.075000X0.237500X-0.075000X0.237500X0.075000X-0.237500X0.075000X-0.237500X-0.075000X0*%
%ADD31RoundRect,0.160000X-0.197500X-0.160000X0.197500X-0.160000X0.197500X0.160000X-0.197500X0.160000X0*%
%ADD32RoundRect,0.102000X-0.750000X1.750000X-0.750000X-1.750000X0.750000X-1.750000X0.750000X1.750000X0*%
%ADD33RoundRect,0.250000X0.475000X-0.250000X0.475000X0.250000X-0.475000X0.250000X-0.475000X-0.250000X0*%
%ADD34RoundRect,0.140000X-0.140000X-0.170000X0.140000X-0.170000X0.140000X0.170000X-0.140000X0.170000X0*%
%ADD35RoundRect,0.155000X-0.155000X0.212500X-0.155000X-0.212500X0.155000X-0.212500X0.155000X0.212500X0*%
%ADD36RoundRect,0.075500X0.226500X-0.476500X0.226500X0.476500X-0.226500X0.476500X-0.226500X-0.476500X0*%
%ADD37RoundRect,0.140000X0.170000X-0.140000X0.170000X0.140000X-0.170000X0.140000X-0.170000X-0.140000X0*%
%ADD38RoundRect,0.135000X-0.185000X0.135000X-0.185000X-0.135000X0.185000X-0.135000X0.185000X0.135000X0*%
%ADD39RoundRect,0.062500X-0.350000X-0.062500X0.350000X-0.062500X0.350000X0.062500X-0.350000X0.062500X0*%
%ADD40RoundRect,0.062500X-0.062500X-0.350000X0.062500X-0.350000X0.062500X0.350000X-0.062500X0.350000X0*%
%ADD41R,2.600000X2.600000*%
%ADD42RoundRect,0.155000X0.212500X0.155000X-0.212500X0.155000X-0.212500X-0.155000X0.212500X-0.155000X0*%
%ADD43RoundRect,0.075000X0.662500X0.075000X-0.662500X0.075000X-0.662500X-0.075000X0.662500X-0.075000X0*%
%ADD44RoundRect,0.075000X0.075000X0.662500X-0.075000X0.662500X-0.075000X-0.662500X0.075000X-0.662500X0*%
%ADD45RoundRect,0.099400X-0.397600X0.447600X-0.397600X-0.447600X0.397600X-0.447600X0.397600X0.447600X0*%
%ADD46RoundRect,0.147500X0.147500X0.172500X-0.147500X0.172500X-0.147500X-0.172500X0.147500X-0.172500X0*%
%ADD47RoundRect,0.160000X0.160000X-0.197500X0.160000X0.197500X-0.160000X0.197500X-0.160000X-0.197500X0*%
%ADD48O,1.700000X1.700000*%
%ADD49R,1.700000X1.700000*%
%ADD50RoundRect,0.102000X0.350000X-0.425000X0.350000X0.425000X-0.350000X0.425000X-0.350000X-0.425000X0*%
%ADD51R,1.250000X1.000000*%
%ADD52RoundRect,0.147500X0.172500X-0.147500X0.172500X0.147500X-0.172500X0.147500X-0.172500X-0.147500X0*%
%ADD53RoundRect,0.150000X-0.150000X-0.200000X0.150000X-0.200000X0.150000X0.200000X-0.150000X0.200000X0*%
%ADD54R,0.350000X0.500000*%
%ADD55C,0.650000*%
%ADD56RoundRect,0.150000X-0.425000X0.150000X-0.425000X-0.150000X0.425000X-0.150000X0.425000X0.150000X0*%
%ADD57RoundRect,0.075000X-0.500000X0.075000X-0.500000X-0.075000X0.500000X-0.075000X0.500000X0.075000X0*%
%ADD58O,2.100000X1.000000*%
%ADD59O,1.800000X1.000000*%
%ADD60RoundRect,0.160000X0.197500X0.160000X-0.197500X0.160000X-0.197500X-0.160000X0.197500X-0.160000X0*%
%ADD61RoundRect,0.375000X-0.625000X-0.375000X0.625000X-0.375000X0.625000X0.375000X-0.625000X0.375000X0*%
%ADD62RoundRect,0.500000X-0.500000X-1.400000X0.500000X-1.400000X0.500000X1.400000X-0.500000X1.400000X0*%
G04 APERTURE END LIST*
D10*
X1613095Y370180D02*
X1613095Y1370180D01*
X1613095Y893990D02*
X2184523Y893990D01*
X2184523Y370180D02*
X2184523Y1370180D01*
X3089285Y1036847D02*
X3089285Y370180D01*
X2851190Y1417800D02*
X2613095Y703514D01*
X2613095Y703514D02*
X3232142Y703514D01*
D11*
X162812037Y-109284125D02*
X162812037Y-108717459D01*
X162812037Y-108717459D02*
X162778704Y-108650792D01*
X162778704Y-108650792D02*
X162745370Y-108617459D01*
X162745370Y-108617459D02*
X162678704Y-108584125D01*
X162678704Y-108584125D02*
X162545370Y-108584125D01*
X162545370Y-108584125D02*
X162478704Y-108617459D01*
X162478704Y-108617459D02*
X162445370Y-108650792D01*
X162445370Y-108650792D02*
X162412037Y-108717459D01*
X162412037Y-108717459D02*
X162412037Y-109284125D01*
X162145371Y-109284125D02*
X161678704Y-109284125D01*
X161678704Y-109284125D02*
X161978704Y-108584125D01*
X180336666Y-104911366D02*
X180003333Y-104911366D01*
X180403333Y-104711366D02*
X180170000Y-105411366D01*
X180170000Y-105411366D02*
X179936666Y-104711366D01*
X179703333Y-105078033D02*
X179470000Y-105078033D01*
X179370000Y-104711366D02*
X179703333Y-104711366D01*
X179703333Y-104711366D02*
X179703333Y-105411366D01*
X179703333Y-105411366D02*
X179370000Y-105411366D01*
X178703333Y-104711366D02*
X179103333Y-104711366D01*
X178903333Y-104711366D02*
X178903333Y-105411366D01*
X178903333Y-105411366D02*
X178970000Y-105311366D01*
X178970000Y-105311366D02*
X179036667Y-105244700D01*
X179036667Y-105244700D02*
X179103333Y-105211366D01*
D10*
X168851915Y-48563753D02*
X169661438Y-48563753D01*
X169661438Y-48563753D02*
X169756676Y-48516134D01*
X169756676Y-48516134D02*
X169804296Y-48468515D01*
X169804296Y-48468515D02*
X169851915Y-48373277D01*
X169851915Y-48373277D02*
X169851915Y-48182801D01*
X169851915Y-48182801D02*
X169804296Y-48087563D01*
X169804296Y-48087563D02*
X169756676Y-48039944D01*
X169756676Y-48039944D02*
X169661438Y-47992325D01*
X169661438Y-47992325D02*
X168851915Y-47992325D01*
X169851915Y-46992325D02*
X169851915Y-47563753D01*
X169851915Y-47278039D02*
X168851915Y-47278039D01*
X168851915Y-47278039D02*
X168994772Y-47373277D01*
X168994772Y-47373277D02*
X169090010Y-47468515D01*
X169090010Y-47468515D02*
X169137629Y-47563753D01*
X157738095Y-36254819D02*
X157738095Y-35254819D01*
X157738095Y-35731009D02*
X158309523Y-35731009D01*
X158309523Y-36254819D02*
X158309523Y-35254819D01*
X158738095Y-35350057D02*
X158785714Y-35302438D01*
X158785714Y-35302438D02*
X158880952Y-35254819D01*
X158880952Y-35254819D02*
X159119047Y-35254819D01*
X159119047Y-35254819D02*
X159214285Y-35302438D01*
X159214285Y-35302438D02*
X159261904Y-35350057D01*
X159261904Y-35350057D02*
X159309523Y-35445295D01*
X159309523Y-35445295D02*
X159309523Y-35540533D01*
X159309523Y-35540533D02*
X159261904Y-35683390D01*
X159261904Y-35683390D02*
X158690476Y-36254819D01*
X158690476Y-36254819D02*
X159309523Y-36254819D01*
X171488095Y-82467319D02*
X171488095Y-83276842D01*
X171488095Y-83276842D02*
X171535714Y-83372080D01*
X171535714Y-83372080D02*
X171583333Y-83419700D01*
X171583333Y-83419700D02*
X171678571Y-83467319D01*
X171678571Y-83467319D02*
X171869047Y-83467319D01*
X171869047Y-83467319D02*
X171964285Y-83419700D01*
X171964285Y-83419700D02*
X172011904Y-83372080D01*
X172011904Y-83372080D02*
X172059523Y-83276842D01*
X172059523Y-83276842D02*
X172059523Y-82467319D01*
X172488095Y-82562557D02*
X172535714Y-82514938D01*
X172535714Y-82514938D02*
X172630952Y-82467319D01*
X172630952Y-82467319D02*
X172869047Y-82467319D01*
X172869047Y-82467319D02*
X172964285Y-82514938D01*
X172964285Y-82514938D02*
X173011904Y-82562557D01*
X173011904Y-82562557D02*
X173059523Y-82657795D01*
X173059523Y-82657795D02*
X173059523Y-82753033D01*
X173059523Y-82753033D02*
X173011904Y-82895890D01*
X173011904Y-82895890D02*
X172440476Y-83467319D01*
X172440476Y-83467319D02*
X173059523Y-83467319D01*
X182166666Y-62624819D02*
X182166666Y-63339104D01*
X182166666Y-63339104D02*
X182119047Y-63481961D01*
X182119047Y-63481961D02*
X182023809Y-63577200D01*
X182023809Y-63577200D02*
X181880952Y-63624819D01*
X181880952Y-63624819D02*
X181785714Y-63624819D01*
X182547619Y-62624819D02*
X183166666Y-62624819D01*
X183166666Y-62624819D02*
X182833333Y-63005771D01*
X182833333Y-63005771D02*
X182976190Y-63005771D01*
X182976190Y-63005771D02*
X183071428Y-63053390D01*
X183071428Y-63053390D02*
X183119047Y-63101009D01*
X183119047Y-63101009D02*
X183166666Y-63196247D01*
X183166666Y-63196247D02*
X183166666Y-63434342D01*
X183166666Y-63434342D02*
X183119047Y-63529580D01*
X183119047Y-63529580D02*
X183071428Y-63577200D01*
X183071428Y-63577200D02*
X182976190Y-63624819D01*
X182976190Y-63624819D02*
X182690476Y-63624819D01*
X182690476Y-63624819D02*
X182595238Y-63577200D01*
X182595238Y-63577200D02*
X182547619Y-63529580D01*
X180738095Y-94754819D02*
X180738095Y-93754819D01*
X180738095Y-94231009D02*
X181309523Y-94231009D01*
X181309523Y-94754819D02*
X181309523Y-93754819D01*
X181690476Y-93754819D02*
X182309523Y-93754819D01*
X182309523Y-93754819D02*
X181976190Y-94135771D01*
X181976190Y-94135771D02*
X182119047Y-94135771D01*
X182119047Y-94135771D02*
X182214285Y-94183390D01*
X182214285Y-94183390D02*
X182261904Y-94231009D01*
X182261904Y-94231009D02*
X182309523Y-94326247D01*
X182309523Y-94326247D02*
X182309523Y-94564342D01*
X182309523Y-94564342D02*
X182261904Y-94659580D01*
X182261904Y-94659580D02*
X182214285Y-94707200D01*
X182214285Y-94707200D02*
X182119047Y-94754819D01*
X182119047Y-94754819D02*
X181833333Y-94754819D01*
X181833333Y-94754819D02*
X181738095Y-94707200D01*
X181738095Y-94707200D02*
X181690476Y-94659580D01*
X180738095Y-36254819D02*
X180738095Y-35254819D01*
X180738095Y-35731009D02*
X181309523Y-35731009D01*
X181309523Y-36254819D02*
X181309523Y-35254819D01*
X182309523Y-36254819D02*
X181738095Y-36254819D01*
X182023809Y-36254819D02*
X182023809Y-35254819D01*
X182023809Y-35254819D02*
X181928571Y-35397676D01*
X181928571Y-35397676D02*
X181833333Y-35492914D01*
X181833333Y-35492914D02*
X181738095Y-35540533D01*
X163653632Y-82666312D02*
X162939347Y-82666312D01*
X162939347Y-82666312D02*
X162796490Y-82618693D01*
X162796490Y-82618693D02*
X162701252Y-82523455D01*
X162701252Y-82523455D02*
X162653632Y-82380598D01*
X162653632Y-82380598D02*
X162653632Y-82285360D01*
X162653632Y-83666312D02*
X162653632Y-83094884D01*
X162653632Y-83380598D02*
X163653632Y-83380598D01*
X163653632Y-83380598D02*
X163510775Y-83285360D01*
X163510775Y-83285360D02*
X163415537Y-83190122D01*
X163415537Y-83190122D02*
X163367918Y-83094884D01*
X155666666Y-96784819D02*
X155666666Y-97499104D01*
X155666666Y-97499104D02*
X155619047Y-97641961D01*
X155619047Y-97641961D02*
X155523809Y-97737200D01*
X155523809Y-97737200D02*
X155380952Y-97784819D01*
X155380952Y-97784819D02*
X155285714Y-97784819D01*
X156095238Y-96880057D02*
X156142857Y-96832438D01*
X156142857Y-96832438D02*
X156238095Y-96784819D01*
X156238095Y-96784819D02*
X156476190Y-96784819D01*
X156476190Y-96784819D02*
X156571428Y-96832438D01*
X156571428Y-96832438D02*
X156619047Y-96880057D01*
X156619047Y-96880057D02*
X156666666Y-96975295D01*
X156666666Y-96975295D02*
X156666666Y-97070533D01*
X156666666Y-97070533D02*
X156619047Y-97213390D01*
X156619047Y-97213390D02*
X156047619Y-97784819D01*
X156047619Y-97784819D02*
X156666666Y-97784819D01*
X178738095Y-83954819D02*
X178738095Y-84764342D01*
X178738095Y-84764342D02*
X178785714Y-84859580D01*
X178785714Y-84859580D02*
X178833333Y-84907200D01*
X178833333Y-84907200D02*
X178928571Y-84954819D01*
X178928571Y-84954819D02*
X179119047Y-84954819D01*
X179119047Y-84954819D02*
X179214285Y-84907200D01*
X179214285Y-84907200D02*
X179261904Y-84859580D01*
X179261904Y-84859580D02*
X179309523Y-84764342D01*
X179309523Y-84764342D02*
X179309523Y-83954819D01*
X180261904Y-83954819D02*
X179785714Y-83954819D01*
X179785714Y-83954819D02*
X179738095Y-84431009D01*
X179738095Y-84431009D02*
X179785714Y-84383390D01*
X179785714Y-84383390D02*
X179880952Y-84335771D01*
X179880952Y-84335771D02*
X180119047Y-84335771D01*
X180119047Y-84335771D02*
X180214285Y-84383390D01*
X180214285Y-84383390D02*
X180261904Y-84431009D01*
X180261904Y-84431009D02*
X180309523Y-84526247D01*
X180309523Y-84526247D02*
X180309523Y-84764342D01*
X180309523Y-84764342D02*
X180261904Y-84859580D01*
X180261904Y-84859580D02*
X180214285Y-84907200D01*
X180214285Y-84907200D02*
X180119047Y-84954819D01*
X180119047Y-84954819D02*
X179880952Y-84954819D01*
X179880952Y-84954819D02*
X179785714Y-84907200D01*
X179785714Y-84907200D02*
X179738095Y-84859580D01*
D12*
X167922500Y-108134000D02*
X157762500Y-108134000D01*
X167922500Y-107831000D02*
X167922500Y-108134000D01*
X167922500Y-97720000D02*
X167922500Y-97769000D01*
X157762500Y-108134000D02*
X157762500Y-107831000D01*
X157762500Y-97769000D02*
X157762500Y-97720000D01*
X157762500Y-97720000D02*
X167922500Y-97720000D01*
D13*
X168892500Y-108100000D02*
G75*
G02*
X168592500Y-108100000I-150000J0D01*
G01*
X168592500Y-108100000D02*
G75*
G02*
X168892500Y-108100000I150000J0D01*
G01*
D14*
X171216596Y-107195350D02*
X171216596Y-107395750D01*
X170496596Y-107195350D02*
X170496596Y-107395750D01*
X174628339Y-107208129D02*
X174628339Y-107408529D01*
X173908339Y-107208129D02*
X173908339Y-107408529D01*
X169140000Y-100185873D02*
X169140000Y-99954203D01*
X169860000Y-100185873D02*
X169860000Y-99954203D01*
X170126991Y-100190965D02*
X170126991Y-99959295D01*
X170846991Y-100190965D02*
X170846991Y-99959295D01*
X172426090Y-107546443D02*
X172657760Y-107546443D01*
X172426090Y-108266443D02*
X172657760Y-108266443D01*
D15*
X181973750Y-105768100D02*
X177026250Y-105768100D01*
X177026250Y-108231900D02*
X181973750Y-108231900D01*
D14*
X162620000Y-80332379D02*
X162620000Y-80667621D01*
X163380000Y-80332379D02*
X163380000Y-80667621D01*
X171203392Y-44475393D02*
X170987720Y-44475393D01*
X171203392Y-45195393D02*
X170987720Y-45195393D01*
X170643641Y-85120000D02*
X170336359Y-85120000D01*
X170643641Y-85880000D02*
X170336359Y-85880000D01*
X173003907Y-47492753D02*
X173003907Y-47708425D01*
X173723907Y-47492753D02*
X173723907Y-47708425D01*
X173998408Y-83654938D02*
X174230078Y-83654938D01*
X173998408Y-84374938D02*
X174230078Y-84374938D01*
X170390000Y-53090000D02*
X170390000Y-52765000D01*
X172610000Y-53090000D02*
X172610000Y-52765000D01*
X172610000Y-53910000D02*
X172610000Y-54235000D01*
X170380000Y-54240000D02*
X170050000Y-54480000D01*
X170050000Y-54000000D01*
X170380000Y-54240000D01*
G36*
X170380000Y-54240000D02*
G01*
X170050000Y-54480000D01*
X170050000Y-54000000D01*
X170380000Y-54240000D01*
G37*
X158832379Y-70120000D02*
X159167621Y-70120000D01*
X158832379Y-70880000D02*
X159167621Y-70880000D01*
D16*
X171666373Y-41237975D02*
G75*
G02*
X171466373Y-41237975I-100000J0D01*
G01*
X171466373Y-41237975D02*
G75*
G02*
X171666373Y-41237975I100000J0D01*
G01*
D14*
X181265000Y-83761252D02*
X181265000Y-83238748D01*
X182735000Y-83761252D02*
X182735000Y-83238748D01*
X171392164Y-64387409D02*
X171607836Y-64387409D01*
X171392164Y-65107409D02*
X171607836Y-65107409D01*
X169392164Y-57780985D02*
X169607836Y-57780985D01*
X169392164Y-58500985D02*
X169607836Y-58500985D01*
X172140000Y-83316665D02*
X172140000Y-83548335D01*
X172860000Y-83316665D02*
X172860000Y-83548335D01*
D17*
X170582096Y-48846849D02*
X170582096Y-49506849D01*
X172582096Y-49506849D02*
X172582096Y-48846849D01*
D16*
X171032096Y-51376849D02*
G75*
G02*
X170832096Y-51376849I-100000J0D01*
G01*
X170832096Y-51376849D02*
G75*
G02*
X171032096Y-51376849I100000J0D01*
G01*
D14*
X178541244Y-78072384D02*
X178772914Y-78072384D01*
X178541244Y-78792384D02*
X178772914Y-78792384D01*
X171212341Y-46429108D02*
X171212341Y-46213436D01*
X171932341Y-46429108D02*
X171932341Y-46213436D01*
X173998902Y-48441601D02*
X173998902Y-48748883D01*
X174758902Y-48441601D02*
X174758902Y-48748883D01*
X169452500Y-59615000D02*
X169452500Y-59380000D01*
X169452500Y-63360000D02*
X169452500Y-62885000D01*
X169927500Y-59140000D02*
X169752500Y-59140000D01*
X169927500Y-63360000D02*
X169452500Y-63360000D01*
X173197500Y-59140000D02*
X173672500Y-59140000D01*
X173197500Y-63360000D02*
X173672500Y-63360000D01*
X173672500Y-59140000D02*
X173672500Y-59615000D01*
X173672500Y-63360000D02*
X173672500Y-62885000D01*
X169452500Y-59140000D02*
X169212500Y-58810000D01*
X169692500Y-58810000D01*
X169452500Y-59140000D01*
G36*
X169452500Y-59140000D02*
G01*
X169212500Y-58810000D01*
X169692500Y-58810000D01*
X169452500Y-59140000D01*
G37*
X171373134Y-65367634D02*
X171588806Y-65367634D01*
X171373134Y-66087634D02*
X171588806Y-66087634D01*
X162831192Y-89551817D02*
X162599522Y-89551817D01*
X162831192Y-90271817D02*
X162599522Y-90271817D01*
X168640000Y-73552500D02*
X168640000Y-74002500D01*
X168640000Y-80772500D02*
X168640000Y-80322500D01*
X169090000Y-73552500D02*
X168640000Y-73552500D01*
X169090000Y-80772500D02*
X168640000Y-80772500D01*
X175410000Y-73552500D02*
X175860000Y-73552500D01*
X175410000Y-80772500D02*
X175860000Y-80772500D01*
X175860000Y-73552500D02*
X175860000Y-74002500D01*
X175860000Y-80772500D02*
X175860000Y-80322500D01*
X176790000Y-80792500D02*
X176110000Y-80792500D01*
X176450000Y-80322500D01*
X176790000Y-80792500D01*
G36*
X176790000Y-80792500D02*
G01*
X176110000Y-80792500D01*
X176450000Y-80322500D01*
X176790000Y-80792500D01*
G37*
D17*
X164765000Y-63115000D02*
X164765000Y-63315000D01*
X166365000Y-63115000D02*
X166365000Y-63315000D01*
D16*
X165115000Y-61565000D02*
G75*
G02*
X164915000Y-61565000I-100000J0D01*
G01*
X164915000Y-61565000D02*
G75*
G02*
X165115000Y-61565000I100000J0D01*
G01*
D11*
X173640000Y-85500000D02*
G75*
G02*
X173540000Y-85500000I-50000J0D01*
G01*
X173540000Y-85500000D02*
G75*
G02*
X173640000Y-85500000I50000J0D01*
G01*
D14*
X159120000Y-64167621D02*
X159120000Y-63832379D01*
X159880000Y-64167621D02*
X159880000Y-63832379D01*
X183830000Y-66770000D02*
X183830000Y-76990000D01*
X181170000Y-76990000D02*
X183830000Y-76990000D01*
X181170000Y-66770000D02*
X183830000Y-66770000D01*
X181170000Y-66770000D02*
X181170000Y-76990000D01*
X181170000Y-65500000D02*
X181170000Y-64170000D01*
X181170000Y-64170000D02*
X182500000Y-64170000D01*
D16*
X177505767Y-84970588D02*
G75*
G02*
X177305767Y-84970588I-100000J0D01*
G01*
X177305767Y-84970588D02*
G75*
G02*
X177505767Y-84970588I100000J0D01*
G01*
D14*
X161332379Y-70120000D02*
X161667621Y-70120000D01*
X161332379Y-70880000D02*
X161667621Y-70880000D01*
X169146443Y-66345995D02*
X169146443Y-67545995D01*
X169146443Y-69145995D02*
X169146443Y-70345995D01*
X169146443Y-70345995D02*
X175546443Y-70345995D01*
X175546443Y-66345995D02*
X169146443Y-66345995D01*
X175546443Y-67545995D02*
X175546443Y-66345995D01*
X175546443Y-70345995D02*
X175546443Y-69145995D01*
X176734879Y-71620000D02*
X177070121Y-71620000D01*
X176734879Y-72380000D02*
X177070121Y-72380000D01*
X158585894Y-91863015D02*
X160545894Y-91863015D01*
X160545894Y-93063015D02*
X160545894Y-91863015D01*
X158585894Y-93063015D02*
X160545894Y-93063015D01*
X160892164Y-64140000D02*
X161107836Y-64140000D01*
X160892164Y-64860000D02*
X161107836Y-64860000D01*
X171204947Y-41313144D02*
X170989275Y-41313144D01*
X171204947Y-42033144D02*
X170989275Y-42033144D01*
X167892164Y-59640000D02*
X168107836Y-59640000D01*
X167892164Y-60360000D02*
X168107836Y-60360000D01*
X162550078Y-83829091D02*
X162550078Y-84164333D01*
X163310078Y-83829091D02*
X163310078Y-84164333D01*
X168379660Y-48438003D02*
X168379660Y-48745285D01*
X169139660Y-48438003D02*
X169139660Y-48745285D01*
D11*
X159150000Y-65650000D02*
X159150000Y-65800000D01*
X159150000Y-65650000D02*
X159300000Y-65650000D01*
X159150000Y-68350000D02*
X159150000Y-68200000D01*
X159300000Y-68350000D02*
X159150000Y-68350000D01*
X161850000Y-65640000D02*
X161700000Y-65640000D01*
X161850000Y-65650000D02*
X161850000Y-65800000D01*
D14*
X161850000Y-68710000D02*
X161850000Y-68350000D01*
X162210000Y-68350000D01*
X161850000Y-68710000D01*
G36*
X161850000Y-68710000D02*
G01*
X161850000Y-68350000D01*
X162210000Y-68350000D01*
X161850000Y-68710000D01*
G37*
X169414808Y-47498660D02*
X169414808Y-47714332D01*
X170134808Y-47498660D02*
X170134808Y-47714332D01*
X169765000Y-90261252D02*
X169765000Y-89738748D01*
X171235000Y-90261252D02*
X171235000Y-89738748D01*
X169392164Y-56811566D02*
X169607836Y-56811566D01*
X169392164Y-57531566D02*
X169607836Y-57531566D01*
X157708452Y-78329646D02*
X159408452Y-78329646D01*
X157708452Y-87669646D02*
X159408452Y-87669646D01*
X178523166Y-77055025D02*
X178754836Y-77055025D01*
X178523166Y-77775025D02*
X178754836Y-77775025D01*
X162541156Y-88490574D02*
X162876398Y-88490574D01*
X162541156Y-89250574D02*
X162876398Y-89250574D01*
X162167621Y-69120000D02*
X161832379Y-69120000D01*
X162167621Y-69880000D02*
X161832379Y-69880000D01*
X178319447Y-82698956D02*
X178319447Y-82930626D01*
X179039447Y-82698956D02*
X179039447Y-82930626D01*
X165464124Y-84810598D02*
X167424124Y-84810598D01*
X165464124Y-86010598D02*
X167424124Y-86010598D01*
X167424124Y-86010598D02*
X167424124Y-84810598D01*
X157330000Y-91130000D02*
X154670000Y-91130000D01*
X157330000Y-93730000D02*
X157330000Y-91130000D01*
X157330000Y-93730000D02*
X154670000Y-93730000D01*
X154670000Y-93730000D02*
X154670000Y-91130000D01*
X157330000Y-95000000D02*
X157330000Y-96330000D01*
X157330000Y-96330000D02*
X156000000Y-96330000D01*
X177650000Y-85590000D02*
X181410000Y-85590000D01*
X177650000Y-92410000D02*
X181410000Y-92410000D01*
X181410000Y-85590000D02*
X181410000Y-86850000D01*
X181410000Y-92410000D02*
X181410000Y-91150000D01*
X176370000Y-85690000D02*
X176130000Y-85360000D01*
X176610000Y-85360000D01*
X176370000Y-85690000D01*
G36*
X176370000Y-85690000D02*
G01*
X176130000Y-85360000D01*
X176610000Y-85360000D01*
X176370000Y-85690000D01*
G37*
%LPC*%
D18*
X2375000Y-2375000D03*
D19*
X167500000Y-107200000D03*
X167500000Y-106100000D03*
X167500000Y-105000000D03*
X167500000Y-103900000D03*
X167500000Y-102800000D03*
X167500000Y-101700000D03*
X167500000Y-100600000D03*
X167500000Y-99500000D03*
X167500000Y-98400000D03*
X158185000Y-98400000D03*
X158185000Y-99500000D03*
X158185000Y-100600000D03*
X158185000Y-101700000D03*
X158185000Y-102800000D03*
X158185000Y-103900000D03*
X158185000Y-105000000D03*
X158185000Y-106100000D03*
X158185000Y-107200000D03*
D20*
X170856596Y-106723050D03*
X170856596Y-107868050D03*
X174268339Y-106735829D03*
X174268339Y-107880829D03*
D21*
X169500000Y-100637538D03*
X169500000Y-99502538D03*
X170486991Y-100642630D03*
X170486991Y-99507630D03*
D22*
X171974425Y-107906443D03*
X173109425Y-107906443D03*
D23*
X182865500Y-107000000D03*
X176134500Y-107000000D03*
D24*
X163000000Y-79902500D03*
X163000000Y-81097500D03*
D25*
X171575556Y-44835393D03*
X170615556Y-44835393D03*
D26*
X171000000Y-85500000D03*
X169980000Y-85500000D03*
D27*
X173363907Y-47120589D03*
X173363907Y-48080589D03*
D22*
X173546743Y-84014938D03*
X174681743Y-84014938D03*
D28*
X170000000Y-55246201D03*
X170000000Y-56216201D03*
D29*
X170750000Y-54200000D03*
X171250000Y-54200000D03*
X171750000Y-54200000D03*
X172250000Y-54200000D03*
D30*
X172562500Y-53500000D03*
D29*
X172250000Y-52800000D03*
X171750000Y-52800000D03*
X171250000Y-52800000D03*
X170750000Y-52800000D03*
D30*
X170437500Y-53500000D03*
D31*
X158402500Y-70500000D03*
X159597500Y-70500000D03*
D32*
X174266373Y-38837975D03*
X171566373Y-38837975D03*
X168866373Y-38837975D03*
D33*
X182000000Y-84450000D03*
X182000000Y-82550000D03*
D34*
X171020000Y-64747409D03*
X171980000Y-64747409D03*
X169020000Y-58140985D03*
X169980000Y-58140985D03*
D35*
X172500000Y-82865000D03*
X172500000Y-84000000D03*
D36*
X170932096Y-50276849D03*
X171582096Y-50276849D03*
X172232096Y-50276849D03*
X172232096Y-48076849D03*
X171582096Y-48076849D03*
X170932096Y-48076849D03*
D22*
X178089579Y-78432384D03*
X179224579Y-78432384D03*
D18*
X158500000Y-39000000D03*
D37*
X171572341Y-46801272D03*
X171572341Y-45841272D03*
D38*
X174378902Y-48085242D03*
X174378902Y-49105242D03*
D39*
X169625000Y-60000000D03*
X169625000Y-60500000D03*
X169625000Y-61000000D03*
X169625000Y-61500000D03*
X169625000Y-62000000D03*
X169625000Y-62500000D03*
D40*
X170312500Y-63187500D03*
X170812500Y-63187500D03*
X171312500Y-63187500D03*
X171812500Y-63187500D03*
X172312500Y-63187500D03*
X172812500Y-63187500D03*
D39*
X173500000Y-62500000D03*
X173500000Y-62000000D03*
X173500000Y-61500000D03*
X173500000Y-61000000D03*
X173500000Y-60500000D03*
X173500000Y-60000000D03*
D40*
X172812500Y-59312500D03*
X172312500Y-59312500D03*
X171812500Y-59312500D03*
X171312500Y-59312500D03*
X170812500Y-59312500D03*
X170312500Y-59312500D03*
D41*
X171562500Y-61250000D03*
D34*
X171000970Y-65727634D03*
X171960970Y-65727634D03*
D42*
X163282857Y-89911817D03*
X162147857Y-89911817D03*
D43*
X176412500Y-79912500D03*
X176412500Y-79412500D03*
X176412500Y-78912500D03*
X176412500Y-78412500D03*
X176412500Y-77912500D03*
X176412500Y-77412500D03*
X176412500Y-76912500D03*
X176412500Y-76412500D03*
X176412500Y-75912500D03*
X176412500Y-75412500D03*
X176412500Y-74912500D03*
X176412500Y-74412500D03*
D44*
X175000000Y-73000000D03*
X174500000Y-73000000D03*
X174000000Y-73000000D03*
X173500000Y-73000000D03*
X173000000Y-73000000D03*
X172500000Y-73000000D03*
X172000000Y-73000000D03*
X171500000Y-73000000D03*
X171000000Y-73000000D03*
X170500000Y-73000000D03*
X170000000Y-73000000D03*
X169500000Y-73000000D03*
D43*
X168087500Y-74412500D03*
X168087500Y-74912500D03*
X168087500Y-75412500D03*
X168087500Y-75912500D03*
X168087500Y-76412500D03*
X168087500Y-76912500D03*
X168087500Y-77412500D03*
X168087500Y-77912500D03*
X168087500Y-78412500D03*
X168087500Y-78912500D03*
X168087500Y-79412500D03*
X168087500Y-79912500D03*
D44*
X169500000Y-81325000D03*
X170000000Y-81325000D03*
X170500000Y-81325000D03*
X171000000Y-81325000D03*
X171500000Y-81325000D03*
X172000000Y-81325000D03*
X172500000Y-81325000D03*
X173000000Y-81325000D03*
X173500000Y-81325000D03*
X174000000Y-81325000D03*
X174500000Y-81325000D03*
X175000000Y-81325000D03*
D28*
X169961020Y-64760267D03*
X169961020Y-65730267D03*
D45*
X165000000Y-62500000D03*
X165000000Y-63930000D03*
X166130000Y-63930000D03*
X166130000Y-62500000D03*
D46*
X172985000Y-85500000D03*
X172015000Y-85500000D03*
D47*
X159500000Y-64597500D03*
X159500000Y-63402500D03*
D48*
X182500000Y-75660000D03*
X182500000Y-73120000D03*
X182500000Y-70580000D03*
X182500000Y-68040000D03*
D49*
X182500000Y-65500000D03*
D50*
X177405767Y-83695588D03*
X177405767Y-82245588D03*
X176405767Y-82245588D03*
X176405767Y-83695588D03*
D31*
X160902500Y-70500000D03*
X162097500Y-70500000D03*
D51*
X168471443Y-68345995D03*
X176221443Y-68345995D03*
D31*
X176305000Y-72000000D03*
X177500000Y-72000000D03*
D52*
X171585607Y-43720488D03*
X171585607Y-42750488D03*
D53*
X159985894Y-92463015D03*
X158585894Y-92463015D03*
D34*
X160520000Y-64500000D03*
X161480000Y-64500000D03*
D25*
X171577111Y-41673144D03*
X170617111Y-41673144D03*
D34*
X167520000Y-60000000D03*
X168480000Y-60000000D03*
D24*
X162930078Y-83399212D03*
X162930078Y-84594212D03*
D38*
X168759660Y-48081644D03*
X168759660Y-49101644D03*
D54*
X161475000Y-68025000D03*
X160825000Y-68025000D03*
X160175000Y-68025000D03*
X159525000Y-68025000D03*
X159525000Y-65975000D03*
X160175000Y-65975000D03*
X160825000Y-65975000D03*
X161475000Y-65975000D03*
D18*
X181500000Y-97500000D03*
D27*
X169774808Y-47126496D03*
X169774808Y-48086496D03*
D33*
X170500000Y-90950000D03*
X170500000Y-89050000D03*
D18*
X181500000Y-39000000D03*
D34*
X169020000Y-57171566D03*
X169980000Y-57171566D03*
D55*
X160213452Y-80109646D03*
X160213452Y-85889646D03*
D56*
X161288452Y-79799646D03*
X161288452Y-80599646D03*
D57*
X161288452Y-81749646D03*
X161288452Y-82749646D03*
X161288452Y-83249646D03*
X161288452Y-84249646D03*
D56*
X161288452Y-85399646D03*
X161288452Y-86199646D03*
X161288452Y-86199646D03*
X161288452Y-85399646D03*
D57*
X161288452Y-84749646D03*
X161288452Y-83749646D03*
X161288452Y-82249646D03*
X161288452Y-81249646D03*
D56*
X161288452Y-80599646D03*
X161288452Y-79799646D03*
D58*
X160713452Y-78679646D03*
D59*
X156533452Y-78679646D03*
D58*
X160713452Y-87319646D03*
D59*
X156533452Y-87319646D03*
D22*
X178071501Y-77415025D03*
X179206501Y-77415025D03*
D31*
X162111277Y-88870574D03*
X163306277Y-88870574D03*
D60*
X162597500Y-69500000D03*
X161402500Y-69500000D03*
D35*
X178679447Y-82247291D03*
X178679447Y-83382291D03*
D53*
X166864124Y-85410598D03*
X165464124Y-85410598D03*
D49*
X156000000Y-95000000D03*
D48*
X156000000Y-92460000D03*
D61*
X176350000Y-86700000D03*
X176350000Y-89000000D03*
D62*
X182650000Y-89000000D03*
D61*
X176350000Y-91300000D03*
%LPD*%
M02*
