%TF.GenerationSoftware,KiCad,Pcbnew,8.0.1*%
%TF.CreationDate,2025-06-08T13:02:29-04:00*%
%TF.ProjectId,Topaz,546f7061-7a2e-46b6-9963-61645f706362,rev?*%
%TF.SameCoordinates,Original*%
%TF.FileFunction,Drillmap*%
%TF.FilePolarity,Positive*%
%FSLAX45Y45*%
G04 Gerber Fmt 4.5, Leading zero omitted, Abs format (unit mm)*
G04 Created by KiCad (PCBNEW 8.0.1) date 2025-06-08 13:02:29*
%MOMM*%
%LPD*%
G01*
G04 APERTURE LIST*
%ADD10C,0.200000*%
%ADD11C,0.100000*%
G04 APERTURE END LIST*
D10*
X15400000Y-3600000D02*
X18450000Y-3600000D01*
X18450000Y-10892933D01*
X15400000Y-10892933D01*
X15400000Y-3600000D01*
D11*
X15535000Y-4185000D02*
X15565000Y-4215000D01*
X15565000Y-4185000D02*
X15535000Y-4215000D01*
X15535000Y-4335000D02*
X15565000Y-4365000D01*
X15565000Y-4335000D02*
X15535000Y-4365000D01*
X15535000Y-4485000D02*
X15565000Y-4515000D01*
X15565000Y-4485000D02*
X15535000Y-4515000D01*
X15535000Y-4635000D02*
X15565000Y-4665000D01*
X15565000Y-4635000D02*
X15535000Y-4665000D01*
X15535000Y-4785000D02*
X15565000Y-4815000D01*
X15565000Y-4785000D02*
X15535000Y-4815000D01*
X15535000Y-4985000D02*
X15565000Y-5015000D01*
X15565000Y-4985000D02*
X15535000Y-5015000D01*
X15535000Y-5135000D02*
X15565000Y-5165000D01*
X15565000Y-5135000D02*
X15535000Y-5165000D01*
X15535000Y-5285000D02*
X15565000Y-5315000D01*
X15565000Y-5285000D02*
X15535000Y-5315000D01*
X15535000Y-5435000D02*
X15565000Y-5465000D01*
X15565000Y-5435000D02*
X15535000Y-5465000D01*
X15535000Y-5585000D02*
X15565000Y-5615000D01*
X15565000Y-5585000D02*
X15535000Y-5615000D01*
X15535000Y-5785000D02*
X15565000Y-5815000D01*
X15565000Y-5785000D02*
X15535000Y-5815000D01*
X15535000Y-5935000D02*
X15565000Y-5965000D01*
X15565000Y-5935000D02*
X15535000Y-5965000D01*
X15535000Y-6085000D02*
X15565000Y-6115000D01*
X15565000Y-6085000D02*
X15535000Y-6115000D01*
X15535000Y-6235000D02*
X15565000Y-6265000D01*
X15565000Y-6235000D02*
X15535000Y-6265000D01*
X15535000Y-6385000D02*
X15565000Y-6415000D01*
X15565000Y-6385000D02*
X15535000Y-6415000D01*
X15535000Y-7635000D02*
X15565000Y-7665000D01*
X15565000Y-7635000D02*
X15535000Y-7665000D01*
X15585000Y-9885000D02*
X15615000Y-9915000D01*
X15615000Y-9885000D02*
X15585000Y-9915000D01*
X15585000Y-10335000D02*
X15615000Y-10365000D01*
X15615000Y-10335000D02*
X15585000Y-10365000D01*
X15585000Y-10585000D02*
X15615000Y-10615000D01*
X15615000Y-10585000D02*
X15585000Y-10615000D01*
X15635000Y-10035000D02*
X15665000Y-10065000D01*
X15665000Y-10035000D02*
X15635000Y-10065000D01*
X15685000Y-7085000D02*
X15715000Y-7115000D01*
X15715000Y-7085000D02*
X15685000Y-7115000D01*
X15685000Y-7635000D02*
X15715000Y-7665000D01*
X15715000Y-7635000D02*
X15685000Y-7665000D01*
X15735000Y-8985000D02*
X15765000Y-9015000D01*
X15765000Y-8985000D02*
X15735000Y-9015000D01*
X15835000Y-7635000D02*
X15865000Y-7665000D01*
X15865000Y-7635000D02*
X15835000Y-7665000D01*
X15835000Y-8985000D02*
X15865000Y-9015000D01*
X15865000Y-8985000D02*
X15835000Y-9015000D01*
X15885000Y-9435000D02*
X15915000Y-9465000D01*
X15915000Y-9435000D02*
X15885000Y-9465000D01*
X15935000Y-6185000D02*
X15965000Y-6215000D01*
X15965000Y-6185000D02*
X15935000Y-6215000D01*
X15935000Y-7235000D02*
X15965000Y-7265000D01*
X15965000Y-7235000D02*
X15935000Y-7265000D01*
X15935000Y-9635000D02*
X15965000Y-9665000D01*
X15965000Y-9635000D02*
X15935000Y-9665000D01*
X15985000Y-7635000D02*
X16015000Y-7665000D01*
X16015000Y-7635000D02*
X15985000Y-7665000D01*
X15985000Y-8985000D02*
X16015000Y-9015000D01*
X16015000Y-8985000D02*
X15985000Y-9015000D01*
X15985000Y-9835000D02*
X16015000Y-9865000D01*
X16015000Y-9835000D02*
X15985000Y-9865000D01*
X16035000Y-7335000D02*
X16065000Y-7365000D01*
X16065000Y-7335000D02*
X16035000Y-7365000D01*
X16035000Y-10535000D02*
X16065000Y-10565000D01*
X16065000Y-10535000D02*
X16035000Y-10565000D01*
X16037000Y-6335000D02*
X16067000Y-6365000D01*
X16067000Y-6335000D02*
X16037000Y-6365000D01*
X16085000Y-9635000D02*
X16115000Y-9665000D01*
X16115000Y-9635000D02*
X16085000Y-9665000D01*
X16135000Y-7635000D02*
X16165000Y-7665000D01*
X16165000Y-7635000D02*
X16135000Y-7665000D01*
X16135000Y-9385000D02*
X16165000Y-9415000D01*
X16165000Y-9385000D02*
X16135000Y-9415000D01*
X16135000Y-10085000D02*
X16165000Y-10115000D01*
X16165000Y-10085000D02*
X16135000Y-10115000D01*
X16135000Y-10635000D02*
X16165000Y-10665000D01*
X16165000Y-10635000D02*
X16135000Y-10665000D01*
X16185000Y-6685000D02*
X16215000Y-6715000D01*
X16215000Y-6685000D02*
X16185000Y-6715000D01*
X16185000Y-7485000D02*
X16215000Y-7515000D01*
X16215000Y-7485000D02*
X16185000Y-7515000D01*
X16191153Y-9105193D02*
X16221153Y-9135193D01*
X16221153Y-9105193D02*
X16191153Y-9135193D01*
X16235000Y-6435000D02*
X16265000Y-6465000D01*
X16265000Y-6435000D02*
X16235000Y-6465000D01*
X16235000Y-9635000D02*
X16265000Y-9665000D01*
X16265000Y-9635000D02*
X16235000Y-9665000D01*
X16285000Y-6235000D02*
X16315000Y-6265000D01*
X16315000Y-6235000D02*
X16285000Y-6265000D01*
X16285000Y-6835000D02*
X16315000Y-6865000D01*
X16315000Y-6835000D02*
X16285000Y-6865000D01*
X16285000Y-7035000D02*
X16315000Y-7065000D01*
X16315000Y-7035000D02*
X16285000Y-7065000D01*
X16285000Y-8635000D02*
X16315000Y-8665000D01*
X16315000Y-8635000D02*
X16285000Y-8665000D01*
X16285000Y-10685000D02*
X16315000Y-10715000D01*
X16315000Y-10685000D02*
X16285000Y-10715000D01*
X16335000Y-3935000D02*
X16365000Y-3965000D01*
X16365000Y-3935000D02*
X16335000Y-3965000D01*
X16335000Y-4085000D02*
X16365000Y-4115000D01*
X16365000Y-4085000D02*
X16335000Y-4115000D01*
X16335000Y-4235000D02*
X16365000Y-4265000D01*
X16365000Y-4235000D02*
X16335000Y-4265000D01*
X16335000Y-4385000D02*
X16365000Y-4415000D01*
X16365000Y-4385000D02*
X16335000Y-4415000D01*
X16335000Y-4535000D02*
X16365000Y-4565000D01*
X16365000Y-4535000D02*
X16335000Y-4565000D01*
X16335000Y-4935000D02*
X16365000Y-4965000D01*
X16365000Y-4935000D02*
X16335000Y-4965000D01*
X16335000Y-5085000D02*
X16365000Y-5115000D01*
X16365000Y-5085000D02*
X16335000Y-5115000D01*
X16335000Y-5235000D02*
X16365000Y-5265000D01*
X16365000Y-5235000D02*
X16335000Y-5265000D01*
X16335000Y-5385000D02*
X16365000Y-5415000D01*
X16365000Y-5385000D02*
X16335000Y-5415000D01*
X16335000Y-5535000D02*
X16365000Y-5565000D01*
X16365000Y-5535000D02*
X16335000Y-5565000D01*
X16335000Y-6085000D02*
X16365000Y-6115000D01*
X16365000Y-6085000D02*
X16335000Y-6115000D01*
X16335000Y-6935000D02*
X16365000Y-6965000D01*
X16365000Y-6935000D02*
X16335000Y-6965000D01*
X16360000Y-7910000D02*
X16390000Y-7940000D01*
X16390000Y-7910000D02*
X16360000Y-7940000D01*
X16385000Y-7635000D02*
X16415000Y-7665000D01*
X16415000Y-7635000D02*
X16385000Y-7665000D01*
X16385000Y-8335000D02*
X16415000Y-8365000D01*
X16415000Y-8335000D02*
X16385000Y-8365000D01*
X16385000Y-9085000D02*
X16415000Y-9115000D01*
X16415000Y-9085000D02*
X16385000Y-9115000D01*
X16385000Y-9635000D02*
X16415000Y-9665000D01*
X16415000Y-9635000D02*
X16385000Y-9665000D01*
X16385000Y-10135000D02*
X16415000Y-10165000D01*
X16415000Y-10135000D02*
X16385000Y-10165000D01*
X16398233Y-9384677D02*
X16428233Y-9414677D01*
X16428233Y-9384677D02*
X16398233Y-9414677D01*
X16435000Y-5935000D02*
X16465000Y-5965000D01*
X16465000Y-5935000D02*
X16435000Y-5965000D01*
X16435000Y-8885000D02*
X16465000Y-8915000D01*
X16465000Y-8885000D02*
X16435000Y-8915000D01*
X16435000Y-8985000D02*
X16465000Y-9015000D01*
X16465000Y-8985000D02*
X16435000Y-9015000D01*
X16485000Y-6535000D02*
X16515000Y-6565000D01*
X16515000Y-6535000D02*
X16485000Y-6565000D01*
X16485000Y-6685000D02*
X16515000Y-6715000D01*
X16515000Y-6685000D02*
X16485000Y-6715000D01*
X16485000Y-6835000D02*
X16515000Y-6865000D01*
X16515000Y-6835000D02*
X16485000Y-6865000D01*
X16485000Y-6985000D02*
X16515000Y-7015000D01*
X16515000Y-6985000D02*
X16485000Y-7015000D01*
X16485000Y-7135000D02*
X16515000Y-7165000D01*
X16515000Y-7135000D02*
X16485000Y-7165000D01*
X16485000Y-7285000D02*
X16515000Y-7315000D01*
X16515000Y-7285000D02*
X16485000Y-7315000D01*
X16485000Y-10335000D02*
X16515000Y-10365000D01*
X16515000Y-10335000D02*
X16485000Y-10365000D01*
X16535000Y-7735000D02*
X16565000Y-7765000D01*
X16565000Y-7735000D02*
X16535000Y-7765000D01*
X16535000Y-7885000D02*
X16565000Y-7915000D01*
X16565000Y-7885000D02*
X16535000Y-7915000D01*
X16535000Y-8385000D02*
X16565000Y-8415000D01*
X16565000Y-8385000D02*
X16535000Y-8415000D01*
X16535000Y-9635000D02*
X16565000Y-9665000D01*
X16565000Y-9635000D02*
X16535000Y-9665000D01*
X16585000Y-5835000D02*
X16615000Y-5865000D01*
X16615000Y-5835000D02*
X16585000Y-5865000D01*
X16585000Y-7485000D02*
X16615000Y-7515000D01*
X16615000Y-7485000D02*
X16585000Y-7515000D01*
X16592279Y-9089264D02*
X16622279Y-9119264D01*
X16622279Y-9089264D02*
X16592279Y-9119264D01*
X16635000Y-5985000D02*
X16665000Y-6015000D01*
X16665000Y-5985000D02*
X16635000Y-6015000D01*
X16635000Y-8085000D02*
X16665000Y-8115000D01*
X16665000Y-8085000D02*
X16635000Y-8115000D01*
X16635722Y-9384677D02*
X16665722Y-9414677D01*
X16665722Y-9384677D02*
X16635722Y-9414677D01*
X16685000Y-6135000D02*
X16715000Y-6165000D01*
X16715000Y-6135000D02*
X16685000Y-6165000D01*
X16685000Y-8385000D02*
X16715000Y-8415000D01*
X16715000Y-8385000D02*
X16685000Y-8415000D01*
X16735000Y-4785000D02*
X16765000Y-4815000D01*
X16765000Y-4785000D02*
X16735000Y-4815000D01*
X16735000Y-4935000D02*
X16765000Y-4965000D01*
X16765000Y-4935000D02*
X16735000Y-4965000D01*
X16735000Y-5085000D02*
X16765000Y-5115000D01*
X16765000Y-5085000D02*
X16735000Y-5115000D01*
X16735000Y-5235000D02*
X16765000Y-5265000D01*
X16765000Y-5235000D02*
X16735000Y-5265000D01*
X16735000Y-5385000D02*
X16765000Y-5415000D01*
X16765000Y-5385000D02*
X16735000Y-5415000D01*
X16735000Y-8085000D02*
X16765000Y-8115000D01*
X16765000Y-8085000D02*
X16735000Y-8115000D01*
X16735000Y-9085000D02*
X16765000Y-9115000D01*
X16765000Y-9085000D02*
X16735000Y-9115000D01*
X16785000Y-4185000D02*
X16815000Y-4215000D01*
X16815000Y-4185000D02*
X16785000Y-4215000D01*
X16785000Y-5685000D02*
X16815000Y-5715000D01*
X16815000Y-5685000D02*
X16785000Y-5715000D01*
X16785000Y-5785000D02*
X16815000Y-5815000D01*
X16815000Y-5785000D02*
X16785000Y-5815000D01*
X16785000Y-8235000D02*
X16815000Y-8265000D01*
X16815000Y-8235000D02*
X16785000Y-8265000D01*
X16835000Y-5885000D02*
X16865000Y-5915000D01*
X16865000Y-5885000D02*
X16835000Y-5915000D01*
X16835000Y-6285000D02*
X16865000Y-6315000D01*
X16865000Y-6285000D02*
X16835000Y-6315000D01*
X16835000Y-6685000D02*
X16865000Y-6715000D01*
X16865000Y-6685000D02*
X16835000Y-6715000D01*
X16835000Y-8635000D02*
X16865000Y-8665000D01*
X16865000Y-8635000D02*
X16835000Y-8665000D01*
X16885000Y-4635000D02*
X16915000Y-4665000D01*
X16915000Y-4635000D02*
X16885000Y-4665000D01*
X16885000Y-5585000D02*
X16915000Y-5615000D01*
X16915000Y-5585000D02*
X16885000Y-5615000D01*
X16885000Y-8735000D02*
X16915000Y-8765000D01*
X16915000Y-8735000D02*
X16885000Y-8765000D01*
X16910000Y-10210000D02*
X16940000Y-10240000D01*
X16940000Y-10210000D02*
X16910000Y-10240000D01*
X16935000Y-4185000D02*
X16965000Y-4215000D01*
X16965000Y-4185000D02*
X16935000Y-4215000D01*
X16935000Y-4485000D02*
X16965000Y-4515000D01*
X16965000Y-4485000D02*
X16935000Y-4515000D01*
X16935000Y-5085000D02*
X16965000Y-5115000D01*
X16965000Y-5085000D02*
X16935000Y-5115000D01*
X16935000Y-5235000D02*
X16965000Y-5265000D01*
X16965000Y-5235000D02*
X16935000Y-5265000D01*
X16935000Y-5335000D02*
X16965000Y-5365000D01*
X16965000Y-5335000D02*
X16935000Y-5365000D01*
X16935000Y-9385000D02*
X16965000Y-9415000D01*
X16965000Y-9385000D02*
X16935000Y-9415000D01*
X16935000Y-9835000D02*
X16965000Y-9865000D01*
X16965000Y-9835000D02*
X16935000Y-9865000D01*
X16985000Y-4285000D02*
X17015000Y-4315000D01*
X17015000Y-4285000D02*
X16985000Y-4315000D01*
X16985000Y-4585000D02*
X17015000Y-4615000D01*
X17015000Y-4585000D02*
X16985000Y-4615000D01*
X17035000Y-6685000D02*
X17065000Y-6715000D01*
X17065000Y-6685000D02*
X17035000Y-6715000D01*
X17035000Y-9535000D02*
X17065000Y-9565000D01*
X17065000Y-9535000D02*
X17035000Y-9565000D01*
X17074440Y-8236487D02*
X17104440Y-8266487D01*
X17104440Y-8236487D02*
X17074440Y-8266487D01*
X17078210Y-5012685D02*
X17108210Y-5042685D01*
X17108210Y-5012685D02*
X17078210Y-5042685D01*
X17085000Y-8385000D02*
X17115000Y-8415000D01*
X17115000Y-8385000D02*
X17085000Y-8415000D01*
X17085000Y-8785000D02*
X17115000Y-8815000D01*
X17115000Y-8785000D02*
X17085000Y-8815000D01*
X17085000Y-9785000D02*
X17115000Y-9815000D01*
X17115000Y-9785000D02*
X17085000Y-9815000D01*
X17085000Y-10185000D02*
X17115000Y-10215000D01*
X17115000Y-10185000D02*
X17085000Y-10215000D01*
X17135000Y-4935000D02*
X17165000Y-4965000D01*
X17165000Y-4935000D02*
X17135000Y-4965000D01*
X17135000Y-7135000D02*
X17165000Y-7165000D01*
X17165000Y-7135000D02*
X17135000Y-7165000D01*
X17135000Y-10585000D02*
X17165000Y-10615000D01*
X17165000Y-10585000D02*
X17135000Y-10615000D01*
X17154348Y-9304348D02*
X17184348Y-9334348D01*
X17184348Y-9304348D02*
X17154348Y-9334348D01*
X17185000Y-5185000D02*
X17215000Y-5215000D01*
X17215000Y-5185000D02*
X17185000Y-5215000D01*
X17185000Y-7685000D02*
X17215000Y-7715000D01*
X17215000Y-7685000D02*
X17185000Y-7715000D01*
X17216250Y-6385000D02*
X17246250Y-6415000D01*
X17246250Y-6385000D02*
X17216250Y-6415000D01*
X17266250Y-6485947D02*
X17296250Y-6515947D01*
X17296250Y-6485947D02*
X17266250Y-6515947D01*
X17285000Y-4285000D02*
X17315000Y-4315000D01*
X17315000Y-4285000D02*
X17285000Y-4315000D01*
X17285000Y-4435000D02*
X17315000Y-4465000D01*
X17315000Y-4435000D02*
X17285000Y-4465000D01*
X17285000Y-4535000D02*
X17315000Y-4565000D01*
X17315000Y-4535000D02*
X17285000Y-4565000D01*
X17285000Y-5785000D02*
X17315000Y-5815000D01*
X17315000Y-5785000D02*
X17285000Y-5815000D01*
X17285000Y-7085000D02*
X17315000Y-7115000D01*
X17315000Y-7085000D02*
X17285000Y-7115000D01*
X17285000Y-7485000D02*
X17315000Y-7515000D01*
X17315000Y-7485000D02*
X17285000Y-7515000D01*
X17285000Y-9535000D02*
X17315000Y-9565000D01*
X17315000Y-9535000D02*
X17285000Y-9565000D01*
X17335000Y-5335000D02*
X17365000Y-5365000D01*
X17365000Y-5335000D02*
X17335000Y-5365000D01*
X17335000Y-5635000D02*
X17365000Y-5665000D01*
X17365000Y-5635000D02*
X17335000Y-5665000D01*
X17335000Y-5885000D02*
X17365000Y-5915000D01*
X17365000Y-5885000D02*
X17335000Y-5915000D01*
X17352287Y-6979072D02*
X17382287Y-7009072D01*
X17382287Y-6979072D02*
X17352287Y-7009072D01*
X17366513Y-7791462D02*
X17396513Y-7821462D01*
X17396513Y-7791462D02*
X17366513Y-7821462D01*
X17385000Y-5135000D02*
X17415000Y-5165000D01*
X17415000Y-5135000D02*
X17385000Y-5165000D01*
X17385000Y-5485000D02*
X17415000Y-5515000D01*
X17415000Y-5485000D02*
X17385000Y-5515000D01*
X17385000Y-7985000D02*
X17415000Y-8015000D01*
X17415000Y-7985000D02*
X17385000Y-8015000D01*
X17385000Y-8585000D02*
X17415000Y-8615000D01*
X17415000Y-8585000D02*
X17385000Y-8615000D01*
X17385000Y-8785000D02*
X17415000Y-8815000D01*
X17415000Y-8785000D02*
X17385000Y-8815000D01*
X17385000Y-10335000D02*
X17415000Y-10365000D01*
X17415000Y-10335000D02*
X17385000Y-10365000D01*
X17385000Y-10585000D02*
X17415000Y-10615000D01*
X17415000Y-10585000D02*
X17385000Y-10615000D01*
X17385364Y-7135364D02*
X17415364Y-7165364D01*
X17415364Y-7135364D02*
X17385364Y-7165364D01*
X17435000Y-4485000D02*
X17465000Y-4515000D01*
X17465000Y-4485000D02*
X17435000Y-4515000D01*
X17435000Y-4635000D02*
X17465000Y-4665000D01*
X17465000Y-4635000D02*
X17435000Y-4665000D01*
X17435000Y-5285000D02*
X17465000Y-5315000D01*
X17465000Y-5285000D02*
X17435000Y-5315000D01*
X17435000Y-5635000D02*
X17465000Y-5665000D01*
X17465000Y-5635000D02*
X17435000Y-5665000D01*
X17435000Y-7735000D02*
X17465000Y-7765000D01*
X17465000Y-7735000D02*
X17435000Y-7765000D01*
X17435000Y-8485000D02*
X17465000Y-8515000D01*
X17465000Y-8485000D02*
X17435000Y-8515000D01*
X17435000Y-9485000D02*
X17465000Y-9515000D01*
X17465000Y-9485000D02*
X17435000Y-9515000D01*
X17435000Y-9735000D02*
X17465000Y-9765000D01*
X17465000Y-9735000D02*
X17435000Y-9765000D01*
X17435000Y-10085000D02*
X17465000Y-10115000D01*
X17465000Y-10085000D02*
X17435000Y-10115000D01*
X17485000Y-4185000D02*
X17515000Y-4215000D01*
X17515000Y-4185000D02*
X17485000Y-4215000D01*
X17485000Y-7885000D02*
X17515000Y-7915000D01*
X17515000Y-7885000D02*
X17485000Y-7915000D01*
X17485000Y-8685000D02*
X17515000Y-8715000D01*
X17515000Y-8685000D02*
X17485000Y-8715000D01*
X17485000Y-9335000D02*
X17515000Y-9365000D01*
X17515000Y-9335000D02*
X17485000Y-9365000D01*
X17585000Y-8435000D02*
X17615000Y-8465000D01*
X17615000Y-8435000D02*
X17585000Y-8465000D01*
X17635000Y-10035000D02*
X17665000Y-10065000D01*
X17665000Y-10035000D02*
X17635000Y-10065000D01*
X17735000Y-3985000D02*
X17765000Y-4015000D01*
X17765000Y-3985000D02*
X17735000Y-4015000D01*
X17735000Y-4135000D02*
X17765000Y-4165000D01*
X17765000Y-4135000D02*
X17735000Y-4165000D01*
X17735000Y-4285000D02*
X17765000Y-4315000D01*
X17765000Y-4285000D02*
X17735000Y-4315000D01*
X17735000Y-4435000D02*
X17765000Y-4465000D01*
X17765000Y-4435000D02*
X17735000Y-4465000D01*
X17735000Y-4585000D02*
X17765000Y-4615000D01*
X17765000Y-4585000D02*
X17735000Y-4615000D01*
X17735000Y-5035000D02*
X17765000Y-5065000D01*
X17765000Y-5035000D02*
X17735000Y-5065000D01*
X17735000Y-5185000D02*
X17765000Y-5215000D01*
X17765000Y-5185000D02*
X17735000Y-5215000D01*
X17735000Y-5335000D02*
X17765000Y-5365000D01*
X17765000Y-5335000D02*
X17735000Y-5365000D01*
X17735000Y-5485000D02*
X17765000Y-5515000D01*
X17765000Y-5485000D02*
X17735000Y-5515000D01*
X17735000Y-5635000D02*
X17765000Y-5665000D01*
X17765000Y-5635000D02*
X17735000Y-5665000D01*
X17735000Y-8485000D02*
X17765000Y-8515000D01*
X17765000Y-8485000D02*
X17735000Y-8515000D01*
X17735000Y-9335000D02*
X17765000Y-9365000D01*
X17765000Y-9335000D02*
X17735000Y-9365000D01*
X17760505Y-7560505D02*
X17790505Y-7590505D01*
X17790505Y-7560505D02*
X17760505Y-7590505D01*
X17785000Y-7385000D02*
X17815000Y-7415000D01*
X17815000Y-7385000D02*
X17785000Y-7415000D01*
X17785000Y-10035000D02*
X17815000Y-10065000D01*
X17815000Y-10035000D02*
X17785000Y-10065000D01*
X17791820Y-7639197D02*
X17821820Y-7669197D01*
X17821820Y-7639197D02*
X17791820Y-7669197D01*
X17793958Y-7911598D02*
X17823958Y-7941598D01*
X17823958Y-7911598D02*
X17793958Y-7941598D01*
X17835000Y-5885000D02*
X17865000Y-5915000D01*
X17865000Y-5885000D02*
X17835000Y-5915000D01*
X17835000Y-6035000D02*
X17865000Y-6065000D01*
X17865000Y-6035000D02*
X17835000Y-6065000D01*
X17835000Y-6185000D02*
X17865000Y-6215000D01*
X17865000Y-6185000D02*
X17835000Y-6215000D01*
X17835000Y-6335000D02*
X17865000Y-6365000D01*
X17865000Y-6335000D02*
X17835000Y-6365000D01*
X17835000Y-6485000D02*
X17865000Y-6515000D01*
X17865000Y-6485000D02*
X17835000Y-6515000D01*
X17835000Y-7135000D02*
X17865000Y-7165000D01*
X17865000Y-7135000D02*
X17835000Y-7165000D01*
X17885000Y-7485000D02*
X17915000Y-7515000D01*
X17915000Y-7485000D02*
X17885000Y-7515000D01*
X17885000Y-8435000D02*
X17915000Y-8465000D01*
X17915000Y-8435000D02*
X17885000Y-8465000D01*
X17935000Y-7135000D02*
X17965000Y-7165000D01*
X17965000Y-7135000D02*
X17935000Y-7165000D01*
X17935000Y-8635000D02*
X17965000Y-8665000D01*
X17965000Y-8635000D02*
X17935000Y-8665000D01*
X17935000Y-8835000D02*
X17965000Y-8865000D01*
X17965000Y-8835000D02*
X17935000Y-8865000D01*
X17935000Y-9035000D02*
X17965000Y-9065000D01*
X17965000Y-9035000D02*
X17935000Y-9065000D01*
X17935000Y-9185000D02*
X17965000Y-9215000D01*
X17965000Y-9185000D02*
X17935000Y-9215000D01*
X17935000Y-9335000D02*
X17965000Y-9365000D01*
X17965000Y-9335000D02*
X17935000Y-9365000D01*
X17935000Y-10035000D02*
X17965000Y-10065000D01*
X17965000Y-10035000D02*
X17935000Y-10065000D01*
X17985000Y-7735000D02*
X18015000Y-7765000D01*
X18015000Y-7735000D02*
X17985000Y-7765000D01*
X17985000Y-8135000D02*
X18015000Y-8165000D01*
X18015000Y-8135000D02*
X17985000Y-8165000D01*
X18035000Y-7935000D02*
X18065000Y-7965000D01*
X18065000Y-7935000D02*
X18035000Y-7965000D01*
X18085000Y-10035000D02*
X18115000Y-10065000D01*
X18115000Y-10035000D02*
X18085000Y-10065000D01*
X18135000Y-9435000D02*
X18165000Y-9465000D01*
X18165000Y-9435000D02*
X18135000Y-9465000D01*
X18183882Y-9044745D02*
X18213882Y-9074745D01*
X18213882Y-9044745D02*
X18183882Y-9074745D01*
X18185000Y-8135000D02*
X18215000Y-8165000D01*
X18215000Y-8135000D02*
X18185000Y-8165000D01*
X18185000Y-8635000D02*
X18215000Y-8665000D01*
X18215000Y-8635000D02*
X18185000Y-8665000D01*
X18185000Y-8835000D02*
X18215000Y-8865000D01*
X18215000Y-8835000D02*
X18185000Y-8865000D01*
X18185000Y-9185000D02*
X18215000Y-9215000D01*
X18215000Y-9185000D02*
X18185000Y-9215000D01*
X18235000Y-4235000D02*
X18265000Y-4265000D01*
X18265000Y-4235000D02*
X18235000Y-4265000D01*
X18235000Y-4385000D02*
X18265000Y-4415000D01*
X18265000Y-4385000D02*
X18235000Y-4415000D01*
X18235000Y-4535000D02*
X18265000Y-4565000D01*
X18265000Y-4535000D02*
X18235000Y-4565000D01*
X18235000Y-4685000D02*
X18265000Y-4715000D01*
X18265000Y-4685000D02*
X18235000Y-4715000D01*
X18235000Y-4835000D02*
X18265000Y-4865000D01*
X18265000Y-4835000D02*
X18235000Y-4865000D01*
X18235000Y-4985000D02*
X18265000Y-5015000D01*
X18265000Y-4985000D02*
X18235000Y-5015000D01*
X18235000Y-5135000D02*
X18265000Y-5165000D01*
X18265000Y-5135000D02*
X18235000Y-5165000D01*
X18235000Y-5285000D02*
X18265000Y-5315000D01*
X18265000Y-5285000D02*
X18235000Y-5315000D01*
X18235000Y-5435000D02*
X18265000Y-5465000D01*
X18265000Y-5435000D02*
X18235000Y-5465000D01*
X18235000Y-5585000D02*
X18265000Y-5615000D01*
X18265000Y-5585000D02*
X18235000Y-5615000D01*
X18235000Y-5685000D02*
X18265000Y-5715000D01*
X18265000Y-5685000D02*
X18235000Y-5715000D01*
X18235000Y-5835000D02*
X18265000Y-5865000D01*
X18265000Y-5835000D02*
X18235000Y-5865000D01*
X18235000Y-5985000D02*
X18265000Y-6015000D01*
X18265000Y-5985000D02*
X18235000Y-6015000D01*
X18235000Y-6135000D02*
X18265000Y-6165000D01*
X18265000Y-6135000D02*
X18235000Y-6165000D01*
X18235000Y-6285000D02*
X18265000Y-6315000D01*
X18265000Y-6285000D02*
X18235000Y-6315000D01*
X18235000Y-7835000D02*
X18265000Y-7865000D01*
X18265000Y-7835000D02*
X18235000Y-7865000D01*
X18235000Y-10035000D02*
X18265000Y-10065000D01*
X18265000Y-10035000D02*
X18235000Y-10065000D01*
X18335000Y-8635000D02*
X18365000Y-8665000D01*
X18365000Y-8635000D02*
X18335000Y-8665000D01*
X18335000Y-8835000D02*
X18365000Y-8865000D01*
X18365000Y-8835000D02*
X18335000Y-8865000D01*
X18335000Y-9035000D02*
X18365000Y-9065000D01*
X18365000Y-9035000D02*
X18335000Y-9065000D01*
X18335000Y-9185000D02*
X18365000Y-9215000D01*
X18365000Y-9185000D02*
X18335000Y-9215000D01*
X18335000Y-9435000D02*
X18365000Y-9465000D01*
X18365000Y-9435000D02*
X18335000Y-9465000D01*
X15683345Y-7867965D02*
G75*
G02*
X15623345Y-7867965I-30000J0D01*
G01*
X15623345Y-7867965D02*
G75*
G02*
X15683345Y-7867965I30000J0D01*
G01*
X15693345Y-7837965D02*
X15613345Y-7837965D01*
X15613345Y-7897965D02*
G75*
G02*
X15613345Y-7837965I0J30000D01*
G01*
X15613345Y-7897965D02*
X15693345Y-7897965D01*
X15693345Y-7897965D02*
G75*
G03*
X15693345Y-7837965I0J30000D01*
G01*
X15683345Y-8731965D02*
G75*
G02*
X15623345Y-8731965I-30000J0D01*
G01*
X15623345Y-8731965D02*
G75*
G02*
X15683345Y-8731965I30000J0D01*
G01*
X15693345Y-8701965D02*
X15613345Y-8701965D01*
X15613345Y-8761965D02*
G75*
G02*
X15613345Y-8701965I0J30000D01*
G01*
X15613345Y-8761965D02*
X15693345Y-8761965D01*
X15693345Y-8761965D02*
G75*
G03*
X15693345Y-8701965I0J30000D01*
G01*
X16101345Y-7867965D02*
G75*
G02*
X16041345Y-7867965I-30000J0D01*
G01*
X16041345Y-7867965D02*
G75*
G02*
X16101345Y-7867965I30000J0D01*
G01*
X16126345Y-7837965D02*
X16016345Y-7837965D01*
X16016345Y-7897965D02*
G75*
G02*
X16016345Y-7837965I0J30000D01*
G01*
X16016345Y-7897965D02*
X16126345Y-7897965D01*
X16126345Y-7897965D02*
G75*
G03*
X16126345Y-7837965I0J30000D01*
G01*
X16101345Y-8731965D02*
G75*
G02*
X16041345Y-8731965I-30000J0D01*
G01*
X16041345Y-8731965D02*
G75*
G02*
X16101345Y-8731965I30000J0D01*
G01*
X16126345Y-8701965D02*
X16016345Y-8701965D01*
X16016345Y-8761965D02*
G75*
G02*
X16016345Y-8701965I0J30000D01*
G01*
X16016345Y-8761965D02*
X16126345Y-8761965D01*
X16126345Y-8761965D02*
G75*
G03*
X16126345Y-8701965I0J30000D01*
G01*
X15600000Y-9196000D02*
X15600000Y-9296000D01*
X15550000Y-9246000D02*
X15650000Y-9246000D01*
X15600000Y-9450000D02*
X15600000Y-9550000D01*
X15550000Y-9500000D02*
X15650000Y-9500000D01*
X18250000Y-6500000D02*
X18250000Y-6600000D01*
X18200000Y-6550000D02*
X18300000Y-6550000D01*
X18250000Y-6754000D02*
X18250000Y-6854000D01*
X18200000Y-6804000D02*
X18300000Y-6804000D01*
X18250000Y-7008000D02*
X18250000Y-7108000D01*
X18200000Y-7058000D02*
X18300000Y-7058000D01*
X18250000Y-7262000D02*
X18250000Y-7362000D01*
X18200000Y-7312000D02*
X18300000Y-7312000D01*
X18250000Y-7516000D02*
X18250000Y-7616000D01*
X18200000Y-7566000D02*
X18300000Y-7566000D01*
D10*
X15650777Y-11214416D02*
X15650777Y-11014417D01*
X15650777Y-11014417D02*
X15698396Y-11014417D01*
X15698396Y-11014417D02*
X15726967Y-11023940D01*
X15726967Y-11023940D02*
X15746015Y-11042988D01*
X15746015Y-11042988D02*
X15755539Y-11062036D01*
X15755539Y-11062036D02*
X15765062Y-11100131D01*
X15765062Y-11100131D02*
X15765062Y-11128702D01*
X15765062Y-11128702D02*
X15755539Y-11166797D01*
X15755539Y-11166797D02*
X15746015Y-11185845D01*
X15746015Y-11185845D02*
X15726967Y-11204893D01*
X15726967Y-11204893D02*
X15698396Y-11214416D01*
X15698396Y-11214416D02*
X15650777Y-11214416D01*
X15850777Y-11214416D02*
X15850777Y-11081083D01*
X15850777Y-11119178D02*
X15860301Y-11100131D01*
X15860301Y-11100131D02*
X15869824Y-11090607D01*
X15869824Y-11090607D02*
X15888872Y-11081083D01*
X15888872Y-11081083D02*
X15907920Y-11081083D01*
X15974586Y-11214416D02*
X15974586Y-11081083D01*
X15974586Y-11014417D02*
X15965062Y-11023940D01*
X15965062Y-11023940D02*
X15974586Y-11033464D01*
X15974586Y-11033464D02*
X15984110Y-11023940D01*
X15984110Y-11023940D02*
X15974586Y-11014417D01*
X15974586Y-11014417D02*
X15974586Y-11033464D01*
X16098396Y-11214416D02*
X16079348Y-11204893D01*
X16079348Y-11204893D02*
X16069824Y-11185845D01*
X16069824Y-11185845D02*
X16069824Y-11014417D01*
X16203158Y-11214416D02*
X16184110Y-11204893D01*
X16184110Y-11204893D02*
X16174586Y-11185845D01*
X16174586Y-11185845D02*
X16174586Y-11014417D01*
X16431729Y-11214416D02*
X16431729Y-11014417D01*
X16431729Y-11014417D02*
X16498396Y-11157274D01*
X16498396Y-11157274D02*
X16565062Y-11014417D01*
X16565062Y-11014417D02*
X16565062Y-11214416D01*
X16746015Y-11214416D02*
X16746015Y-11109655D01*
X16746015Y-11109655D02*
X16736491Y-11090607D01*
X16736491Y-11090607D02*
X16717443Y-11081083D01*
X16717443Y-11081083D02*
X16679348Y-11081083D01*
X16679348Y-11081083D02*
X16660301Y-11090607D01*
X16746015Y-11204893D02*
X16726967Y-11214416D01*
X16726967Y-11214416D02*
X16679348Y-11214416D01*
X16679348Y-11214416D02*
X16660301Y-11204893D01*
X16660301Y-11204893D02*
X16650777Y-11185845D01*
X16650777Y-11185845D02*
X16650777Y-11166797D01*
X16650777Y-11166797D02*
X16660301Y-11147750D01*
X16660301Y-11147750D02*
X16679348Y-11138226D01*
X16679348Y-11138226D02*
X16726967Y-11138226D01*
X16726967Y-11138226D02*
X16746015Y-11128702D01*
X16841253Y-11081083D02*
X16841253Y-11281083D01*
X16841253Y-11090607D02*
X16860301Y-11081083D01*
X16860301Y-11081083D02*
X16898396Y-11081083D01*
X16898396Y-11081083D02*
X16917444Y-11090607D01*
X16917444Y-11090607D02*
X16926967Y-11100131D01*
X16926967Y-11100131D02*
X16936491Y-11119178D01*
X16936491Y-11119178D02*
X16936491Y-11176321D01*
X16936491Y-11176321D02*
X16926967Y-11195369D01*
X16926967Y-11195369D02*
X16917444Y-11204893D01*
X16917444Y-11204893D02*
X16898396Y-11214416D01*
X16898396Y-11214416D02*
X16860301Y-11214416D01*
X16860301Y-11214416D02*
X16841253Y-11204893D01*
X17022205Y-11195369D02*
X17031729Y-11204893D01*
X17031729Y-11204893D02*
X17022205Y-11214416D01*
X17022205Y-11214416D02*
X17012682Y-11204893D01*
X17012682Y-11204893D02*
X17022205Y-11195369D01*
X17022205Y-11195369D02*
X17022205Y-11214416D01*
X17022205Y-11090607D02*
X17031729Y-11100131D01*
X17031729Y-11100131D02*
X17022205Y-11109655D01*
X17022205Y-11109655D02*
X17012682Y-11100131D01*
X17012682Y-11100131D02*
X17022205Y-11090607D01*
X17022205Y-11090607D02*
X17022205Y-11109655D01*
D11*
X15360000Y-11527933D02*
X15390000Y-11557933D01*
X15390000Y-11527933D02*
X15360000Y-11557933D01*
D10*
X15688872Y-11434416D02*
X15707920Y-11434416D01*
X15707920Y-11434416D02*
X15726967Y-11443940D01*
X15726967Y-11443940D02*
X15736491Y-11453464D01*
X15736491Y-11453464D02*
X15746015Y-11472512D01*
X15746015Y-11472512D02*
X15755539Y-11510607D01*
X15755539Y-11510607D02*
X15755539Y-11558226D01*
X15755539Y-11558226D02*
X15746015Y-11596321D01*
X15746015Y-11596321D02*
X15736491Y-11615369D01*
X15736491Y-11615369D02*
X15726967Y-11624893D01*
X15726967Y-11624893D02*
X15707920Y-11634416D01*
X15707920Y-11634416D02*
X15688872Y-11634416D01*
X15688872Y-11634416D02*
X15669824Y-11624893D01*
X15669824Y-11624893D02*
X15660301Y-11615369D01*
X15660301Y-11615369D02*
X15650777Y-11596321D01*
X15650777Y-11596321D02*
X15641253Y-11558226D01*
X15641253Y-11558226D02*
X15641253Y-11510607D01*
X15641253Y-11510607D02*
X15650777Y-11472512D01*
X15650777Y-11472512D02*
X15660301Y-11453464D01*
X15660301Y-11453464D02*
X15669824Y-11443940D01*
X15669824Y-11443940D02*
X15688872Y-11434416D01*
X15841253Y-11615369D02*
X15850777Y-11624893D01*
X15850777Y-11624893D02*
X15841253Y-11634416D01*
X15841253Y-11634416D02*
X15831729Y-11624893D01*
X15831729Y-11624893D02*
X15841253Y-11615369D01*
X15841253Y-11615369D02*
X15841253Y-11634416D01*
X15917443Y-11434416D02*
X16041253Y-11434416D01*
X16041253Y-11434416D02*
X15974586Y-11510607D01*
X15974586Y-11510607D02*
X16003158Y-11510607D01*
X16003158Y-11510607D02*
X16022205Y-11520131D01*
X16022205Y-11520131D02*
X16031729Y-11529655D01*
X16031729Y-11529655D02*
X16041253Y-11548702D01*
X16041253Y-11548702D02*
X16041253Y-11596321D01*
X16041253Y-11596321D02*
X16031729Y-11615369D01*
X16031729Y-11615369D02*
X16022205Y-11624893D01*
X16022205Y-11624893D02*
X16003158Y-11634416D01*
X16003158Y-11634416D02*
X15946015Y-11634416D01*
X15946015Y-11634416D02*
X15926967Y-11624893D01*
X15926967Y-11624893D02*
X15917443Y-11615369D01*
X16165062Y-11434416D02*
X16184110Y-11434416D01*
X16184110Y-11434416D02*
X16203158Y-11443940D01*
X16203158Y-11443940D02*
X16212682Y-11453464D01*
X16212682Y-11453464D02*
X16222205Y-11472512D01*
X16222205Y-11472512D02*
X16231729Y-11510607D01*
X16231729Y-11510607D02*
X16231729Y-11558226D01*
X16231729Y-11558226D02*
X16222205Y-11596321D01*
X16222205Y-11596321D02*
X16212682Y-11615369D01*
X16212682Y-11615369D02*
X16203158Y-11624893D01*
X16203158Y-11624893D02*
X16184110Y-11634416D01*
X16184110Y-11634416D02*
X16165062Y-11634416D01*
X16165062Y-11634416D02*
X16146015Y-11624893D01*
X16146015Y-11624893D02*
X16136491Y-11615369D01*
X16136491Y-11615369D02*
X16126967Y-11596321D01*
X16126967Y-11596321D02*
X16117443Y-11558226D01*
X16117443Y-11558226D02*
X16117443Y-11510607D01*
X16117443Y-11510607D02*
X16126967Y-11472512D01*
X16126967Y-11472512D02*
X16136491Y-11453464D01*
X16136491Y-11453464D02*
X16146015Y-11443940D01*
X16146015Y-11443940D02*
X16165062Y-11434416D01*
X16355539Y-11434416D02*
X16374586Y-11434416D01*
X16374586Y-11434416D02*
X16393634Y-11443940D01*
X16393634Y-11443940D02*
X16403158Y-11453464D01*
X16403158Y-11453464D02*
X16412682Y-11472512D01*
X16412682Y-11472512D02*
X16422205Y-11510607D01*
X16422205Y-11510607D02*
X16422205Y-11558226D01*
X16422205Y-11558226D02*
X16412682Y-11596321D01*
X16412682Y-11596321D02*
X16403158Y-11615369D01*
X16403158Y-11615369D02*
X16393634Y-11624893D01*
X16393634Y-11624893D02*
X16374586Y-11634416D01*
X16374586Y-11634416D02*
X16355539Y-11634416D01*
X16355539Y-11634416D02*
X16336491Y-11624893D01*
X16336491Y-11624893D02*
X16326967Y-11615369D01*
X16326967Y-11615369D02*
X16317443Y-11596321D01*
X16317443Y-11596321D02*
X16307920Y-11558226D01*
X16307920Y-11558226D02*
X16307920Y-11510607D01*
X16307920Y-11510607D02*
X16317443Y-11472512D01*
X16317443Y-11472512D02*
X16326967Y-11453464D01*
X16326967Y-11453464D02*
X16336491Y-11443940D01*
X16336491Y-11443940D02*
X16355539Y-11434416D01*
X16507920Y-11634416D02*
X16507920Y-11501083D01*
X16507920Y-11520131D02*
X16517443Y-11510607D01*
X16517443Y-11510607D02*
X16536491Y-11501083D01*
X16536491Y-11501083D02*
X16565063Y-11501083D01*
X16565063Y-11501083D02*
X16584110Y-11510607D01*
X16584110Y-11510607D02*
X16593634Y-11529655D01*
X16593634Y-11529655D02*
X16593634Y-11634416D01*
X16593634Y-11529655D02*
X16603158Y-11510607D01*
X16603158Y-11510607D02*
X16622205Y-11501083D01*
X16622205Y-11501083D02*
X16650777Y-11501083D01*
X16650777Y-11501083D02*
X16669824Y-11510607D01*
X16669824Y-11510607D02*
X16679348Y-11529655D01*
X16679348Y-11529655D02*
X16679348Y-11634416D01*
X16774586Y-11634416D02*
X16774586Y-11501083D01*
X16774586Y-11520131D02*
X16784110Y-11510607D01*
X16784110Y-11510607D02*
X16803158Y-11501083D01*
X16803158Y-11501083D02*
X16831729Y-11501083D01*
X16831729Y-11501083D02*
X16850777Y-11510607D01*
X16850777Y-11510607D02*
X16860301Y-11529655D01*
X16860301Y-11529655D02*
X16860301Y-11634416D01*
X16860301Y-11529655D02*
X16869825Y-11510607D01*
X16869825Y-11510607D02*
X16888872Y-11501083D01*
X16888872Y-11501083D02*
X16917444Y-11501083D01*
X16917444Y-11501083D02*
X16936491Y-11510607D01*
X16936491Y-11510607D02*
X16946015Y-11529655D01*
X16946015Y-11529655D02*
X16946015Y-11634416D01*
X17336491Y-11424893D02*
X17165063Y-11682035D01*
X17593634Y-11434416D02*
X17612682Y-11434416D01*
X17612682Y-11434416D02*
X17631729Y-11443940D01*
X17631729Y-11443940D02*
X17641253Y-11453464D01*
X17641253Y-11453464D02*
X17650777Y-11472512D01*
X17650777Y-11472512D02*
X17660301Y-11510607D01*
X17660301Y-11510607D02*
X17660301Y-11558226D01*
X17660301Y-11558226D02*
X17650777Y-11596321D01*
X17650777Y-11596321D02*
X17641253Y-11615369D01*
X17641253Y-11615369D02*
X17631729Y-11624893D01*
X17631729Y-11624893D02*
X17612682Y-11634416D01*
X17612682Y-11634416D02*
X17593634Y-11634416D01*
X17593634Y-11634416D02*
X17574587Y-11624893D01*
X17574587Y-11624893D02*
X17565063Y-11615369D01*
X17565063Y-11615369D02*
X17555539Y-11596321D01*
X17555539Y-11596321D02*
X17546015Y-11558226D01*
X17546015Y-11558226D02*
X17546015Y-11510607D01*
X17546015Y-11510607D02*
X17555539Y-11472512D01*
X17555539Y-11472512D02*
X17565063Y-11453464D01*
X17565063Y-11453464D02*
X17574587Y-11443940D01*
X17574587Y-11443940D02*
X17593634Y-11434416D01*
X17746015Y-11615369D02*
X17755539Y-11624893D01*
X17755539Y-11624893D02*
X17746015Y-11634416D01*
X17746015Y-11634416D02*
X17736491Y-11624893D01*
X17736491Y-11624893D02*
X17746015Y-11615369D01*
X17746015Y-11615369D02*
X17746015Y-11634416D01*
X17879348Y-11434416D02*
X17898396Y-11434416D01*
X17898396Y-11434416D02*
X17917444Y-11443940D01*
X17917444Y-11443940D02*
X17926968Y-11453464D01*
X17926968Y-11453464D02*
X17936491Y-11472512D01*
X17936491Y-11472512D02*
X17946015Y-11510607D01*
X17946015Y-11510607D02*
X17946015Y-11558226D01*
X17946015Y-11558226D02*
X17936491Y-11596321D01*
X17936491Y-11596321D02*
X17926968Y-11615369D01*
X17926968Y-11615369D02*
X17917444Y-11624893D01*
X17917444Y-11624893D02*
X17898396Y-11634416D01*
X17898396Y-11634416D02*
X17879348Y-11634416D01*
X17879348Y-11634416D02*
X17860301Y-11624893D01*
X17860301Y-11624893D02*
X17850777Y-11615369D01*
X17850777Y-11615369D02*
X17841253Y-11596321D01*
X17841253Y-11596321D02*
X17831729Y-11558226D01*
X17831729Y-11558226D02*
X17831729Y-11510607D01*
X17831729Y-11510607D02*
X17841253Y-11472512D01*
X17841253Y-11472512D02*
X17850777Y-11453464D01*
X17850777Y-11453464D02*
X17860301Y-11443940D01*
X17860301Y-11443940D02*
X17879348Y-11434416D01*
X18136491Y-11634416D02*
X18022206Y-11634416D01*
X18079348Y-11634416D02*
X18079348Y-11434416D01*
X18079348Y-11434416D02*
X18060301Y-11462988D01*
X18060301Y-11462988D02*
X18041253Y-11482035D01*
X18041253Y-11482035D02*
X18022206Y-11491559D01*
X18326968Y-11634416D02*
X18212682Y-11634416D01*
X18269825Y-11634416D02*
X18269825Y-11434416D01*
X18269825Y-11434416D02*
X18250777Y-11462988D01*
X18250777Y-11462988D02*
X18231729Y-11482035D01*
X18231729Y-11482035D02*
X18212682Y-11491559D01*
X18441253Y-11520131D02*
X18422206Y-11510607D01*
X18422206Y-11510607D02*
X18412682Y-11501083D01*
X18412682Y-11501083D02*
X18403158Y-11482035D01*
X18403158Y-11482035D02*
X18403158Y-11472512D01*
X18403158Y-11472512D02*
X18412682Y-11453464D01*
X18412682Y-11453464D02*
X18422206Y-11443940D01*
X18422206Y-11443940D02*
X18441253Y-11434416D01*
X18441253Y-11434416D02*
X18479349Y-11434416D01*
X18479349Y-11434416D02*
X18498396Y-11443940D01*
X18498396Y-11443940D02*
X18507920Y-11453464D01*
X18507920Y-11453464D02*
X18517444Y-11472512D01*
X18517444Y-11472512D02*
X18517444Y-11482035D01*
X18517444Y-11482035D02*
X18507920Y-11501083D01*
X18507920Y-11501083D02*
X18498396Y-11510607D01*
X18498396Y-11510607D02*
X18479349Y-11520131D01*
X18479349Y-11520131D02*
X18441253Y-11520131D01*
X18441253Y-11520131D02*
X18422206Y-11529655D01*
X18422206Y-11529655D02*
X18412682Y-11539178D01*
X18412682Y-11539178D02*
X18403158Y-11558226D01*
X18403158Y-11558226D02*
X18403158Y-11596321D01*
X18403158Y-11596321D02*
X18412682Y-11615369D01*
X18412682Y-11615369D02*
X18422206Y-11624893D01*
X18422206Y-11624893D02*
X18441253Y-11634416D01*
X18441253Y-11634416D02*
X18479349Y-11634416D01*
X18479349Y-11634416D02*
X18498396Y-11624893D01*
X18498396Y-11624893D02*
X18507920Y-11615369D01*
X18507920Y-11615369D02*
X18517444Y-11596321D01*
X18517444Y-11596321D02*
X18517444Y-11558226D01*
X18517444Y-11558226D02*
X18507920Y-11539178D01*
X18507920Y-11539178D02*
X18498396Y-11529655D01*
X18498396Y-11529655D02*
X18479349Y-11520131D01*
X18593634Y-11434416D02*
X18593634Y-11472512D01*
X18669825Y-11434416D02*
X18669825Y-11472512D01*
X18965063Y-11710607D02*
X18955539Y-11701083D01*
X18955539Y-11701083D02*
X18936491Y-11672512D01*
X18936491Y-11672512D02*
X18926968Y-11653464D01*
X18926968Y-11653464D02*
X18917444Y-11624893D01*
X18917444Y-11624893D02*
X18907920Y-11577274D01*
X18907920Y-11577274D02*
X18907920Y-11539178D01*
X18907920Y-11539178D02*
X18917444Y-11491559D01*
X18917444Y-11491559D02*
X18926968Y-11462988D01*
X18926968Y-11462988D02*
X18936491Y-11443940D01*
X18936491Y-11443940D02*
X18955539Y-11415369D01*
X18955539Y-11415369D02*
X18965063Y-11405845D01*
X19031730Y-11453464D02*
X19041253Y-11443940D01*
X19041253Y-11443940D02*
X19060301Y-11434416D01*
X19060301Y-11434416D02*
X19107920Y-11434416D01*
X19107920Y-11434416D02*
X19126968Y-11443940D01*
X19126968Y-11443940D02*
X19136491Y-11453464D01*
X19136491Y-11453464D02*
X19146015Y-11472512D01*
X19146015Y-11472512D02*
X19146015Y-11491559D01*
X19146015Y-11491559D02*
X19136491Y-11520131D01*
X19136491Y-11520131D02*
X19022206Y-11634416D01*
X19022206Y-11634416D02*
X19146015Y-11634416D01*
X19212682Y-11434416D02*
X19336491Y-11434416D01*
X19336491Y-11434416D02*
X19269825Y-11510607D01*
X19269825Y-11510607D02*
X19298396Y-11510607D01*
X19298396Y-11510607D02*
X19317444Y-11520131D01*
X19317444Y-11520131D02*
X19326968Y-11529655D01*
X19326968Y-11529655D02*
X19336491Y-11548702D01*
X19336491Y-11548702D02*
X19336491Y-11596321D01*
X19336491Y-11596321D02*
X19326968Y-11615369D01*
X19326968Y-11615369D02*
X19317444Y-11624893D01*
X19317444Y-11624893D02*
X19298396Y-11634416D01*
X19298396Y-11634416D02*
X19241253Y-11634416D01*
X19241253Y-11634416D02*
X19222206Y-11624893D01*
X19222206Y-11624893D02*
X19212682Y-11615369D01*
X19507920Y-11501083D02*
X19507920Y-11634416D01*
X19460301Y-11424893D02*
X19412682Y-11567750D01*
X19412682Y-11567750D02*
X19536491Y-11567750D01*
X19765063Y-11634416D02*
X19765063Y-11434416D01*
X19850777Y-11634416D02*
X19850777Y-11529655D01*
X19850777Y-11529655D02*
X19841253Y-11510607D01*
X19841253Y-11510607D02*
X19822206Y-11501083D01*
X19822206Y-11501083D02*
X19793634Y-11501083D01*
X19793634Y-11501083D02*
X19774587Y-11510607D01*
X19774587Y-11510607D02*
X19765063Y-11520131D01*
X19974587Y-11634416D02*
X19955539Y-11624893D01*
X19955539Y-11624893D02*
X19946015Y-11615369D01*
X19946015Y-11615369D02*
X19936492Y-11596321D01*
X19936492Y-11596321D02*
X19936492Y-11539178D01*
X19936492Y-11539178D02*
X19946015Y-11520131D01*
X19946015Y-11520131D02*
X19955539Y-11510607D01*
X19955539Y-11510607D02*
X19974587Y-11501083D01*
X19974587Y-11501083D02*
X20003158Y-11501083D01*
X20003158Y-11501083D02*
X20022206Y-11510607D01*
X20022206Y-11510607D02*
X20031730Y-11520131D01*
X20031730Y-11520131D02*
X20041253Y-11539178D01*
X20041253Y-11539178D02*
X20041253Y-11596321D01*
X20041253Y-11596321D02*
X20031730Y-11615369D01*
X20031730Y-11615369D02*
X20022206Y-11624893D01*
X20022206Y-11624893D02*
X20003158Y-11634416D01*
X20003158Y-11634416D02*
X19974587Y-11634416D01*
X20155539Y-11634416D02*
X20136492Y-11624893D01*
X20136492Y-11624893D02*
X20126968Y-11605845D01*
X20126968Y-11605845D02*
X20126968Y-11434416D01*
X20307920Y-11624893D02*
X20288873Y-11634416D01*
X20288873Y-11634416D02*
X20250777Y-11634416D01*
X20250777Y-11634416D02*
X20231730Y-11624893D01*
X20231730Y-11624893D02*
X20222206Y-11605845D01*
X20222206Y-11605845D02*
X20222206Y-11529655D01*
X20222206Y-11529655D02*
X20231730Y-11510607D01*
X20231730Y-11510607D02*
X20250777Y-11501083D01*
X20250777Y-11501083D02*
X20288873Y-11501083D01*
X20288873Y-11501083D02*
X20307920Y-11510607D01*
X20307920Y-11510607D02*
X20317444Y-11529655D01*
X20317444Y-11529655D02*
X20317444Y-11548702D01*
X20317444Y-11548702D02*
X20222206Y-11567750D01*
X20393634Y-11624893D02*
X20412682Y-11634416D01*
X20412682Y-11634416D02*
X20450777Y-11634416D01*
X20450777Y-11634416D02*
X20469825Y-11624893D01*
X20469825Y-11624893D02*
X20479349Y-11605845D01*
X20479349Y-11605845D02*
X20479349Y-11596321D01*
X20479349Y-11596321D02*
X20469825Y-11577274D01*
X20469825Y-11577274D02*
X20450777Y-11567750D01*
X20450777Y-11567750D02*
X20422206Y-11567750D01*
X20422206Y-11567750D02*
X20403158Y-11558226D01*
X20403158Y-11558226D02*
X20393634Y-11539178D01*
X20393634Y-11539178D02*
X20393634Y-11529655D01*
X20393634Y-11529655D02*
X20403158Y-11510607D01*
X20403158Y-11510607D02*
X20422206Y-11501083D01*
X20422206Y-11501083D02*
X20450777Y-11501083D01*
X20450777Y-11501083D02*
X20469825Y-11510607D01*
X20546015Y-11710607D02*
X20555539Y-11701083D01*
X20555539Y-11701083D02*
X20574587Y-11672512D01*
X20574587Y-11672512D02*
X20584111Y-11653464D01*
X20584111Y-11653464D02*
X20593634Y-11624893D01*
X20593634Y-11624893D02*
X20603158Y-11577274D01*
X20603158Y-11577274D02*
X20603158Y-11539178D01*
X20603158Y-11539178D02*
X20593634Y-11491559D01*
X20593634Y-11491559D02*
X20584111Y-11462988D01*
X20584111Y-11462988D02*
X20574587Y-11443940D01*
X20574587Y-11443940D02*
X20555539Y-11415369D01*
X20555539Y-11415369D02*
X20546015Y-11405845D01*
D11*
X15390000Y-11806933D02*
G75*
G02*
X15330000Y-11806933I-30000J0D01*
G01*
X15330000Y-11806933D02*
G75*
G02*
X15390000Y-11806933I30000J0D01*
G01*
D10*
X15688872Y-11698416D02*
X15707920Y-11698416D01*
X15707920Y-11698416D02*
X15726967Y-11707940D01*
X15726967Y-11707940D02*
X15736491Y-11717464D01*
X15736491Y-11717464D02*
X15746015Y-11736512D01*
X15746015Y-11736512D02*
X15755539Y-11774607D01*
X15755539Y-11774607D02*
X15755539Y-11822226D01*
X15755539Y-11822226D02*
X15746015Y-11860321D01*
X15746015Y-11860321D02*
X15736491Y-11879369D01*
X15736491Y-11879369D02*
X15726967Y-11888893D01*
X15726967Y-11888893D02*
X15707920Y-11898416D01*
X15707920Y-11898416D02*
X15688872Y-11898416D01*
X15688872Y-11898416D02*
X15669824Y-11888893D01*
X15669824Y-11888893D02*
X15660301Y-11879369D01*
X15660301Y-11879369D02*
X15650777Y-11860321D01*
X15650777Y-11860321D02*
X15641253Y-11822226D01*
X15641253Y-11822226D02*
X15641253Y-11774607D01*
X15641253Y-11774607D02*
X15650777Y-11736512D01*
X15650777Y-11736512D02*
X15660301Y-11717464D01*
X15660301Y-11717464D02*
X15669824Y-11707940D01*
X15669824Y-11707940D02*
X15688872Y-11698416D01*
X15841253Y-11879369D02*
X15850777Y-11888893D01*
X15850777Y-11888893D02*
X15841253Y-11898416D01*
X15841253Y-11898416D02*
X15831729Y-11888893D01*
X15831729Y-11888893D02*
X15841253Y-11879369D01*
X15841253Y-11879369D02*
X15841253Y-11898416D01*
X16022205Y-11698416D02*
X15984110Y-11698416D01*
X15984110Y-11698416D02*
X15965062Y-11707940D01*
X15965062Y-11707940D02*
X15955539Y-11717464D01*
X15955539Y-11717464D02*
X15936491Y-11746035D01*
X15936491Y-11746035D02*
X15926967Y-11784131D01*
X15926967Y-11784131D02*
X15926967Y-11860321D01*
X15926967Y-11860321D02*
X15936491Y-11879369D01*
X15936491Y-11879369D02*
X15946015Y-11888893D01*
X15946015Y-11888893D02*
X15965062Y-11898416D01*
X15965062Y-11898416D02*
X16003158Y-11898416D01*
X16003158Y-11898416D02*
X16022205Y-11888893D01*
X16022205Y-11888893D02*
X16031729Y-11879369D01*
X16031729Y-11879369D02*
X16041253Y-11860321D01*
X16041253Y-11860321D02*
X16041253Y-11812702D01*
X16041253Y-11812702D02*
X16031729Y-11793655D01*
X16031729Y-11793655D02*
X16022205Y-11784131D01*
X16022205Y-11784131D02*
X16003158Y-11774607D01*
X16003158Y-11774607D02*
X15965062Y-11774607D01*
X15965062Y-11774607D02*
X15946015Y-11784131D01*
X15946015Y-11784131D02*
X15936491Y-11793655D01*
X15936491Y-11793655D02*
X15926967Y-11812702D01*
X16165062Y-11698416D02*
X16184110Y-11698416D01*
X16184110Y-11698416D02*
X16203158Y-11707940D01*
X16203158Y-11707940D02*
X16212682Y-11717464D01*
X16212682Y-11717464D02*
X16222205Y-11736512D01*
X16222205Y-11736512D02*
X16231729Y-11774607D01*
X16231729Y-11774607D02*
X16231729Y-11822226D01*
X16231729Y-11822226D02*
X16222205Y-11860321D01*
X16222205Y-11860321D02*
X16212682Y-11879369D01*
X16212682Y-11879369D02*
X16203158Y-11888893D01*
X16203158Y-11888893D02*
X16184110Y-11898416D01*
X16184110Y-11898416D02*
X16165062Y-11898416D01*
X16165062Y-11898416D02*
X16146015Y-11888893D01*
X16146015Y-11888893D02*
X16136491Y-11879369D01*
X16136491Y-11879369D02*
X16126967Y-11860321D01*
X16126967Y-11860321D02*
X16117443Y-11822226D01*
X16117443Y-11822226D02*
X16117443Y-11774607D01*
X16117443Y-11774607D02*
X16126967Y-11736512D01*
X16126967Y-11736512D02*
X16136491Y-11717464D01*
X16136491Y-11717464D02*
X16146015Y-11707940D01*
X16146015Y-11707940D02*
X16165062Y-11698416D01*
X16355539Y-11698416D02*
X16374586Y-11698416D01*
X16374586Y-11698416D02*
X16393634Y-11707940D01*
X16393634Y-11707940D02*
X16403158Y-11717464D01*
X16403158Y-11717464D02*
X16412682Y-11736512D01*
X16412682Y-11736512D02*
X16422205Y-11774607D01*
X16422205Y-11774607D02*
X16422205Y-11822226D01*
X16422205Y-11822226D02*
X16412682Y-11860321D01*
X16412682Y-11860321D02*
X16403158Y-11879369D01*
X16403158Y-11879369D02*
X16393634Y-11888893D01*
X16393634Y-11888893D02*
X16374586Y-11898416D01*
X16374586Y-11898416D02*
X16355539Y-11898416D01*
X16355539Y-11898416D02*
X16336491Y-11888893D01*
X16336491Y-11888893D02*
X16326967Y-11879369D01*
X16326967Y-11879369D02*
X16317443Y-11860321D01*
X16317443Y-11860321D02*
X16307920Y-11822226D01*
X16307920Y-11822226D02*
X16307920Y-11774607D01*
X16307920Y-11774607D02*
X16317443Y-11736512D01*
X16317443Y-11736512D02*
X16326967Y-11717464D01*
X16326967Y-11717464D02*
X16336491Y-11707940D01*
X16336491Y-11707940D02*
X16355539Y-11698416D01*
X16507920Y-11898416D02*
X16507920Y-11765083D01*
X16507920Y-11784131D02*
X16517443Y-11774607D01*
X16517443Y-11774607D02*
X16536491Y-11765083D01*
X16536491Y-11765083D02*
X16565063Y-11765083D01*
X16565063Y-11765083D02*
X16584110Y-11774607D01*
X16584110Y-11774607D02*
X16593634Y-11793655D01*
X16593634Y-11793655D02*
X16593634Y-11898416D01*
X16593634Y-11793655D02*
X16603158Y-11774607D01*
X16603158Y-11774607D02*
X16622205Y-11765083D01*
X16622205Y-11765083D02*
X16650777Y-11765083D01*
X16650777Y-11765083D02*
X16669824Y-11774607D01*
X16669824Y-11774607D02*
X16679348Y-11793655D01*
X16679348Y-11793655D02*
X16679348Y-11898416D01*
X16774586Y-11898416D02*
X16774586Y-11765083D01*
X16774586Y-11784131D02*
X16784110Y-11774607D01*
X16784110Y-11774607D02*
X16803158Y-11765083D01*
X16803158Y-11765083D02*
X16831729Y-11765083D01*
X16831729Y-11765083D02*
X16850777Y-11774607D01*
X16850777Y-11774607D02*
X16860301Y-11793655D01*
X16860301Y-11793655D02*
X16860301Y-11898416D01*
X16860301Y-11793655D02*
X16869825Y-11774607D01*
X16869825Y-11774607D02*
X16888872Y-11765083D01*
X16888872Y-11765083D02*
X16917444Y-11765083D01*
X16917444Y-11765083D02*
X16936491Y-11774607D01*
X16936491Y-11774607D02*
X16946015Y-11793655D01*
X16946015Y-11793655D02*
X16946015Y-11898416D01*
X17336491Y-11688893D02*
X17165063Y-11946035D01*
X17593634Y-11698416D02*
X17612682Y-11698416D01*
X17612682Y-11698416D02*
X17631729Y-11707940D01*
X17631729Y-11707940D02*
X17641253Y-11717464D01*
X17641253Y-11717464D02*
X17650777Y-11736512D01*
X17650777Y-11736512D02*
X17660301Y-11774607D01*
X17660301Y-11774607D02*
X17660301Y-11822226D01*
X17660301Y-11822226D02*
X17650777Y-11860321D01*
X17650777Y-11860321D02*
X17641253Y-11879369D01*
X17641253Y-11879369D02*
X17631729Y-11888893D01*
X17631729Y-11888893D02*
X17612682Y-11898416D01*
X17612682Y-11898416D02*
X17593634Y-11898416D01*
X17593634Y-11898416D02*
X17574587Y-11888893D01*
X17574587Y-11888893D02*
X17565063Y-11879369D01*
X17565063Y-11879369D02*
X17555539Y-11860321D01*
X17555539Y-11860321D02*
X17546015Y-11822226D01*
X17546015Y-11822226D02*
X17546015Y-11774607D01*
X17546015Y-11774607D02*
X17555539Y-11736512D01*
X17555539Y-11736512D02*
X17565063Y-11717464D01*
X17565063Y-11717464D02*
X17574587Y-11707940D01*
X17574587Y-11707940D02*
X17593634Y-11698416D01*
X17746015Y-11879369D02*
X17755539Y-11888893D01*
X17755539Y-11888893D02*
X17746015Y-11898416D01*
X17746015Y-11898416D02*
X17736491Y-11888893D01*
X17736491Y-11888893D02*
X17746015Y-11879369D01*
X17746015Y-11879369D02*
X17746015Y-11898416D01*
X17879348Y-11698416D02*
X17898396Y-11698416D01*
X17898396Y-11698416D02*
X17917444Y-11707940D01*
X17917444Y-11707940D02*
X17926968Y-11717464D01*
X17926968Y-11717464D02*
X17936491Y-11736512D01*
X17936491Y-11736512D02*
X17946015Y-11774607D01*
X17946015Y-11774607D02*
X17946015Y-11822226D01*
X17946015Y-11822226D02*
X17936491Y-11860321D01*
X17936491Y-11860321D02*
X17926968Y-11879369D01*
X17926968Y-11879369D02*
X17917444Y-11888893D01*
X17917444Y-11888893D02*
X17898396Y-11898416D01*
X17898396Y-11898416D02*
X17879348Y-11898416D01*
X17879348Y-11898416D02*
X17860301Y-11888893D01*
X17860301Y-11888893D02*
X17850777Y-11879369D01*
X17850777Y-11879369D02*
X17841253Y-11860321D01*
X17841253Y-11860321D02*
X17831729Y-11822226D01*
X17831729Y-11822226D02*
X17831729Y-11774607D01*
X17831729Y-11774607D02*
X17841253Y-11736512D01*
X17841253Y-11736512D02*
X17850777Y-11717464D01*
X17850777Y-11717464D02*
X17860301Y-11707940D01*
X17860301Y-11707940D02*
X17879348Y-11698416D01*
X18022206Y-11717464D02*
X18031729Y-11707940D01*
X18031729Y-11707940D02*
X18050777Y-11698416D01*
X18050777Y-11698416D02*
X18098396Y-11698416D01*
X18098396Y-11698416D02*
X18117444Y-11707940D01*
X18117444Y-11707940D02*
X18126968Y-11717464D01*
X18126968Y-11717464D02*
X18136491Y-11736512D01*
X18136491Y-11736512D02*
X18136491Y-11755559D01*
X18136491Y-11755559D02*
X18126968Y-11784131D01*
X18126968Y-11784131D02*
X18012682Y-11898416D01*
X18012682Y-11898416D02*
X18136491Y-11898416D01*
X18203158Y-11698416D02*
X18326968Y-11698416D01*
X18326968Y-11698416D02*
X18260301Y-11774607D01*
X18260301Y-11774607D02*
X18288872Y-11774607D01*
X18288872Y-11774607D02*
X18307920Y-11784131D01*
X18307920Y-11784131D02*
X18317444Y-11793655D01*
X18317444Y-11793655D02*
X18326968Y-11812702D01*
X18326968Y-11812702D02*
X18326968Y-11860321D01*
X18326968Y-11860321D02*
X18317444Y-11879369D01*
X18317444Y-11879369D02*
X18307920Y-11888893D01*
X18307920Y-11888893D02*
X18288872Y-11898416D01*
X18288872Y-11898416D02*
X18231729Y-11898416D01*
X18231729Y-11898416D02*
X18212682Y-11888893D01*
X18212682Y-11888893D02*
X18203158Y-11879369D01*
X18498396Y-11698416D02*
X18460301Y-11698416D01*
X18460301Y-11698416D02*
X18441253Y-11707940D01*
X18441253Y-11707940D02*
X18431729Y-11717464D01*
X18431729Y-11717464D02*
X18412682Y-11746035D01*
X18412682Y-11746035D02*
X18403158Y-11784131D01*
X18403158Y-11784131D02*
X18403158Y-11860321D01*
X18403158Y-11860321D02*
X18412682Y-11879369D01*
X18412682Y-11879369D02*
X18422206Y-11888893D01*
X18422206Y-11888893D02*
X18441253Y-11898416D01*
X18441253Y-11898416D02*
X18479349Y-11898416D01*
X18479349Y-11898416D02*
X18498396Y-11888893D01*
X18498396Y-11888893D02*
X18507920Y-11879369D01*
X18507920Y-11879369D02*
X18517444Y-11860321D01*
X18517444Y-11860321D02*
X18517444Y-11812702D01*
X18517444Y-11812702D02*
X18507920Y-11793655D01*
X18507920Y-11793655D02*
X18498396Y-11784131D01*
X18498396Y-11784131D02*
X18479349Y-11774607D01*
X18479349Y-11774607D02*
X18441253Y-11774607D01*
X18441253Y-11774607D02*
X18422206Y-11784131D01*
X18422206Y-11784131D02*
X18412682Y-11793655D01*
X18412682Y-11793655D02*
X18403158Y-11812702D01*
X18593634Y-11698416D02*
X18593634Y-11736512D01*
X18669825Y-11698416D02*
X18669825Y-11736512D01*
X18965063Y-11974607D02*
X18955539Y-11965083D01*
X18955539Y-11965083D02*
X18936491Y-11936512D01*
X18936491Y-11936512D02*
X18926968Y-11917464D01*
X18926968Y-11917464D02*
X18917444Y-11888893D01*
X18917444Y-11888893D02*
X18907920Y-11841274D01*
X18907920Y-11841274D02*
X18907920Y-11803178D01*
X18907920Y-11803178D02*
X18917444Y-11755559D01*
X18917444Y-11755559D02*
X18926968Y-11726988D01*
X18926968Y-11726988D02*
X18936491Y-11707940D01*
X18936491Y-11707940D02*
X18955539Y-11679369D01*
X18955539Y-11679369D02*
X18965063Y-11669845D01*
X19079349Y-11698416D02*
X19098396Y-11698416D01*
X19098396Y-11698416D02*
X19117444Y-11707940D01*
X19117444Y-11707940D02*
X19126968Y-11717464D01*
X19126968Y-11717464D02*
X19136491Y-11736512D01*
X19136491Y-11736512D02*
X19146015Y-11774607D01*
X19146015Y-11774607D02*
X19146015Y-11822226D01*
X19146015Y-11822226D02*
X19136491Y-11860321D01*
X19136491Y-11860321D02*
X19126968Y-11879369D01*
X19126968Y-11879369D02*
X19117444Y-11888893D01*
X19117444Y-11888893D02*
X19098396Y-11898416D01*
X19098396Y-11898416D02*
X19079349Y-11898416D01*
X19079349Y-11898416D02*
X19060301Y-11888893D01*
X19060301Y-11888893D02*
X19050777Y-11879369D01*
X19050777Y-11879369D02*
X19041253Y-11860321D01*
X19041253Y-11860321D02*
X19031730Y-11822226D01*
X19031730Y-11822226D02*
X19031730Y-11774607D01*
X19031730Y-11774607D02*
X19041253Y-11736512D01*
X19041253Y-11736512D02*
X19050777Y-11717464D01*
X19050777Y-11717464D02*
X19060301Y-11707940D01*
X19060301Y-11707940D02*
X19079349Y-11698416D01*
X19384111Y-11898416D02*
X19384111Y-11698416D01*
X19469825Y-11898416D02*
X19469825Y-11793655D01*
X19469825Y-11793655D02*
X19460301Y-11774607D01*
X19460301Y-11774607D02*
X19441253Y-11765083D01*
X19441253Y-11765083D02*
X19412682Y-11765083D01*
X19412682Y-11765083D02*
X19393634Y-11774607D01*
X19393634Y-11774607D02*
X19384111Y-11784131D01*
X19593634Y-11898416D02*
X19574587Y-11888893D01*
X19574587Y-11888893D02*
X19565063Y-11879369D01*
X19565063Y-11879369D02*
X19555539Y-11860321D01*
X19555539Y-11860321D02*
X19555539Y-11803178D01*
X19555539Y-11803178D02*
X19565063Y-11784131D01*
X19565063Y-11784131D02*
X19574587Y-11774607D01*
X19574587Y-11774607D02*
X19593634Y-11765083D01*
X19593634Y-11765083D02*
X19622206Y-11765083D01*
X19622206Y-11765083D02*
X19641253Y-11774607D01*
X19641253Y-11774607D02*
X19650777Y-11784131D01*
X19650777Y-11784131D02*
X19660301Y-11803178D01*
X19660301Y-11803178D02*
X19660301Y-11860321D01*
X19660301Y-11860321D02*
X19650777Y-11879369D01*
X19650777Y-11879369D02*
X19641253Y-11888893D01*
X19641253Y-11888893D02*
X19622206Y-11898416D01*
X19622206Y-11898416D02*
X19593634Y-11898416D01*
X19774587Y-11898416D02*
X19755539Y-11888893D01*
X19755539Y-11888893D02*
X19746015Y-11869845D01*
X19746015Y-11869845D02*
X19746015Y-11698416D01*
X19926968Y-11888893D02*
X19907920Y-11898416D01*
X19907920Y-11898416D02*
X19869825Y-11898416D01*
X19869825Y-11898416D02*
X19850777Y-11888893D01*
X19850777Y-11888893D02*
X19841253Y-11869845D01*
X19841253Y-11869845D02*
X19841253Y-11793655D01*
X19841253Y-11793655D02*
X19850777Y-11774607D01*
X19850777Y-11774607D02*
X19869825Y-11765083D01*
X19869825Y-11765083D02*
X19907920Y-11765083D01*
X19907920Y-11765083D02*
X19926968Y-11774607D01*
X19926968Y-11774607D02*
X19936492Y-11793655D01*
X19936492Y-11793655D02*
X19936492Y-11812702D01*
X19936492Y-11812702D02*
X19841253Y-11831750D01*
X20012682Y-11888893D02*
X20031730Y-11898416D01*
X20031730Y-11898416D02*
X20069825Y-11898416D01*
X20069825Y-11898416D02*
X20088873Y-11888893D01*
X20088873Y-11888893D02*
X20098396Y-11869845D01*
X20098396Y-11869845D02*
X20098396Y-11860321D01*
X20098396Y-11860321D02*
X20088873Y-11841274D01*
X20088873Y-11841274D02*
X20069825Y-11831750D01*
X20069825Y-11831750D02*
X20041253Y-11831750D01*
X20041253Y-11831750D02*
X20022206Y-11822226D01*
X20022206Y-11822226D02*
X20012682Y-11803178D01*
X20012682Y-11803178D02*
X20012682Y-11793655D01*
X20012682Y-11793655D02*
X20022206Y-11774607D01*
X20022206Y-11774607D02*
X20041253Y-11765083D01*
X20041253Y-11765083D02*
X20069825Y-11765083D01*
X20069825Y-11765083D02*
X20088873Y-11774607D01*
X20336492Y-11822226D02*
X20488873Y-11822226D01*
X20412682Y-11898416D02*
X20412682Y-11746035D01*
X20822206Y-11765083D02*
X20822206Y-11898416D01*
X20774587Y-11688893D02*
X20726968Y-11831750D01*
X20726968Y-11831750D02*
X20850777Y-11831750D01*
X21069825Y-11888893D02*
X21088873Y-11898416D01*
X21088873Y-11898416D02*
X21126968Y-11898416D01*
X21126968Y-11898416D02*
X21146016Y-11888893D01*
X21146016Y-11888893D02*
X21155539Y-11869845D01*
X21155539Y-11869845D02*
X21155539Y-11860321D01*
X21155539Y-11860321D02*
X21146016Y-11841274D01*
X21146016Y-11841274D02*
X21126968Y-11831750D01*
X21126968Y-11831750D02*
X21098396Y-11831750D01*
X21098396Y-11831750D02*
X21079349Y-11822226D01*
X21079349Y-11822226D02*
X21069825Y-11803178D01*
X21069825Y-11803178D02*
X21069825Y-11793655D01*
X21069825Y-11793655D02*
X21079349Y-11774607D01*
X21079349Y-11774607D02*
X21098396Y-11765083D01*
X21098396Y-11765083D02*
X21126968Y-11765083D01*
X21126968Y-11765083D02*
X21146016Y-11774607D01*
X21269825Y-11898416D02*
X21250777Y-11888893D01*
X21250777Y-11888893D02*
X21241254Y-11869845D01*
X21241254Y-11869845D02*
X21241254Y-11698416D01*
X21374587Y-11898416D02*
X21355539Y-11888893D01*
X21355539Y-11888893D02*
X21346016Y-11879369D01*
X21346016Y-11879369D02*
X21336492Y-11860321D01*
X21336492Y-11860321D02*
X21336492Y-11803178D01*
X21336492Y-11803178D02*
X21346016Y-11784131D01*
X21346016Y-11784131D02*
X21355539Y-11774607D01*
X21355539Y-11774607D02*
X21374587Y-11765083D01*
X21374587Y-11765083D02*
X21403158Y-11765083D01*
X21403158Y-11765083D02*
X21422206Y-11774607D01*
X21422206Y-11774607D02*
X21431730Y-11784131D01*
X21431730Y-11784131D02*
X21441254Y-11803178D01*
X21441254Y-11803178D02*
X21441254Y-11860321D01*
X21441254Y-11860321D02*
X21431730Y-11879369D01*
X21431730Y-11879369D02*
X21422206Y-11888893D01*
X21422206Y-11888893D02*
X21403158Y-11898416D01*
X21403158Y-11898416D02*
X21374587Y-11898416D01*
X21498397Y-11765083D02*
X21574587Y-11765083D01*
X21526968Y-11698416D02*
X21526968Y-11869845D01*
X21526968Y-11869845D02*
X21536492Y-11888893D01*
X21536492Y-11888893D02*
X21555539Y-11898416D01*
X21555539Y-11898416D02*
X21574587Y-11898416D01*
X21631730Y-11888893D02*
X21650777Y-11898416D01*
X21650777Y-11898416D02*
X21688873Y-11898416D01*
X21688873Y-11898416D02*
X21707920Y-11888893D01*
X21707920Y-11888893D02*
X21717444Y-11869845D01*
X21717444Y-11869845D02*
X21717444Y-11860321D01*
X21717444Y-11860321D02*
X21707920Y-11841274D01*
X21707920Y-11841274D02*
X21688873Y-11831750D01*
X21688873Y-11831750D02*
X21660301Y-11831750D01*
X21660301Y-11831750D02*
X21641254Y-11822226D01*
X21641254Y-11822226D02*
X21631730Y-11803178D01*
X21631730Y-11803178D02*
X21631730Y-11793655D01*
X21631730Y-11793655D02*
X21641254Y-11774607D01*
X21641254Y-11774607D02*
X21660301Y-11765083D01*
X21660301Y-11765083D02*
X21688873Y-11765083D01*
X21688873Y-11765083D02*
X21707920Y-11774607D01*
X21784111Y-11974607D02*
X21793635Y-11965083D01*
X21793635Y-11965083D02*
X21812682Y-11936512D01*
X21812682Y-11936512D02*
X21822206Y-11917464D01*
X21822206Y-11917464D02*
X21831730Y-11888893D01*
X21831730Y-11888893D02*
X21841254Y-11841274D01*
X21841254Y-11841274D02*
X21841254Y-11803178D01*
X21841254Y-11803178D02*
X21831730Y-11755559D01*
X21831730Y-11755559D02*
X21822206Y-11726988D01*
X21822206Y-11726988D02*
X21812682Y-11707940D01*
X21812682Y-11707940D02*
X21793635Y-11679369D01*
X21793635Y-11679369D02*
X21784111Y-11669845D01*
D11*
X15340000Y-12020933D02*
X15340000Y-12120933D01*
X15290000Y-12070933D02*
X15390000Y-12070933D01*
D10*
X15755539Y-12162416D02*
X15641253Y-12162416D01*
X15698396Y-12162416D02*
X15698396Y-11962416D01*
X15698396Y-11962416D02*
X15679348Y-11990988D01*
X15679348Y-11990988D02*
X15660301Y-12010035D01*
X15660301Y-12010035D02*
X15641253Y-12019559D01*
X15841253Y-12143369D02*
X15850777Y-12152893D01*
X15850777Y-12152893D02*
X15841253Y-12162416D01*
X15841253Y-12162416D02*
X15831729Y-12152893D01*
X15831729Y-12152893D02*
X15841253Y-12143369D01*
X15841253Y-12143369D02*
X15841253Y-12162416D01*
X15974586Y-11962416D02*
X15993634Y-11962416D01*
X15993634Y-11962416D02*
X16012682Y-11971940D01*
X16012682Y-11971940D02*
X16022205Y-11981464D01*
X16022205Y-11981464D02*
X16031729Y-12000512D01*
X16031729Y-12000512D02*
X16041253Y-12038607D01*
X16041253Y-12038607D02*
X16041253Y-12086226D01*
X16041253Y-12086226D02*
X16031729Y-12124321D01*
X16031729Y-12124321D02*
X16022205Y-12143369D01*
X16022205Y-12143369D02*
X16012682Y-12152893D01*
X16012682Y-12152893D02*
X15993634Y-12162416D01*
X15993634Y-12162416D02*
X15974586Y-12162416D01*
X15974586Y-12162416D02*
X15955539Y-12152893D01*
X15955539Y-12152893D02*
X15946015Y-12143369D01*
X15946015Y-12143369D02*
X15936491Y-12124321D01*
X15936491Y-12124321D02*
X15926967Y-12086226D01*
X15926967Y-12086226D02*
X15926967Y-12038607D01*
X15926967Y-12038607D02*
X15936491Y-12000512D01*
X15936491Y-12000512D02*
X15946015Y-11981464D01*
X15946015Y-11981464D02*
X15955539Y-11971940D01*
X15955539Y-11971940D02*
X15974586Y-11962416D01*
X16165062Y-11962416D02*
X16184110Y-11962416D01*
X16184110Y-11962416D02*
X16203158Y-11971940D01*
X16203158Y-11971940D02*
X16212682Y-11981464D01*
X16212682Y-11981464D02*
X16222205Y-12000512D01*
X16222205Y-12000512D02*
X16231729Y-12038607D01*
X16231729Y-12038607D02*
X16231729Y-12086226D01*
X16231729Y-12086226D02*
X16222205Y-12124321D01*
X16222205Y-12124321D02*
X16212682Y-12143369D01*
X16212682Y-12143369D02*
X16203158Y-12152893D01*
X16203158Y-12152893D02*
X16184110Y-12162416D01*
X16184110Y-12162416D02*
X16165062Y-12162416D01*
X16165062Y-12162416D02*
X16146015Y-12152893D01*
X16146015Y-12152893D02*
X16136491Y-12143369D01*
X16136491Y-12143369D02*
X16126967Y-12124321D01*
X16126967Y-12124321D02*
X16117443Y-12086226D01*
X16117443Y-12086226D02*
X16117443Y-12038607D01*
X16117443Y-12038607D02*
X16126967Y-12000512D01*
X16126967Y-12000512D02*
X16136491Y-11981464D01*
X16136491Y-11981464D02*
X16146015Y-11971940D01*
X16146015Y-11971940D02*
X16165062Y-11962416D01*
X16355539Y-11962416D02*
X16374586Y-11962416D01*
X16374586Y-11962416D02*
X16393634Y-11971940D01*
X16393634Y-11971940D02*
X16403158Y-11981464D01*
X16403158Y-11981464D02*
X16412682Y-12000512D01*
X16412682Y-12000512D02*
X16422205Y-12038607D01*
X16422205Y-12038607D02*
X16422205Y-12086226D01*
X16422205Y-12086226D02*
X16412682Y-12124321D01*
X16412682Y-12124321D02*
X16403158Y-12143369D01*
X16403158Y-12143369D02*
X16393634Y-12152893D01*
X16393634Y-12152893D02*
X16374586Y-12162416D01*
X16374586Y-12162416D02*
X16355539Y-12162416D01*
X16355539Y-12162416D02*
X16336491Y-12152893D01*
X16336491Y-12152893D02*
X16326967Y-12143369D01*
X16326967Y-12143369D02*
X16317443Y-12124321D01*
X16317443Y-12124321D02*
X16307920Y-12086226D01*
X16307920Y-12086226D02*
X16307920Y-12038607D01*
X16307920Y-12038607D02*
X16317443Y-12000512D01*
X16317443Y-12000512D02*
X16326967Y-11981464D01*
X16326967Y-11981464D02*
X16336491Y-11971940D01*
X16336491Y-11971940D02*
X16355539Y-11962416D01*
X16507920Y-12162416D02*
X16507920Y-12029083D01*
X16507920Y-12048131D02*
X16517443Y-12038607D01*
X16517443Y-12038607D02*
X16536491Y-12029083D01*
X16536491Y-12029083D02*
X16565063Y-12029083D01*
X16565063Y-12029083D02*
X16584110Y-12038607D01*
X16584110Y-12038607D02*
X16593634Y-12057655D01*
X16593634Y-12057655D02*
X16593634Y-12162416D01*
X16593634Y-12057655D02*
X16603158Y-12038607D01*
X16603158Y-12038607D02*
X16622205Y-12029083D01*
X16622205Y-12029083D02*
X16650777Y-12029083D01*
X16650777Y-12029083D02*
X16669824Y-12038607D01*
X16669824Y-12038607D02*
X16679348Y-12057655D01*
X16679348Y-12057655D02*
X16679348Y-12162416D01*
X16774586Y-12162416D02*
X16774586Y-12029083D01*
X16774586Y-12048131D02*
X16784110Y-12038607D01*
X16784110Y-12038607D02*
X16803158Y-12029083D01*
X16803158Y-12029083D02*
X16831729Y-12029083D01*
X16831729Y-12029083D02*
X16850777Y-12038607D01*
X16850777Y-12038607D02*
X16860301Y-12057655D01*
X16860301Y-12057655D02*
X16860301Y-12162416D01*
X16860301Y-12057655D02*
X16869825Y-12038607D01*
X16869825Y-12038607D02*
X16888872Y-12029083D01*
X16888872Y-12029083D02*
X16917444Y-12029083D01*
X16917444Y-12029083D02*
X16936491Y-12038607D01*
X16936491Y-12038607D02*
X16946015Y-12057655D01*
X16946015Y-12057655D02*
X16946015Y-12162416D01*
X17336491Y-11952893D02*
X17165063Y-12210035D01*
X17593634Y-11962416D02*
X17612682Y-11962416D01*
X17612682Y-11962416D02*
X17631729Y-11971940D01*
X17631729Y-11971940D02*
X17641253Y-11981464D01*
X17641253Y-11981464D02*
X17650777Y-12000512D01*
X17650777Y-12000512D02*
X17660301Y-12038607D01*
X17660301Y-12038607D02*
X17660301Y-12086226D01*
X17660301Y-12086226D02*
X17650777Y-12124321D01*
X17650777Y-12124321D02*
X17641253Y-12143369D01*
X17641253Y-12143369D02*
X17631729Y-12152893D01*
X17631729Y-12152893D02*
X17612682Y-12162416D01*
X17612682Y-12162416D02*
X17593634Y-12162416D01*
X17593634Y-12162416D02*
X17574587Y-12152893D01*
X17574587Y-12152893D02*
X17565063Y-12143369D01*
X17565063Y-12143369D02*
X17555539Y-12124321D01*
X17555539Y-12124321D02*
X17546015Y-12086226D01*
X17546015Y-12086226D02*
X17546015Y-12038607D01*
X17546015Y-12038607D02*
X17555539Y-12000512D01*
X17555539Y-12000512D02*
X17565063Y-11981464D01*
X17565063Y-11981464D02*
X17574587Y-11971940D01*
X17574587Y-11971940D02*
X17593634Y-11962416D01*
X17746015Y-12143369D02*
X17755539Y-12152893D01*
X17755539Y-12152893D02*
X17746015Y-12162416D01*
X17746015Y-12162416D02*
X17736491Y-12152893D01*
X17736491Y-12152893D02*
X17746015Y-12143369D01*
X17746015Y-12143369D02*
X17746015Y-12162416D01*
X17879348Y-11962416D02*
X17898396Y-11962416D01*
X17898396Y-11962416D02*
X17917444Y-11971940D01*
X17917444Y-11971940D02*
X17926968Y-11981464D01*
X17926968Y-11981464D02*
X17936491Y-12000512D01*
X17936491Y-12000512D02*
X17946015Y-12038607D01*
X17946015Y-12038607D02*
X17946015Y-12086226D01*
X17946015Y-12086226D02*
X17936491Y-12124321D01*
X17936491Y-12124321D02*
X17926968Y-12143369D01*
X17926968Y-12143369D02*
X17917444Y-12152893D01*
X17917444Y-12152893D02*
X17898396Y-12162416D01*
X17898396Y-12162416D02*
X17879348Y-12162416D01*
X17879348Y-12162416D02*
X17860301Y-12152893D01*
X17860301Y-12152893D02*
X17850777Y-12143369D01*
X17850777Y-12143369D02*
X17841253Y-12124321D01*
X17841253Y-12124321D02*
X17831729Y-12086226D01*
X17831729Y-12086226D02*
X17831729Y-12038607D01*
X17831729Y-12038607D02*
X17841253Y-12000512D01*
X17841253Y-12000512D02*
X17850777Y-11981464D01*
X17850777Y-11981464D02*
X17860301Y-11971940D01*
X17860301Y-11971940D02*
X17879348Y-11962416D01*
X18012682Y-11962416D02*
X18136491Y-11962416D01*
X18136491Y-11962416D02*
X18069825Y-12038607D01*
X18069825Y-12038607D02*
X18098396Y-12038607D01*
X18098396Y-12038607D02*
X18117444Y-12048131D01*
X18117444Y-12048131D02*
X18126968Y-12057655D01*
X18126968Y-12057655D02*
X18136491Y-12076702D01*
X18136491Y-12076702D02*
X18136491Y-12124321D01*
X18136491Y-12124321D02*
X18126968Y-12143369D01*
X18126968Y-12143369D02*
X18117444Y-12152893D01*
X18117444Y-12152893D02*
X18098396Y-12162416D01*
X18098396Y-12162416D02*
X18041253Y-12162416D01*
X18041253Y-12162416D02*
X18022206Y-12152893D01*
X18022206Y-12152893D02*
X18012682Y-12143369D01*
X18231729Y-12162416D02*
X18269825Y-12162416D01*
X18269825Y-12162416D02*
X18288872Y-12152893D01*
X18288872Y-12152893D02*
X18298396Y-12143369D01*
X18298396Y-12143369D02*
X18317444Y-12114797D01*
X18317444Y-12114797D02*
X18326968Y-12076702D01*
X18326968Y-12076702D02*
X18326968Y-12000512D01*
X18326968Y-12000512D02*
X18317444Y-11981464D01*
X18317444Y-11981464D02*
X18307920Y-11971940D01*
X18307920Y-11971940D02*
X18288872Y-11962416D01*
X18288872Y-11962416D02*
X18250777Y-11962416D01*
X18250777Y-11962416D02*
X18231729Y-11971940D01*
X18231729Y-11971940D02*
X18222206Y-11981464D01*
X18222206Y-11981464D02*
X18212682Y-12000512D01*
X18212682Y-12000512D02*
X18212682Y-12048131D01*
X18212682Y-12048131D02*
X18222206Y-12067178D01*
X18222206Y-12067178D02*
X18231729Y-12076702D01*
X18231729Y-12076702D02*
X18250777Y-12086226D01*
X18250777Y-12086226D02*
X18288872Y-12086226D01*
X18288872Y-12086226D02*
X18307920Y-12076702D01*
X18307920Y-12076702D02*
X18317444Y-12067178D01*
X18317444Y-12067178D02*
X18326968Y-12048131D01*
X18498396Y-12029083D02*
X18498396Y-12162416D01*
X18450777Y-11952893D02*
X18403158Y-12095750D01*
X18403158Y-12095750D02*
X18526968Y-12095750D01*
X18593634Y-11962416D02*
X18593634Y-12000512D01*
X18669825Y-11962416D02*
X18669825Y-12000512D01*
X18965063Y-12238607D02*
X18955539Y-12229083D01*
X18955539Y-12229083D02*
X18936491Y-12200512D01*
X18936491Y-12200512D02*
X18926968Y-12181464D01*
X18926968Y-12181464D02*
X18917444Y-12152893D01*
X18917444Y-12152893D02*
X18907920Y-12105274D01*
X18907920Y-12105274D02*
X18907920Y-12067178D01*
X18907920Y-12067178D02*
X18917444Y-12019559D01*
X18917444Y-12019559D02*
X18926968Y-11990988D01*
X18926968Y-11990988D02*
X18936491Y-11971940D01*
X18936491Y-11971940D02*
X18955539Y-11943369D01*
X18955539Y-11943369D02*
X18965063Y-11933845D01*
X19022206Y-11962416D02*
X19155539Y-11962416D01*
X19155539Y-11962416D02*
X19069825Y-12162416D01*
X19384111Y-12162416D02*
X19384111Y-11962416D01*
X19469825Y-12162416D02*
X19469825Y-12057655D01*
X19469825Y-12057655D02*
X19460301Y-12038607D01*
X19460301Y-12038607D02*
X19441253Y-12029083D01*
X19441253Y-12029083D02*
X19412682Y-12029083D01*
X19412682Y-12029083D02*
X19393634Y-12038607D01*
X19393634Y-12038607D02*
X19384111Y-12048131D01*
X19593634Y-12162416D02*
X19574587Y-12152893D01*
X19574587Y-12152893D02*
X19565063Y-12143369D01*
X19565063Y-12143369D02*
X19555539Y-12124321D01*
X19555539Y-12124321D02*
X19555539Y-12067178D01*
X19555539Y-12067178D02*
X19565063Y-12048131D01*
X19565063Y-12048131D02*
X19574587Y-12038607D01*
X19574587Y-12038607D02*
X19593634Y-12029083D01*
X19593634Y-12029083D02*
X19622206Y-12029083D01*
X19622206Y-12029083D02*
X19641253Y-12038607D01*
X19641253Y-12038607D02*
X19650777Y-12048131D01*
X19650777Y-12048131D02*
X19660301Y-12067178D01*
X19660301Y-12067178D02*
X19660301Y-12124321D01*
X19660301Y-12124321D02*
X19650777Y-12143369D01*
X19650777Y-12143369D02*
X19641253Y-12152893D01*
X19641253Y-12152893D02*
X19622206Y-12162416D01*
X19622206Y-12162416D02*
X19593634Y-12162416D01*
X19774587Y-12162416D02*
X19755539Y-12152893D01*
X19755539Y-12152893D02*
X19746015Y-12133845D01*
X19746015Y-12133845D02*
X19746015Y-11962416D01*
X19926968Y-12152893D02*
X19907920Y-12162416D01*
X19907920Y-12162416D02*
X19869825Y-12162416D01*
X19869825Y-12162416D02*
X19850777Y-12152893D01*
X19850777Y-12152893D02*
X19841253Y-12133845D01*
X19841253Y-12133845D02*
X19841253Y-12057655D01*
X19841253Y-12057655D02*
X19850777Y-12038607D01*
X19850777Y-12038607D02*
X19869825Y-12029083D01*
X19869825Y-12029083D02*
X19907920Y-12029083D01*
X19907920Y-12029083D02*
X19926968Y-12038607D01*
X19926968Y-12038607D02*
X19936492Y-12057655D01*
X19936492Y-12057655D02*
X19936492Y-12076702D01*
X19936492Y-12076702D02*
X19841253Y-12095750D01*
X20012682Y-12152893D02*
X20031730Y-12162416D01*
X20031730Y-12162416D02*
X20069825Y-12162416D01*
X20069825Y-12162416D02*
X20088873Y-12152893D01*
X20088873Y-12152893D02*
X20098396Y-12133845D01*
X20098396Y-12133845D02*
X20098396Y-12124321D01*
X20098396Y-12124321D02*
X20088873Y-12105274D01*
X20088873Y-12105274D02*
X20069825Y-12095750D01*
X20069825Y-12095750D02*
X20041253Y-12095750D01*
X20041253Y-12095750D02*
X20022206Y-12086226D01*
X20022206Y-12086226D02*
X20012682Y-12067178D01*
X20012682Y-12067178D02*
X20012682Y-12057655D01*
X20012682Y-12057655D02*
X20022206Y-12038607D01*
X20022206Y-12038607D02*
X20041253Y-12029083D01*
X20041253Y-12029083D02*
X20069825Y-12029083D01*
X20069825Y-12029083D02*
X20088873Y-12038607D01*
X20165063Y-12238607D02*
X20174587Y-12229083D01*
X20174587Y-12229083D02*
X20193634Y-12200512D01*
X20193634Y-12200512D02*
X20203158Y-12181464D01*
X20203158Y-12181464D02*
X20212682Y-12152893D01*
X20212682Y-12152893D02*
X20222206Y-12105274D01*
X20222206Y-12105274D02*
X20222206Y-12067178D01*
X20222206Y-12067178D02*
X20212682Y-12019559D01*
X20212682Y-12019559D02*
X20203158Y-11990988D01*
X20203158Y-11990988D02*
X20193634Y-11971940D01*
X20193634Y-11971940D02*
X20174587Y-11943369D01*
X20174587Y-11943369D02*
X20165063Y-11933845D01*
M02*
