G04 #@! TF.GenerationSoftware,KiCad,Pcbnew,8.0.1*
G04 #@! TF.CreationDate,2025-06-08T13:02:34-04:00*
G04 #@! TF.ProjectId,Topaz,546f7061-7a2e-46b6-9963-61645f706362,rev?*
G04 #@! TF.SameCoordinates,Original*
G04 #@! TF.FileFunction,Soldermask,Top*
G04 #@! TF.FilePolarity,Negative*
%FSLAX46Y46*%
G04 Gerber Fmt 4.6, Leading zero omitted, Abs format (unit mm)*
G04 Created by KiCad (PCBNEW 8.0.1) date 2025-06-08 13:02:34*
%MOMM*%
%LPD*%
G01*
G04 APERTURE LIST*
G04 Aperture macros list*
%AMRoundRect*
0 Rectangle with rounded corners*
0 $1 Rounding radius*
0 $2 $3 $4 $5 $6 $7 $8 $9 X,Y pos of 4 corners*
0 Add a 4 corners polygon primitive as box body*
4,1,4,$2,$3,$4,$5,$6,$7,$8,$9,$2,$3,0*
0 Add four circle primitives for the rounded corners*
1,1,$1+$1,$2,$3*
1,1,$1+$1,$4,$5*
1,1,$1+$1,$6,$7*
1,1,$1+$1,$8,$9*
0 Add four rect primitives between the rounded corners*
20,1,$1+$1,$2,$3,$4,$5,0*
20,1,$1+$1,$4,$5,$6,$7,0*
20,1,$1+$1,$6,$7,$8,$9,0*
20,1,$1+$1,$8,$9,$2,$3,0*%
G04 Aperture macros list end*
%ADD10C,2.100000*%
%ADD11R,1.800000X0.800000*%
%ADD12RoundRect,0.160000X-0.160000X0.222500X-0.160000X-0.222500X0.160000X-0.222500X0.160000X0.222500X0*%
%ADD13RoundRect,0.155000X0.155000X-0.212500X0.155000X0.212500X-0.155000X0.212500X-0.155000X-0.212500X0*%
%ADD14RoundRect,0.155000X-0.212500X-0.155000X0.212500X-0.155000X0.212500X0.155000X-0.212500X0.155000X0*%
%ADD15R,1.168400X2.209800*%
%ADD16RoundRect,0.160000X-0.160000X0.197500X-0.160000X-0.197500X0.160000X-0.197500X0.160000X0.197500X0*%
%ADD17RoundRect,0.140000X0.140000X0.170000X-0.140000X0.170000X-0.140000X-0.170000X0.140000X-0.170000X0*%
%ADD18RoundRect,0.135000X0.135000X0.185000X-0.135000X0.185000X-0.135000X-0.185000X0.135000X-0.185000X0*%
%ADD19RoundRect,0.140000X-0.170000X0.140000X-0.170000X-0.140000X0.170000X-0.140000X0.170000X0.140000X0*%
%ADD20RoundRect,0.147500X-0.172500X0.147500X-0.172500X-0.147500X0.172500X-0.147500X0.172500X0.147500X0*%
%ADD21RoundRect,0.075000X0.075000X-0.225000X0.075000X0.225000X-0.075000X0.225000X-0.075000X-0.225000X0*%
%ADD22RoundRect,0.075000X0.237500X-0.075000X0.237500X0.075000X-0.237500X0.075000X-0.237500X-0.075000X0*%
%ADD23RoundRect,0.160000X-0.197500X-0.160000X0.197500X-0.160000X0.197500X0.160000X-0.197500X0.160000X0*%
%ADD24RoundRect,0.102000X-0.750000X1.750000X-0.750000X-1.750000X0.750000X-1.750000X0.750000X1.750000X0*%
%ADD25RoundRect,0.250000X0.475000X-0.250000X0.475000X0.250000X-0.475000X0.250000X-0.475000X-0.250000X0*%
%ADD26RoundRect,0.140000X-0.140000X-0.170000X0.140000X-0.170000X0.140000X0.170000X-0.140000X0.170000X0*%
%ADD27RoundRect,0.155000X-0.155000X0.212500X-0.155000X-0.212500X0.155000X-0.212500X0.155000X0.212500X0*%
%ADD28RoundRect,0.075500X0.226500X-0.476500X0.226500X0.476500X-0.226500X0.476500X-0.226500X-0.476500X0*%
%ADD29RoundRect,0.140000X0.170000X-0.140000X0.170000X0.140000X-0.170000X0.140000X-0.170000X-0.140000X0*%
%ADD30RoundRect,0.135000X-0.185000X0.135000X-0.185000X-0.135000X0.185000X-0.135000X0.185000X0.135000X0*%
%ADD31RoundRect,0.062500X-0.350000X-0.062500X0.350000X-0.062500X0.350000X0.062500X-0.350000X0.062500X0*%
%ADD32RoundRect,0.062500X-0.062500X-0.350000X0.062500X-0.350000X0.062500X0.350000X-0.062500X0.350000X0*%
%ADD33R,2.600000X2.600000*%
%ADD34RoundRect,0.155000X0.212500X0.155000X-0.212500X0.155000X-0.212500X-0.155000X0.212500X-0.155000X0*%
%ADD35RoundRect,0.075000X0.662500X0.075000X-0.662500X0.075000X-0.662500X-0.075000X0.662500X-0.075000X0*%
%ADD36RoundRect,0.075000X0.075000X0.662500X-0.075000X0.662500X-0.075000X-0.662500X0.075000X-0.662500X0*%
%ADD37RoundRect,0.099400X-0.397600X0.447600X-0.397600X-0.447600X0.397600X-0.447600X0.397600X0.447600X0*%
%ADD38RoundRect,0.147500X0.147500X0.172500X-0.147500X0.172500X-0.147500X-0.172500X0.147500X-0.172500X0*%
%ADD39RoundRect,0.160000X0.160000X-0.197500X0.160000X0.197500X-0.160000X0.197500X-0.160000X-0.197500X0*%
%ADD40O,1.700000X1.700000*%
%ADD41R,1.700000X1.700000*%
%ADD42RoundRect,0.102000X0.350000X-0.425000X0.350000X0.425000X-0.350000X0.425000X-0.350000X-0.425000X0*%
%ADD43R,1.250000X1.000000*%
%ADD44RoundRect,0.147500X0.172500X-0.147500X0.172500X0.147500X-0.172500X0.147500X-0.172500X-0.147500X0*%
%ADD45RoundRect,0.150000X-0.150000X-0.200000X0.150000X-0.200000X0.150000X0.200000X-0.150000X0.200000X0*%
%ADD46R,0.350000X0.500000*%
%ADD47C,0.650000*%
%ADD48RoundRect,0.150000X-0.425000X0.150000X-0.425000X-0.150000X0.425000X-0.150000X0.425000X0.150000X0*%
%ADD49RoundRect,0.075000X-0.500000X0.075000X-0.500000X-0.075000X0.500000X-0.075000X0.500000X0.075000X0*%
%ADD50O,2.100000X1.000000*%
%ADD51O,1.800000X1.000000*%
%ADD52RoundRect,0.160000X0.197500X0.160000X-0.197500X0.160000X-0.197500X-0.160000X0.197500X-0.160000X0*%
%ADD53RoundRect,0.375000X-0.625000X-0.375000X0.625000X-0.375000X0.625000X0.375000X-0.625000X0.375000X0*%
%ADD54RoundRect,0.500000X-0.500000X-1.400000X0.500000X-1.400000X0.500000X1.400000X-0.500000X1.400000X0*%
G04 APERTURE END LIST*
D10*
X2375000Y-2375000D03*
D11*
X167500000Y-107200000D03*
X167500000Y-106100000D03*
X167500000Y-105000000D03*
X167500000Y-103900000D03*
X167500000Y-102800000D03*
X167500000Y-101700000D03*
X167500000Y-100600000D03*
X167500000Y-99500000D03*
X167500000Y-98400000D03*
X158185000Y-98400000D03*
X158185000Y-99500000D03*
X158185000Y-100600000D03*
X158185000Y-101700000D03*
X158185000Y-102800000D03*
X158185000Y-103900000D03*
X158185000Y-105000000D03*
X158185000Y-106100000D03*
X158185000Y-107200000D03*
D12*
X170856596Y-106723050D03*
X170856596Y-107868050D03*
X174268339Y-106735829D03*
X174268339Y-107880829D03*
D13*
X169500000Y-100637538D03*
X169500000Y-99502538D03*
X170486991Y-100642630D03*
X170486991Y-99507630D03*
D14*
X171974425Y-107906443D03*
X173109425Y-107906443D03*
D15*
X182865500Y-107000000D03*
X176134500Y-107000000D03*
D16*
X163000000Y-79902500D03*
X163000000Y-81097500D03*
D17*
X171575556Y-44835393D03*
X170615556Y-44835393D03*
D18*
X171000000Y-85500000D03*
X169980000Y-85500000D03*
D19*
X173363907Y-47120589D03*
X173363907Y-48080589D03*
D14*
X173546743Y-84014938D03*
X174681743Y-84014938D03*
D20*
X170000000Y-55246201D03*
X170000000Y-56216201D03*
D21*
X170750000Y-54200000D03*
X171250000Y-54200000D03*
X171750000Y-54200000D03*
X172250000Y-54200000D03*
D22*
X172562500Y-53500000D03*
D21*
X172250000Y-52800000D03*
X171750000Y-52800000D03*
X171250000Y-52800000D03*
X170750000Y-52800000D03*
D22*
X170437500Y-53500000D03*
D23*
X158402500Y-70500000D03*
X159597500Y-70500000D03*
D24*
X174266373Y-38837975D03*
X171566373Y-38837975D03*
X168866373Y-38837975D03*
D25*
X182000000Y-84450000D03*
X182000000Y-82550000D03*
D26*
X171020000Y-64747409D03*
X171980000Y-64747409D03*
X169020000Y-58140985D03*
X169980000Y-58140985D03*
D27*
X172500000Y-82865000D03*
X172500000Y-84000000D03*
D28*
X170932096Y-50276849D03*
X171582096Y-50276849D03*
X172232096Y-50276849D03*
X172232096Y-48076849D03*
X171582096Y-48076849D03*
X170932096Y-48076849D03*
D14*
X178089579Y-78432384D03*
X179224579Y-78432384D03*
D10*
X158500000Y-39000000D03*
D29*
X171572341Y-46801272D03*
X171572341Y-45841272D03*
D30*
X174378902Y-48085242D03*
X174378902Y-49105242D03*
D31*
X169625000Y-60000000D03*
X169625000Y-60500000D03*
X169625000Y-61000000D03*
X169625000Y-61500000D03*
X169625000Y-62000000D03*
X169625000Y-62500000D03*
D32*
X170312500Y-63187500D03*
X170812500Y-63187500D03*
X171312500Y-63187500D03*
X171812500Y-63187500D03*
X172312500Y-63187500D03*
X172812500Y-63187500D03*
D31*
X173500000Y-62500000D03*
X173500000Y-62000000D03*
X173500000Y-61500000D03*
X173500000Y-61000000D03*
X173500000Y-60500000D03*
X173500000Y-60000000D03*
D32*
X172812500Y-59312500D03*
X172312500Y-59312500D03*
X171812500Y-59312500D03*
X171312500Y-59312500D03*
X170812500Y-59312500D03*
X170312500Y-59312500D03*
D33*
X171562500Y-61250000D03*
D26*
X171000970Y-65727634D03*
X171960970Y-65727634D03*
D34*
X163282857Y-89911817D03*
X162147857Y-89911817D03*
D35*
X176412500Y-79912500D03*
X176412500Y-79412500D03*
X176412500Y-78912500D03*
X176412500Y-78412500D03*
X176412500Y-77912500D03*
X176412500Y-77412500D03*
X176412500Y-76912500D03*
X176412500Y-76412500D03*
X176412500Y-75912500D03*
X176412500Y-75412500D03*
X176412500Y-74912500D03*
X176412500Y-74412500D03*
D36*
X175000000Y-73000000D03*
X174500000Y-73000000D03*
X174000000Y-73000000D03*
X173500000Y-73000000D03*
X173000000Y-73000000D03*
X172500000Y-73000000D03*
X172000000Y-73000000D03*
X171500000Y-73000000D03*
X171000000Y-73000000D03*
X170500000Y-73000000D03*
X170000000Y-73000000D03*
X169500000Y-73000000D03*
D35*
X168087500Y-74412500D03*
X168087500Y-74912500D03*
X168087500Y-75412500D03*
X168087500Y-75912500D03*
X168087500Y-76412500D03*
X168087500Y-76912500D03*
X168087500Y-77412500D03*
X168087500Y-77912500D03*
X168087500Y-78412500D03*
X168087500Y-78912500D03*
X168087500Y-79412500D03*
X168087500Y-79912500D03*
D36*
X169500000Y-81325000D03*
X170000000Y-81325000D03*
X170500000Y-81325000D03*
X171000000Y-81325000D03*
X171500000Y-81325000D03*
X172000000Y-81325000D03*
X172500000Y-81325000D03*
X173000000Y-81325000D03*
X173500000Y-81325000D03*
X174000000Y-81325000D03*
X174500000Y-81325000D03*
X175000000Y-81325000D03*
D20*
X169961020Y-64760267D03*
X169961020Y-65730267D03*
D37*
X165000000Y-62500000D03*
X165000000Y-63930000D03*
X166130000Y-63930000D03*
X166130000Y-62500000D03*
D38*
X172985000Y-85500000D03*
X172015000Y-85500000D03*
D39*
X159500000Y-64597500D03*
X159500000Y-63402500D03*
D40*
X182500000Y-75660000D03*
X182500000Y-73120000D03*
X182500000Y-70580000D03*
X182500000Y-68040000D03*
D41*
X182500000Y-65500000D03*
D42*
X177405767Y-83695588D03*
X177405767Y-82245588D03*
X176405767Y-82245588D03*
X176405767Y-83695588D03*
D23*
X160902500Y-70500000D03*
X162097500Y-70500000D03*
D43*
X168471443Y-68345995D03*
X176221443Y-68345995D03*
D23*
X176305000Y-72000000D03*
X177500000Y-72000000D03*
D44*
X171585607Y-43720488D03*
X171585607Y-42750488D03*
D45*
X159985894Y-92463015D03*
X158585894Y-92463015D03*
D26*
X160520000Y-64500000D03*
X161480000Y-64500000D03*
D17*
X171577111Y-41673144D03*
X170617111Y-41673144D03*
D26*
X167520000Y-60000000D03*
X168480000Y-60000000D03*
D16*
X162930078Y-83399212D03*
X162930078Y-84594212D03*
D30*
X168759660Y-48081644D03*
X168759660Y-49101644D03*
D46*
X161475000Y-68025000D03*
X160825000Y-68025000D03*
X160175000Y-68025000D03*
X159525000Y-68025000D03*
X159525000Y-65975000D03*
X160175000Y-65975000D03*
X160825000Y-65975000D03*
X161475000Y-65975000D03*
D10*
X181500000Y-97500000D03*
D19*
X169774808Y-47126496D03*
X169774808Y-48086496D03*
D25*
X170500000Y-90950000D03*
X170500000Y-89050000D03*
D10*
X181500000Y-39000000D03*
D26*
X169020000Y-57171566D03*
X169980000Y-57171566D03*
D47*
X160213452Y-80109646D03*
X160213452Y-85889646D03*
D48*
X161288452Y-79799646D03*
X161288452Y-80599646D03*
D49*
X161288452Y-81749646D03*
X161288452Y-82749646D03*
X161288452Y-83249646D03*
X161288452Y-84249646D03*
D48*
X161288452Y-85399646D03*
X161288452Y-86199646D03*
X161288452Y-86199646D03*
X161288452Y-85399646D03*
D49*
X161288452Y-84749646D03*
X161288452Y-83749646D03*
X161288452Y-82249646D03*
X161288452Y-81249646D03*
D48*
X161288452Y-80599646D03*
X161288452Y-79799646D03*
D50*
X160713452Y-78679646D03*
D51*
X156533452Y-78679646D03*
D50*
X160713452Y-87319646D03*
D51*
X156533452Y-87319646D03*
D14*
X178071501Y-77415025D03*
X179206501Y-77415025D03*
D23*
X162111277Y-88870574D03*
X163306277Y-88870574D03*
D52*
X162597500Y-69500000D03*
X161402500Y-69500000D03*
D27*
X178679447Y-82247291D03*
X178679447Y-83382291D03*
D45*
X166864124Y-85410598D03*
X165464124Y-85410598D03*
D41*
X156000000Y-95000000D03*
D40*
X156000000Y-92460000D03*
D53*
X176350000Y-86700000D03*
X176350000Y-89000000D03*
D54*
X182650000Y-89000000D03*
D53*
X176350000Y-91300000D03*
M02*
