%TF.GenerationSoftware,KiCad,Pcbnew,8.0.1*%
%TF.CreationDate,2025-06-08T13:02:29-04:00*%
%TF.ProjectId,Topaz,546f7061-7a2e-46b6-9963-61645f706362,rev?*%
%TF.SameCoordinates,Original*%
%TF.FileFunction,Drillmap*%
%TF.FilePolarity,Positive*%
%FSLAX45Y45*%
G04 Gerber Fmt 4.5, Leading zero omitted, Abs format (unit mm)*
G04 Created by KiCad (PCBNEW 8.0.1) date 2025-06-08 13:02:29*
%MOMM*%
%LPD*%
G01*
G04 APERTURE LIST*
%ADD10C,0.200000*%
%ADD11C,0.100000*%
%ADD12C,0.210000*%
G04 APERTURE END LIST*
D10*
X15400000Y-3600000D02*
X18450000Y-3600000D01*
X18450000Y-10892933D01*
X15400000Y-10892933D01*
X15400000Y-3600000D01*
D11*
X15988845Y-7978465D02*
X16053845Y-8043465D01*
X16053845Y-7978465D02*
X15988845Y-8043465D01*
X15988845Y-8556465D02*
X16053845Y-8621465D01*
X16053845Y-8556465D02*
X15988845Y-8621465D01*
D12*
X342500Y-237500D02*
G75*
G02*
X132500Y-237500I-105000J0D01*
G01*
X132500Y-237500D02*
G75*
G02*
X342500Y-237500I105000J0D01*
G01*
X15955000Y-3900000D02*
G75*
G02*
X15745000Y-3900000I-105000J0D01*
G01*
X15745000Y-3900000D02*
G75*
G02*
X15955000Y-3900000I105000J0D01*
G01*
X18255000Y-3900000D02*
G75*
G02*
X18045000Y-3900000I-105000J0D01*
G01*
X18045000Y-3900000D02*
G75*
G02*
X18255000Y-3900000I105000J0D01*
G01*
X18255000Y-9750000D02*
G75*
G02*
X18045000Y-9750000I-105000J0D01*
G01*
X18045000Y-9750000D02*
G75*
G02*
X18255000Y-9750000I105000J0D01*
G01*
D10*
X15650777Y-11214416D02*
X15650777Y-11014417D01*
X15650777Y-11014417D02*
X15698396Y-11014417D01*
X15698396Y-11014417D02*
X15726967Y-11023940D01*
X15726967Y-11023940D02*
X15746015Y-11042988D01*
X15746015Y-11042988D02*
X15755539Y-11062036D01*
X15755539Y-11062036D02*
X15765062Y-11100131D01*
X15765062Y-11100131D02*
X15765062Y-11128702D01*
X15765062Y-11128702D02*
X15755539Y-11166797D01*
X15755539Y-11166797D02*
X15746015Y-11185845D01*
X15746015Y-11185845D02*
X15726967Y-11204893D01*
X15726967Y-11204893D02*
X15698396Y-11214416D01*
X15698396Y-11214416D02*
X15650777Y-11214416D01*
X15850777Y-11214416D02*
X15850777Y-11081083D01*
X15850777Y-11119178D02*
X15860301Y-11100131D01*
X15860301Y-11100131D02*
X15869824Y-11090607D01*
X15869824Y-11090607D02*
X15888872Y-11081083D01*
X15888872Y-11081083D02*
X15907920Y-11081083D01*
X15974586Y-11214416D02*
X15974586Y-11081083D01*
X15974586Y-11014417D02*
X15965062Y-11023940D01*
X15965062Y-11023940D02*
X15974586Y-11033464D01*
X15974586Y-11033464D02*
X15984110Y-11023940D01*
X15984110Y-11023940D02*
X15974586Y-11014417D01*
X15974586Y-11014417D02*
X15974586Y-11033464D01*
X16098396Y-11214416D02*
X16079348Y-11204893D01*
X16079348Y-11204893D02*
X16069824Y-11185845D01*
X16069824Y-11185845D02*
X16069824Y-11014417D01*
X16203158Y-11214416D02*
X16184110Y-11204893D01*
X16184110Y-11204893D02*
X16174586Y-11185845D01*
X16174586Y-11185845D02*
X16174586Y-11014417D01*
X16431729Y-11214416D02*
X16431729Y-11014417D01*
X16431729Y-11014417D02*
X16498396Y-11157274D01*
X16498396Y-11157274D02*
X16565062Y-11014417D01*
X16565062Y-11014417D02*
X16565062Y-11214416D01*
X16746015Y-11214416D02*
X16746015Y-11109655D01*
X16746015Y-11109655D02*
X16736491Y-11090607D01*
X16736491Y-11090607D02*
X16717443Y-11081083D01*
X16717443Y-11081083D02*
X16679348Y-11081083D01*
X16679348Y-11081083D02*
X16660301Y-11090607D01*
X16746015Y-11204893D02*
X16726967Y-11214416D01*
X16726967Y-11214416D02*
X16679348Y-11214416D01*
X16679348Y-11214416D02*
X16660301Y-11204893D01*
X16660301Y-11204893D02*
X16650777Y-11185845D01*
X16650777Y-11185845D02*
X16650777Y-11166797D01*
X16650777Y-11166797D02*
X16660301Y-11147750D01*
X16660301Y-11147750D02*
X16679348Y-11138226D01*
X16679348Y-11138226D02*
X16726967Y-11138226D01*
X16726967Y-11138226D02*
X16746015Y-11128702D01*
X16841253Y-11081083D02*
X16841253Y-11281083D01*
X16841253Y-11090607D02*
X16860301Y-11081083D01*
X16860301Y-11081083D02*
X16898396Y-11081083D01*
X16898396Y-11081083D02*
X16917444Y-11090607D01*
X16917444Y-11090607D02*
X16926967Y-11100131D01*
X16926967Y-11100131D02*
X16936491Y-11119178D01*
X16936491Y-11119178D02*
X16936491Y-11176321D01*
X16936491Y-11176321D02*
X16926967Y-11195369D01*
X16926967Y-11195369D02*
X16917444Y-11204893D01*
X16917444Y-11204893D02*
X16898396Y-11214416D01*
X16898396Y-11214416D02*
X16860301Y-11214416D01*
X16860301Y-11214416D02*
X16841253Y-11204893D01*
X17022205Y-11195369D02*
X17031729Y-11204893D01*
X17031729Y-11204893D02*
X17022205Y-11214416D01*
X17022205Y-11214416D02*
X17012682Y-11204893D01*
X17012682Y-11204893D02*
X17022205Y-11195369D01*
X17022205Y-11195369D02*
X17022205Y-11214416D01*
X17022205Y-11090607D02*
X17031729Y-11100131D01*
X17031729Y-11100131D02*
X17022205Y-11109655D01*
X17022205Y-11109655D02*
X17012682Y-11100131D01*
X17012682Y-11100131D02*
X17022205Y-11090607D01*
X17022205Y-11090607D02*
X17022205Y-11109655D01*
D11*
X15325000Y-11510433D02*
X15390000Y-11575433D01*
X15390000Y-11510433D02*
X15325000Y-11575433D01*
D10*
X15688872Y-11434416D02*
X15707920Y-11434416D01*
X15707920Y-11434416D02*
X15726967Y-11443940D01*
X15726967Y-11443940D02*
X15736491Y-11453464D01*
X15736491Y-11453464D02*
X15746015Y-11472512D01*
X15746015Y-11472512D02*
X15755539Y-11510607D01*
X15755539Y-11510607D02*
X15755539Y-11558226D01*
X15755539Y-11558226D02*
X15746015Y-11596321D01*
X15746015Y-11596321D02*
X15736491Y-11615369D01*
X15736491Y-11615369D02*
X15726967Y-11624893D01*
X15726967Y-11624893D02*
X15707920Y-11634416D01*
X15707920Y-11634416D02*
X15688872Y-11634416D01*
X15688872Y-11634416D02*
X15669824Y-11624893D01*
X15669824Y-11624893D02*
X15660301Y-11615369D01*
X15660301Y-11615369D02*
X15650777Y-11596321D01*
X15650777Y-11596321D02*
X15641253Y-11558226D01*
X15641253Y-11558226D02*
X15641253Y-11510607D01*
X15641253Y-11510607D02*
X15650777Y-11472512D01*
X15650777Y-11472512D02*
X15660301Y-11453464D01*
X15660301Y-11453464D02*
X15669824Y-11443940D01*
X15669824Y-11443940D02*
X15688872Y-11434416D01*
X15841253Y-11615369D02*
X15850777Y-11624893D01*
X15850777Y-11624893D02*
X15841253Y-11634416D01*
X15841253Y-11634416D02*
X15831729Y-11624893D01*
X15831729Y-11624893D02*
X15841253Y-11615369D01*
X15841253Y-11615369D02*
X15841253Y-11634416D01*
X16022205Y-11434416D02*
X15984110Y-11434416D01*
X15984110Y-11434416D02*
X15965062Y-11443940D01*
X15965062Y-11443940D02*
X15955539Y-11453464D01*
X15955539Y-11453464D02*
X15936491Y-11482035D01*
X15936491Y-11482035D02*
X15926967Y-11520131D01*
X15926967Y-11520131D02*
X15926967Y-11596321D01*
X15926967Y-11596321D02*
X15936491Y-11615369D01*
X15936491Y-11615369D02*
X15946015Y-11624893D01*
X15946015Y-11624893D02*
X15965062Y-11634416D01*
X15965062Y-11634416D02*
X16003158Y-11634416D01*
X16003158Y-11634416D02*
X16022205Y-11624893D01*
X16022205Y-11624893D02*
X16031729Y-11615369D01*
X16031729Y-11615369D02*
X16041253Y-11596321D01*
X16041253Y-11596321D02*
X16041253Y-11548702D01*
X16041253Y-11548702D02*
X16031729Y-11529655D01*
X16031729Y-11529655D02*
X16022205Y-11520131D01*
X16022205Y-11520131D02*
X16003158Y-11510607D01*
X16003158Y-11510607D02*
X15965062Y-11510607D01*
X15965062Y-11510607D02*
X15946015Y-11520131D01*
X15946015Y-11520131D02*
X15936491Y-11529655D01*
X15936491Y-11529655D02*
X15926967Y-11548702D01*
X16222205Y-11434416D02*
X16126967Y-11434416D01*
X16126967Y-11434416D02*
X16117443Y-11529655D01*
X16117443Y-11529655D02*
X16126967Y-11520131D01*
X16126967Y-11520131D02*
X16146015Y-11510607D01*
X16146015Y-11510607D02*
X16193634Y-11510607D01*
X16193634Y-11510607D02*
X16212682Y-11520131D01*
X16212682Y-11520131D02*
X16222205Y-11529655D01*
X16222205Y-11529655D02*
X16231729Y-11548702D01*
X16231729Y-11548702D02*
X16231729Y-11596321D01*
X16231729Y-11596321D02*
X16222205Y-11615369D01*
X16222205Y-11615369D02*
X16212682Y-11624893D01*
X16212682Y-11624893D02*
X16193634Y-11634416D01*
X16193634Y-11634416D02*
X16146015Y-11634416D01*
X16146015Y-11634416D02*
X16126967Y-11624893D01*
X16126967Y-11624893D02*
X16117443Y-11615369D01*
X16355539Y-11434416D02*
X16374586Y-11434416D01*
X16374586Y-11434416D02*
X16393634Y-11443940D01*
X16393634Y-11443940D02*
X16403158Y-11453464D01*
X16403158Y-11453464D02*
X16412682Y-11472512D01*
X16412682Y-11472512D02*
X16422205Y-11510607D01*
X16422205Y-11510607D02*
X16422205Y-11558226D01*
X16422205Y-11558226D02*
X16412682Y-11596321D01*
X16412682Y-11596321D02*
X16403158Y-11615369D01*
X16403158Y-11615369D02*
X16393634Y-11624893D01*
X16393634Y-11624893D02*
X16374586Y-11634416D01*
X16374586Y-11634416D02*
X16355539Y-11634416D01*
X16355539Y-11634416D02*
X16336491Y-11624893D01*
X16336491Y-11624893D02*
X16326967Y-11615369D01*
X16326967Y-11615369D02*
X16317443Y-11596321D01*
X16317443Y-11596321D02*
X16307920Y-11558226D01*
X16307920Y-11558226D02*
X16307920Y-11510607D01*
X16307920Y-11510607D02*
X16317443Y-11472512D01*
X16317443Y-11472512D02*
X16326967Y-11453464D01*
X16326967Y-11453464D02*
X16336491Y-11443940D01*
X16336491Y-11443940D02*
X16355539Y-11434416D01*
X16507920Y-11634416D02*
X16507920Y-11501083D01*
X16507920Y-11520131D02*
X16517443Y-11510607D01*
X16517443Y-11510607D02*
X16536491Y-11501083D01*
X16536491Y-11501083D02*
X16565063Y-11501083D01*
X16565063Y-11501083D02*
X16584110Y-11510607D01*
X16584110Y-11510607D02*
X16593634Y-11529655D01*
X16593634Y-11529655D02*
X16593634Y-11634416D01*
X16593634Y-11529655D02*
X16603158Y-11510607D01*
X16603158Y-11510607D02*
X16622205Y-11501083D01*
X16622205Y-11501083D02*
X16650777Y-11501083D01*
X16650777Y-11501083D02*
X16669824Y-11510607D01*
X16669824Y-11510607D02*
X16679348Y-11529655D01*
X16679348Y-11529655D02*
X16679348Y-11634416D01*
X16774586Y-11634416D02*
X16774586Y-11501083D01*
X16774586Y-11520131D02*
X16784110Y-11510607D01*
X16784110Y-11510607D02*
X16803158Y-11501083D01*
X16803158Y-11501083D02*
X16831729Y-11501083D01*
X16831729Y-11501083D02*
X16850777Y-11510607D01*
X16850777Y-11510607D02*
X16860301Y-11529655D01*
X16860301Y-11529655D02*
X16860301Y-11634416D01*
X16860301Y-11529655D02*
X16869825Y-11510607D01*
X16869825Y-11510607D02*
X16888872Y-11501083D01*
X16888872Y-11501083D02*
X16917444Y-11501083D01*
X16917444Y-11501083D02*
X16936491Y-11510607D01*
X16936491Y-11510607D02*
X16946015Y-11529655D01*
X16946015Y-11529655D02*
X16946015Y-11634416D01*
X17336491Y-11424893D02*
X17165063Y-11682035D01*
X17593634Y-11434416D02*
X17612682Y-11434416D01*
X17612682Y-11434416D02*
X17631729Y-11443940D01*
X17631729Y-11443940D02*
X17641253Y-11453464D01*
X17641253Y-11453464D02*
X17650777Y-11472512D01*
X17650777Y-11472512D02*
X17660301Y-11510607D01*
X17660301Y-11510607D02*
X17660301Y-11558226D01*
X17660301Y-11558226D02*
X17650777Y-11596321D01*
X17650777Y-11596321D02*
X17641253Y-11615369D01*
X17641253Y-11615369D02*
X17631729Y-11624893D01*
X17631729Y-11624893D02*
X17612682Y-11634416D01*
X17612682Y-11634416D02*
X17593634Y-11634416D01*
X17593634Y-11634416D02*
X17574587Y-11624893D01*
X17574587Y-11624893D02*
X17565063Y-11615369D01*
X17565063Y-11615369D02*
X17555539Y-11596321D01*
X17555539Y-11596321D02*
X17546015Y-11558226D01*
X17546015Y-11558226D02*
X17546015Y-11510607D01*
X17546015Y-11510607D02*
X17555539Y-11472512D01*
X17555539Y-11472512D02*
X17565063Y-11453464D01*
X17565063Y-11453464D02*
X17574587Y-11443940D01*
X17574587Y-11443940D02*
X17593634Y-11434416D01*
X17746015Y-11615369D02*
X17755539Y-11624893D01*
X17755539Y-11624893D02*
X17746015Y-11634416D01*
X17746015Y-11634416D02*
X17736491Y-11624893D01*
X17736491Y-11624893D02*
X17746015Y-11615369D01*
X17746015Y-11615369D02*
X17746015Y-11634416D01*
X17879348Y-11434416D02*
X17898396Y-11434416D01*
X17898396Y-11434416D02*
X17917444Y-11443940D01*
X17917444Y-11443940D02*
X17926968Y-11453464D01*
X17926968Y-11453464D02*
X17936491Y-11472512D01*
X17936491Y-11472512D02*
X17946015Y-11510607D01*
X17946015Y-11510607D02*
X17946015Y-11558226D01*
X17946015Y-11558226D02*
X17936491Y-11596321D01*
X17936491Y-11596321D02*
X17926968Y-11615369D01*
X17926968Y-11615369D02*
X17917444Y-11624893D01*
X17917444Y-11624893D02*
X17898396Y-11634416D01*
X17898396Y-11634416D02*
X17879348Y-11634416D01*
X17879348Y-11634416D02*
X17860301Y-11624893D01*
X17860301Y-11624893D02*
X17850777Y-11615369D01*
X17850777Y-11615369D02*
X17841253Y-11596321D01*
X17841253Y-11596321D02*
X17831729Y-11558226D01*
X17831729Y-11558226D02*
X17831729Y-11510607D01*
X17831729Y-11510607D02*
X17841253Y-11472512D01*
X17841253Y-11472512D02*
X17850777Y-11453464D01*
X17850777Y-11453464D02*
X17860301Y-11443940D01*
X17860301Y-11443940D02*
X17879348Y-11434416D01*
X18022206Y-11453464D02*
X18031729Y-11443940D01*
X18031729Y-11443940D02*
X18050777Y-11434416D01*
X18050777Y-11434416D02*
X18098396Y-11434416D01*
X18098396Y-11434416D02*
X18117444Y-11443940D01*
X18117444Y-11443940D02*
X18126968Y-11453464D01*
X18126968Y-11453464D02*
X18136491Y-11472512D01*
X18136491Y-11472512D02*
X18136491Y-11491559D01*
X18136491Y-11491559D02*
X18126968Y-11520131D01*
X18126968Y-11520131D02*
X18012682Y-11634416D01*
X18012682Y-11634416D02*
X18136491Y-11634416D01*
X18317444Y-11434416D02*
X18222206Y-11434416D01*
X18222206Y-11434416D02*
X18212682Y-11529655D01*
X18212682Y-11529655D02*
X18222206Y-11520131D01*
X18222206Y-11520131D02*
X18241253Y-11510607D01*
X18241253Y-11510607D02*
X18288872Y-11510607D01*
X18288872Y-11510607D02*
X18307920Y-11520131D01*
X18307920Y-11520131D02*
X18317444Y-11529655D01*
X18317444Y-11529655D02*
X18326968Y-11548702D01*
X18326968Y-11548702D02*
X18326968Y-11596321D01*
X18326968Y-11596321D02*
X18317444Y-11615369D01*
X18317444Y-11615369D02*
X18307920Y-11624893D01*
X18307920Y-11624893D02*
X18288872Y-11634416D01*
X18288872Y-11634416D02*
X18241253Y-11634416D01*
X18241253Y-11634416D02*
X18222206Y-11624893D01*
X18222206Y-11624893D02*
X18212682Y-11615369D01*
X18498396Y-11434416D02*
X18460301Y-11434416D01*
X18460301Y-11434416D02*
X18441253Y-11443940D01*
X18441253Y-11443940D02*
X18431729Y-11453464D01*
X18431729Y-11453464D02*
X18412682Y-11482035D01*
X18412682Y-11482035D02*
X18403158Y-11520131D01*
X18403158Y-11520131D02*
X18403158Y-11596321D01*
X18403158Y-11596321D02*
X18412682Y-11615369D01*
X18412682Y-11615369D02*
X18422206Y-11624893D01*
X18422206Y-11624893D02*
X18441253Y-11634416D01*
X18441253Y-11634416D02*
X18479349Y-11634416D01*
X18479349Y-11634416D02*
X18498396Y-11624893D01*
X18498396Y-11624893D02*
X18507920Y-11615369D01*
X18507920Y-11615369D02*
X18517444Y-11596321D01*
X18517444Y-11596321D02*
X18517444Y-11548702D01*
X18517444Y-11548702D02*
X18507920Y-11529655D01*
X18507920Y-11529655D02*
X18498396Y-11520131D01*
X18498396Y-11520131D02*
X18479349Y-11510607D01*
X18479349Y-11510607D02*
X18441253Y-11510607D01*
X18441253Y-11510607D02*
X18422206Y-11520131D01*
X18422206Y-11520131D02*
X18412682Y-11529655D01*
X18412682Y-11529655D02*
X18403158Y-11548702D01*
X18593634Y-11434416D02*
X18593634Y-11472512D01*
X18669825Y-11434416D02*
X18669825Y-11472512D01*
X18965063Y-11710607D02*
X18955539Y-11701083D01*
X18955539Y-11701083D02*
X18936491Y-11672512D01*
X18936491Y-11672512D02*
X18926968Y-11653464D01*
X18926968Y-11653464D02*
X18917444Y-11624893D01*
X18917444Y-11624893D02*
X18907920Y-11577274D01*
X18907920Y-11577274D02*
X18907920Y-11539178D01*
X18907920Y-11539178D02*
X18917444Y-11491559D01*
X18917444Y-11491559D02*
X18926968Y-11462988D01*
X18926968Y-11462988D02*
X18936491Y-11443940D01*
X18936491Y-11443940D02*
X18955539Y-11415369D01*
X18955539Y-11415369D02*
X18965063Y-11405845D01*
X19031730Y-11453464D02*
X19041253Y-11443940D01*
X19041253Y-11443940D02*
X19060301Y-11434416D01*
X19060301Y-11434416D02*
X19107920Y-11434416D01*
X19107920Y-11434416D02*
X19126968Y-11443940D01*
X19126968Y-11443940D02*
X19136491Y-11453464D01*
X19136491Y-11453464D02*
X19146015Y-11472512D01*
X19146015Y-11472512D02*
X19146015Y-11491559D01*
X19146015Y-11491559D02*
X19136491Y-11520131D01*
X19136491Y-11520131D02*
X19022206Y-11634416D01*
X19022206Y-11634416D02*
X19146015Y-11634416D01*
X19384111Y-11634416D02*
X19384111Y-11434416D01*
X19469825Y-11634416D02*
X19469825Y-11529655D01*
X19469825Y-11529655D02*
X19460301Y-11510607D01*
X19460301Y-11510607D02*
X19441253Y-11501083D01*
X19441253Y-11501083D02*
X19412682Y-11501083D01*
X19412682Y-11501083D02*
X19393634Y-11510607D01*
X19393634Y-11510607D02*
X19384111Y-11520131D01*
X19593634Y-11634416D02*
X19574587Y-11624893D01*
X19574587Y-11624893D02*
X19565063Y-11615369D01*
X19565063Y-11615369D02*
X19555539Y-11596321D01*
X19555539Y-11596321D02*
X19555539Y-11539178D01*
X19555539Y-11539178D02*
X19565063Y-11520131D01*
X19565063Y-11520131D02*
X19574587Y-11510607D01*
X19574587Y-11510607D02*
X19593634Y-11501083D01*
X19593634Y-11501083D02*
X19622206Y-11501083D01*
X19622206Y-11501083D02*
X19641253Y-11510607D01*
X19641253Y-11510607D02*
X19650777Y-11520131D01*
X19650777Y-11520131D02*
X19660301Y-11539178D01*
X19660301Y-11539178D02*
X19660301Y-11596321D01*
X19660301Y-11596321D02*
X19650777Y-11615369D01*
X19650777Y-11615369D02*
X19641253Y-11624893D01*
X19641253Y-11624893D02*
X19622206Y-11634416D01*
X19622206Y-11634416D02*
X19593634Y-11634416D01*
X19774587Y-11634416D02*
X19755539Y-11624893D01*
X19755539Y-11624893D02*
X19746015Y-11605845D01*
X19746015Y-11605845D02*
X19746015Y-11434416D01*
X19926968Y-11624893D02*
X19907920Y-11634416D01*
X19907920Y-11634416D02*
X19869825Y-11634416D01*
X19869825Y-11634416D02*
X19850777Y-11624893D01*
X19850777Y-11624893D02*
X19841253Y-11605845D01*
X19841253Y-11605845D02*
X19841253Y-11529655D01*
X19841253Y-11529655D02*
X19850777Y-11510607D01*
X19850777Y-11510607D02*
X19869825Y-11501083D01*
X19869825Y-11501083D02*
X19907920Y-11501083D01*
X19907920Y-11501083D02*
X19926968Y-11510607D01*
X19926968Y-11510607D02*
X19936492Y-11529655D01*
X19936492Y-11529655D02*
X19936492Y-11548702D01*
X19936492Y-11548702D02*
X19841253Y-11567750D01*
X20012682Y-11624893D02*
X20031730Y-11634416D01*
X20031730Y-11634416D02*
X20069825Y-11634416D01*
X20069825Y-11634416D02*
X20088873Y-11624893D01*
X20088873Y-11624893D02*
X20098396Y-11605845D01*
X20098396Y-11605845D02*
X20098396Y-11596321D01*
X20098396Y-11596321D02*
X20088873Y-11577274D01*
X20088873Y-11577274D02*
X20069825Y-11567750D01*
X20069825Y-11567750D02*
X20041253Y-11567750D01*
X20041253Y-11567750D02*
X20022206Y-11558226D01*
X20022206Y-11558226D02*
X20012682Y-11539178D01*
X20012682Y-11539178D02*
X20012682Y-11529655D01*
X20012682Y-11529655D02*
X20022206Y-11510607D01*
X20022206Y-11510607D02*
X20041253Y-11501083D01*
X20041253Y-11501083D02*
X20069825Y-11501083D01*
X20069825Y-11501083D02*
X20088873Y-11510607D01*
X20165063Y-11710607D02*
X20174587Y-11701083D01*
X20174587Y-11701083D02*
X20193634Y-11672512D01*
X20193634Y-11672512D02*
X20203158Y-11653464D01*
X20203158Y-11653464D02*
X20212682Y-11624893D01*
X20212682Y-11624893D02*
X20222206Y-11577274D01*
X20222206Y-11577274D02*
X20222206Y-11539178D01*
X20222206Y-11539178D02*
X20212682Y-11491559D01*
X20212682Y-11491559D02*
X20203158Y-11462988D01*
X20203158Y-11462988D02*
X20193634Y-11443940D01*
X20193634Y-11443940D02*
X20174587Y-11415369D01*
X20174587Y-11415369D02*
X20165063Y-11405845D01*
X20526968Y-11710607D02*
X20517444Y-11701083D01*
X20517444Y-11701083D02*
X20498396Y-11672512D01*
X20498396Y-11672512D02*
X20488873Y-11653464D01*
X20488873Y-11653464D02*
X20479349Y-11624893D01*
X20479349Y-11624893D02*
X20469825Y-11577274D01*
X20469825Y-11577274D02*
X20469825Y-11539178D01*
X20469825Y-11539178D02*
X20479349Y-11491559D01*
X20479349Y-11491559D02*
X20488873Y-11462988D01*
X20488873Y-11462988D02*
X20498396Y-11443940D01*
X20498396Y-11443940D02*
X20517444Y-11415369D01*
X20517444Y-11415369D02*
X20526968Y-11405845D01*
X20603158Y-11501083D02*
X20603158Y-11634416D01*
X20603158Y-11520131D02*
X20612682Y-11510607D01*
X20612682Y-11510607D02*
X20631730Y-11501083D01*
X20631730Y-11501083D02*
X20660301Y-11501083D01*
X20660301Y-11501083D02*
X20679349Y-11510607D01*
X20679349Y-11510607D02*
X20688873Y-11529655D01*
X20688873Y-11529655D02*
X20688873Y-11634416D01*
X20812682Y-11634416D02*
X20793634Y-11624893D01*
X20793634Y-11624893D02*
X20784111Y-11615369D01*
X20784111Y-11615369D02*
X20774587Y-11596321D01*
X20774587Y-11596321D02*
X20774587Y-11539178D01*
X20774587Y-11539178D02*
X20784111Y-11520131D01*
X20784111Y-11520131D02*
X20793634Y-11510607D01*
X20793634Y-11510607D02*
X20812682Y-11501083D01*
X20812682Y-11501083D02*
X20841254Y-11501083D01*
X20841254Y-11501083D02*
X20860301Y-11510607D01*
X20860301Y-11510607D02*
X20869825Y-11520131D01*
X20869825Y-11520131D02*
X20879349Y-11539178D01*
X20879349Y-11539178D02*
X20879349Y-11596321D01*
X20879349Y-11596321D02*
X20869825Y-11615369D01*
X20869825Y-11615369D02*
X20860301Y-11624893D01*
X20860301Y-11624893D02*
X20841254Y-11634416D01*
X20841254Y-11634416D02*
X20812682Y-11634416D01*
X20936492Y-11501083D02*
X21012682Y-11501083D01*
X20965063Y-11434416D02*
X20965063Y-11605845D01*
X20965063Y-11605845D02*
X20974587Y-11624893D01*
X20974587Y-11624893D02*
X20993634Y-11634416D01*
X20993634Y-11634416D02*
X21012682Y-11634416D01*
X21231730Y-11501083D02*
X21231730Y-11701083D01*
X21231730Y-11510607D02*
X21250777Y-11501083D01*
X21250777Y-11501083D02*
X21288873Y-11501083D01*
X21288873Y-11501083D02*
X21307920Y-11510607D01*
X21307920Y-11510607D02*
X21317444Y-11520131D01*
X21317444Y-11520131D02*
X21326968Y-11539178D01*
X21326968Y-11539178D02*
X21326968Y-11596321D01*
X21326968Y-11596321D02*
X21317444Y-11615369D01*
X21317444Y-11615369D02*
X21307920Y-11624893D01*
X21307920Y-11624893D02*
X21288873Y-11634416D01*
X21288873Y-11634416D02*
X21250777Y-11634416D01*
X21250777Y-11634416D02*
X21231730Y-11624893D01*
X21441254Y-11634416D02*
X21422206Y-11624893D01*
X21422206Y-11624893D02*
X21412682Y-11605845D01*
X21412682Y-11605845D02*
X21412682Y-11434416D01*
X21603158Y-11634416D02*
X21603158Y-11529655D01*
X21603158Y-11529655D02*
X21593635Y-11510607D01*
X21593635Y-11510607D02*
X21574587Y-11501083D01*
X21574587Y-11501083D02*
X21536492Y-11501083D01*
X21536492Y-11501083D02*
X21517444Y-11510607D01*
X21603158Y-11624893D02*
X21584111Y-11634416D01*
X21584111Y-11634416D02*
X21536492Y-11634416D01*
X21536492Y-11634416D02*
X21517444Y-11624893D01*
X21517444Y-11624893D02*
X21507920Y-11605845D01*
X21507920Y-11605845D02*
X21507920Y-11586797D01*
X21507920Y-11586797D02*
X21517444Y-11567750D01*
X21517444Y-11567750D02*
X21536492Y-11558226D01*
X21536492Y-11558226D02*
X21584111Y-11558226D01*
X21584111Y-11558226D02*
X21603158Y-11548702D01*
X21669825Y-11501083D02*
X21746015Y-11501083D01*
X21698396Y-11434416D02*
X21698396Y-11605845D01*
X21698396Y-11605845D02*
X21707920Y-11624893D01*
X21707920Y-11624893D02*
X21726968Y-11634416D01*
X21726968Y-11634416D02*
X21746015Y-11634416D01*
X21888873Y-11624893D02*
X21869825Y-11634416D01*
X21869825Y-11634416D02*
X21831730Y-11634416D01*
X21831730Y-11634416D02*
X21812682Y-11624893D01*
X21812682Y-11624893D02*
X21803158Y-11605845D01*
X21803158Y-11605845D02*
X21803158Y-11529655D01*
X21803158Y-11529655D02*
X21812682Y-11510607D01*
X21812682Y-11510607D02*
X21831730Y-11501083D01*
X21831730Y-11501083D02*
X21869825Y-11501083D01*
X21869825Y-11501083D02*
X21888873Y-11510607D01*
X21888873Y-11510607D02*
X21898396Y-11529655D01*
X21898396Y-11529655D02*
X21898396Y-11548702D01*
X21898396Y-11548702D02*
X21803158Y-11567750D01*
X22069825Y-11634416D02*
X22069825Y-11434416D01*
X22069825Y-11624893D02*
X22050777Y-11634416D01*
X22050777Y-11634416D02*
X22012682Y-11634416D01*
X22012682Y-11634416D02*
X21993635Y-11624893D01*
X21993635Y-11624893D02*
X21984111Y-11615369D01*
X21984111Y-11615369D02*
X21974587Y-11596321D01*
X21974587Y-11596321D02*
X21974587Y-11539178D01*
X21974587Y-11539178D02*
X21984111Y-11520131D01*
X21984111Y-11520131D02*
X21993635Y-11510607D01*
X21993635Y-11510607D02*
X22012682Y-11501083D01*
X22012682Y-11501083D02*
X22050777Y-11501083D01*
X22050777Y-11501083D02*
X22069825Y-11510607D01*
X22146016Y-11710607D02*
X22155539Y-11701083D01*
X22155539Y-11701083D02*
X22174587Y-11672512D01*
X22174587Y-11672512D02*
X22184111Y-11653464D01*
X22184111Y-11653464D02*
X22193635Y-11624893D01*
X22193635Y-11624893D02*
X22203158Y-11577274D01*
X22203158Y-11577274D02*
X22203158Y-11539178D01*
X22203158Y-11539178D02*
X22193635Y-11491559D01*
X22193635Y-11491559D02*
X22184111Y-11462988D01*
X22184111Y-11462988D02*
X22174587Y-11443940D01*
X22174587Y-11443940D02*
X22155539Y-11415369D01*
X22155539Y-11415369D02*
X22146016Y-11405845D01*
X15390000Y-11806933D02*
G75*
G02*
X15190000Y-11806933I-100000J0D01*
G01*
X15190000Y-11806933D02*
G75*
G02*
X15390000Y-11806933I100000J0D01*
G01*
X15641253Y-11717464D02*
X15650777Y-11707940D01*
X15650777Y-11707940D02*
X15669824Y-11698416D01*
X15669824Y-11698416D02*
X15717443Y-11698416D01*
X15717443Y-11698416D02*
X15736491Y-11707940D01*
X15736491Y-11707940D02*
X15746015Y-11717464D01*
X15746015Y-11717464D02*
X15755539Y-11736512D01*
X15755539Y-11736512D02*
X15755539Y-11755559D01*
X15755539Y-11755559D02*
X15746015Y-11784131D01*
X15746015Y-11784131D02*
X15631729Y-11898416D01*
X15631729Y-11898416D02*
X15755539Y-11898416D01*
X15841253Y-11879369D02*
X15850777Y-11888893D01*
X15850777Y-11888893D02*
X15841253Y-11898416D01*
X15841253Y-11898416D02*
X15831729Y-11888893D01*
X15831729Y-11888893D02*
X15841253Y-11879369D01*
X15841253Y-11879369D02*
X15841253Y-11898416D01*
X16041253Y-11898416D02*
X15926967Y-11898416D01*
X15984110Y-11898416D02*
X15984110Y-11698416D01*
X15984110Y-11698416D02*
X15965062Y-11726988D01*
X15965062Y-11726988D02*
X15946015Y-11746035D01*
X15946015Y-11746035D02*
X15926967Y-11755559D01*
X16165062Y-11698416D02*
X16184110Y-11698416D01*
X16184110Y-11698416D02*
X16203158Y-11707940D01*
X16203158Y-11707940D02*
X16212682Y-11717464D01*
X16212682Y-11717464D02*
X16222205Y-11736512D01*
X16222205Y-11736512D02*
X16231729Y-11774607D01*
X16231729Y-11774607D02*
X16231729Y-11822226D01*
X16231729Y-11822226D02*
X16222205Y-11860321D01*
X16222205Y-11860321D02*
X16212682Y-11879369D01*
X16212682Y-11879369D02*
X16203158Y-11888893D01*
X16203158Y-11888893D02*
X16184110Y-11898416D01*
X16184110Y-11898416D02*
X16165062Y-11898416D01*
X16165062Y-11898416D02*
X16146015Y-11888893D01*
X16146015Y-11888893D02*
X16136491Y-11879369D01*
X16136491Y-11879369D02*
X16126967Y-11860321D01*
X16126967Y-11860321D02*
X16117443Y-11822226D01*
X16117443Y-11822226D02*
X16117443Y-11774607D01*
X16117443Y-11774607D02*
X16126967Y-11736512D01*
X16126967Y-11736512D02*
X16136491Y-11717464D01*
X16136491Y-11717464D02*
X16146015Y-11707940D01*
X16146015Y-11707940D02*
X16165062Y-11698416D01*
X16355539Y-11698416D02*
X16374586Y-11698416D01*
X16374586Y-11698416D02*
X16393634Y-11707940D01*
X16393634Y-11707940D02*
X16403158Y-11717464D01*
X16403158Y-11717464D02*
X16412682Y-11736512D01*
X16412682Y-11736512D02*
X16422205Y-11774607D01*
X16422205Y-11774607D02*
X16422205Y-11822226D01*
X16422205Y-11822226D02*
X16412682Y-11860321D01*
X16412682Y-11860321D02*
X16403158Y-11879369D01*
X16403158Y-11879369D02*
X16393634Y-11888893D01*
X16393634Y-11888893D02*
X16374586Y-11898416D01*
X16374586Y-11898416D02*
X16355539Y-11898416D01*
X16355539Y-11898416D02*
X16336491Y-11888893D01*
X16336491Y-11888893D02*
X16326967Y-11879369D01*
X16326967Y-11879369D02*
X16317443Y-11860321D01*
X16317443Y-11860321D02*
X16307920Y-11822226D01*
X16307920Y-11822226D02*
X16307920Y-11774607D01*
X16307920Y-11774607D02*
X16317443Y-11736512D01*
X16317443Y-11736512D02*
X16326967Y-11717464D01*
X16326967Y-11717464D02*
X16336491Y-11707940D01*
X16336491Y-11707940D02*
X16355539Y-11698416D01*
X16507920Y-11898416D02*
X16507920Y-11765083D01*
X16507920Y-11784131D02*
X16517443Y-11774607D01*
X16517443Y-11774607D02*
X16536491Y-11765083D01*
X16536491Y-11765083D02*
X16565063Y-11765083D01*
X16565063Y-11765083D02*
X16584110Y-11774607D01*
X16584110Y-11774607D02*
X16593634Y-11793655D01*
X16593634Y-11793655D02*
X16593634Y-11898416D01*
X16593634Y-11793655D02*
X16603158Y-11774607D01*
X16603158Y-11774607D02*
X16622205Y-11765083D01*
X16622205Y-11765083D02*
X16650777Y-11765083D01*
X16650777Y-11765083D02*
X16669824Y-11774607D01*
X16669824Y-11774607D02*
X16679348Y-11793655D01*
X16679348Y-11793655D02*
X16679348Y-11898416D01*
X16774586Y-11898416D02*
X16774586Y-11765083D01*
X16774586Y-11784131D02*
X16784110Y-11774607D01*
X16784110Y-11774607D02*
X16803158Y-11765083D01*
X16803158Y-11765083D02*
X16831729Y-11765083D01*
X16831729Y-11765083D02*
X16850777Y-11774607D01*
X16850777Y-11774607D02*
X16860301Y-11793655D01*
X16860301Y-11793655D02*
X16860301Y-11898416D01*
X16860301Y-11793655D02*
X16869825Y-11774607D01*
X16869825Y-11774607D02*
X16888872Y-11765083D01*
X16888872Y-11765083D02*
X16917444Y-11765083D01*
X16917444Y-11765083D02*
X16936491Y-11774607D01*
X16936491Y-11774607D02*
X16946015Y-11793655D01*
X16946015Y-11793655D02*
X16946015Y-11898416D01*
X17336491Y-11688893D02*
X17165063Y-11946035D01*
X17593634Y-11698416D02*
X17612682Y-11698416D01*
X17612682Y-11698416D02*
X17631729Y-11707940D01*
X17631729Y-11707940D02*
X17641253Y-11717464D01*
X17641253Y-11717464D02*
X17650777Y-11736512D01*
X17650777Y-11736512D02*
X17660301Y-11774607D01*
X17660301Y-11774607D02*
X17660301Y-11822226D01*
X17660301Y-11822226D02*
X17650777Y-11860321D01*
X17650777Y-11860321D02*
X17641253Y-11879369D01*
X17641253Y-11879369D02*
X17631729Y-11888893D01*
X17631729Y-11888893D02*
X17612682Y-11898416D01*
X17612682Y-11898416D02*
X17593634Y-11898416D01*
X17593634Y-11898416D02*
X17574587Y-11888893D01*
X17574587Y-11888893D02*
X17565063Y-11879369D01*
X17565063Y-11879369D02*
X17555539Y-11860321D01*
X17555539Y-11860321D02*
X17546015Y-11822226D01*
X17546015Y-11822226D02*
X17546015Y-11774607D01*
X17546015Y-11774607D02*
X17555539Y-11736512D01*
X17555539Y-11736512D02*
X17565063Y-11717464D01*
X17565063Y-11717464D02*
X17574587Y-11707940D01*
X17574587Y-11707940D02*
X17593634Y-11698416D01*
X17746015Y-11879369D02*
X17755539Y-11888893D01*
X17755539Y-11888893D02*
X17746015Y-11898416D01*
X17746015Y-11898416D02*
X17736491Y-11888893D01*
X17736491Y-11888893D02*
X17746015Y-11879369D01*
X17746015Y-11879369D02*
X17746015Y-11898416D01*
X17879348Y-11698416D02*
X17898396Y-11698416D01*
X17898396Y-11698416D02*
X17917444Y-11707940D01*
X17917444Y-11707940D02*
X17926968Y-11717464D01*
X17926968Y-11717464D02*
X17936491Y-11736512D01*
X17936491Y-11736512D02*
X17946015Y-11774607D01*
X17946015Y-11774607D02*
X17946015Y-11822226D01*
X17946015Y-11822226D02*
X17936491Y-11860321D01*
X17936491Y-11860321D02*
X17926968Y-11879369D01*
X17926968Y-11879369D02*
X17917444Y-11888893D01*
X17917444Y-11888893D02*
X17898396Y-11898416D01*
X17898396Y-11898416D02*
X17879348Y-11898416D01*
X17879348Y-11898416D02*
X17860301Y-11888893D01*
X17860301Y-11888893D02*
X17850777Y-11879369D01*
X17850777Y-11879369D02*
X17841253Y-11860321D01*
X17841253Y-11860321D02*
X17831729Y-11822226D01*
X17831729Y-11822226D02*
X17831729Y-11774607D01*
X17831729Y-11774607D02*
X17841253Y-11736512D01*
X17841253Y-11736512D02*
X17850777Y-11717464D01*
X17850777Y-11717464D02*
X17860301Y-11707940D01*
X17860301Y-11707940D02*
X17879348Y-11698416D01*
X18060301Y-11784131D02*
X18041253Y-11774607D01*
X18041253Y-11774607D02*
X18031729Y-11765083D01*
X18031729Y-11765083D02*
X18022206Y-11746035D01*
X18022206Y-11746035D02*
X18022206Y-11736512D01*
X18022206Y-11736512D02*
X18031729Y-11717464D01*
X18031729Y-11717464D02*
X18041253Y-11707940D01*
X18041253Y-11707940D02*
X18060301Y-11698416D01*
X18060301Y-11698416D02*
X18098396Y-11698416D01*
X18098396Y-11698416D02*
X18117444Y-11707940D01*
X18117444Y-11707940D02*
X18126968Y-11717464D01*
X18126968Y-11717464D02*
X18136491Y-11736512D01*
X18136491Y-11736512D02*
X18136491Y-11746035D01*
X18136491Y-11746035D02*
X18126968Y-11765083D01*
X18126968Y-11765083D02*
X18117444Y-11774607D01*
X18117444Y-11774607D02*
X18098396Y-11784131D01*
X18098396Y-11784131D02*
X18060301Y-11784131D01*
X18060301Y-11784131D02*
X18041253Y-11793655D01*
X18041253Y-11793655D02*
X18031729Y-11803178D01*
X18031729Y-11803178D02*
X18022206Y-11822226D01*
X18022206Y-11822226D02*
X18022206Y-11860321D01*
X18022206Y-11860321D02*
X18031729Y-11879369D01*
X18031729Y-11879369D02*
X18041253Y-11888893D01*
X18041253Y-11888893D02*
X18060301Y-11898416D01*
X18060301Y-11898416D02*
X18098396Y-11898416D01*
X18098396Y-11898416D02*
X18117444Y-11888893D01*
X18117444Y-11888893D02*
X18126968Y-11879369D01*
X18126968Y-11879369D02*
X18136491Y-11860321D01*
X18136491Y-11860321D02*
X18136491Y-11822226D01*
X18136491Y-11822226D02*
X18126968Y-11803178D01*
X18126968Y-11803178D02*
X18117444Y-11793655D01*
X18117444Y-11793655D02*
X18098396Y-11784131D01*
X18212682Y-11717464D02*
X18222206Y-11707940D01*
X18222206Y-11707940D02*
X18241253Y-11698416D01*
X18241253Y-11698416D02*
X18288872Y-11698416D01*
X18288872Y-11698416D02*
X18307920Y-11707940D01*
X18307920Y-11707940D02*
X18317444Y-11717464D01*
X18317444Y-11717464D02*
X18326968Y-11736512D01*
X18326968Y-11736512D02*
X18326968Y-11755559D01*
X18326968Y-11755559D02*
X18317444Y-11784131D01*
X18317444Y-11784131D02*
X18203158Y-11898416D01*
X18203158Y-11898416D02*
X18326968Y-11898416D01*
X18393634Y-11698416D02*
X18526968Y-11698416D01*
X18526968Y-11698416D02*
X18441253Y-11898416D01*
X18593634Y-11698416D02*
X18593634Y-11736512D01*
X18669825Y-11698416D02*
X18669825Y-11736512D01*
X18965063Y-11974607D02*
X18955539Y-11965083D01*
X18955539Y-11965083D02*
X18936491Y-11936512D01*
X18936491Y-11936512D02*
X18926968Y-11917464D01*
X18926968Y-11917464D02*
X18917444Y-11888893D01*
X18917444Y-11888893D02*
X18907920Y-11841274D01*
X18907920Y-11841274D02*
X18907920Y-11803178D01*
X18907920Y-11803178D02*
X18917444Y-11755559D01*
X18917444Y-11755559D02*
X18926968Y-11726988D01*
X18926968Y-11726988D02*
X18936491Y-11707940D01*
X18936491Y-11707940D02*
X18955539Y-11679369D01*
X18955539Y-11679369D02*
X18965063Y-11669845D01*
X19126968Y-11765083D02*
X19126968Y-11898416D01*
X19079349Y-11688893D02*
X19031730Y-11831750D01*
X19031730Y-11831750D02*
X19155539Y-11831750D01*
X19384111Y-11898416D02*
X19384111Y-11698416D01*
X19469825Y-11898416D02*
X19469825Y-11793655D01*
X19469825Y-11793655D02*
X19460301Y-11774607D01*
X19460301Y-11774607D02*
X19441253Y-11765083D01*
X19441253Y-11765083D02*
X19412682Y-11765083D01*
X19412682Y-11765083D02*
X19393634Y-11774607D01*
X19393634Y-11774607D02*
X19384111Y-11784131D01*
X19593634Y-11898416D02*
X19574587Y-11888893D01*
X19574587Y-11888893D02*
X19565063Y-11879369D01*
X19565063Y-11879369D02*
X19555539Y-11860321D01*
X19555539Y-11860321D02*
X19555539Y-11803178D01*
X19555539Y-11803178D02*
X19565063Y-11784131D01*
X19565063Y-11784131D02*
X19574587Y-11774607D01*
X19574587Y-11774607D02*
X19593634Y-11765083D01*
X19593634Y-11765083D02*
X19622206Y-11765083D01*
X19622206Y-11765083D02*
X19641253Y-11774607D01*
X19641253Y-11774607D02*
X19650777Y-11784131D01*
X19650777Y-11784131D02*
X19660301Y-11803178D01*
X19660301Y-11803178D02*
X19660301Y-11860321D01*
X19660301Y-11860321D02*
X19650777Y-11879369D01*
X19650777Y-11879369D02*
X19641253Y-11888893D01*
X19641253Y-11888893D02*
X19622206Y-11898416D01*
X19622206Y-11898416D02*
X19593634Y-11898416D01*
X19774587Y-11898416D02*
X19755539Y-11888893D01*
X19755539Y-11888893D02*
X19746015Y-11869845D01*
X19746015Y-11869845D02*
X19746015Y-11698416D01*
X19926968Y-11888893D02*
X19907920Y-11898416D01*
X19907920Y-11898416D02*
X19869825Y-11898416D01*
X19869825Y-11898416D02*
X19850777Y-11888893D01*
X19850777Y-11888893D02*
X19841253Y-11869845D01*
X19841253Y-11869845D02*
X19841253Y-11793655D01*
X19841253Y-11793655D02*
X19850777Y-11774607D01*
X19850777Y-11774607D02*
X19869825Y-11765083D01*
X19869825Y-11765083D02*
X19907920Y-11765083D01*
X19907920Y-11765083D02*
X19926968Y-11774607D01*
X19926968Y-11774607D02*
X19936492Y-11793655D01*
X19936492Y-11793655D02*
X19936492Y-11812702D01*
X19936492Y-11812702D02*
X19841253Y-11831750D01*
X20012682Y-11888893D02*
X20031730Y-11898416D01*
X20031730Y-11898416D02*
X20069825Y-11898416D01*
X20069825Y-11898416D02*
X20088873Y-11888893D01*
X20088873Y-11888893D02*
X20098396Y-11869845D01*
X20098396Y-11869845D02*
X20098396Y-11860321D01*
X20098396Y-11860321D02*
X20088873Y-11841274D01*
X20088873Y-11841274D02*
X20069825Y-11831750D01*
X20069825Y-11831750D02*
X20041253Y-11831750D01*
X20041253Y-11831750D02*
X20022206Y-11822226D01*
X20022206Y-11822226D02*
X20012682Y-11803178D01*
X20012682Y-11803178D02*
X20012682Y-11793655D01*
X20012682Y-11793655D02*
X20022206Y-11774607D01*
X20022206Y-11774607D02*
X20041253Y-11765083D01*
X20041253Y-11765083D02*
X20069825Y-11765083D01*
X20069825Y-11765083D02*
X20088873Y-11774607D01*
X20165063Y-11974607D02*
X20174587Y-11965083D01*
X20174587Y-11965083D02*
X20193634Y-11936512D01*
X20193634Y-11936512D02*
X20203158Y-11917464D01*
X20203158Y-11917464D02*
X20212682Y-11888893D01*
X20212682Y-11888893D02*
X20222206Y-11841274D01*
X20222206Y-11841274D02*
X20222206Y-11803178D01*
X20222206Y-11803178D02*
X20212682Y-11755559D01*
X20212682Y-11755559D02*
X20203158Y-11726988D01*
X20203158Y-11726988D02*
X20193634Y-11707940D01*
X20193634Y-11707940D02*
X20174587Y-11679369D01*
X20174587Y-11679369D02*
X20165063Y-11669845D01*
X20526968Y-11974607D02*
X20517444Y-11965083D01*
X20517444Y-11965083D02*
X20498396Y-11936512D01*
X20498396Y-11936512D02*
X20488873Y-11917464D01*
X20488873Y-11917464D02*
X20479349Y-11888893D01*
X20479349Y-11888893D02*
X20469825Y-11841274D01*
X20469825Y-11841274D02*
X20469825Y-11803178D01*
X20469825Y-11803178D02*
X20479349Y-11755559D01*
X20479349Y-11755559D02*
X20488873Y-11726988D01*
X20488873Y-11726988D02*
X20498396Y-11707940D01*
X20498396Y-11707940D02*
X20517444Y-11679369D01*
X20517444Y-11679369D02*
X20526968Y-11669845D01*
X20603158Y-11765083D02*
X20603158Y-11898416D01*
X20603158Y-11784131D02*
X20612682Y-11774607D01*
X20612682Y-11774607D02*
X20631730Y-11765083D01*
X20631730Y-11765083D02*
X20660301Y-11765083D01*
X20660301Y-11765083D02*
X20679349Y-11774607D01*
X20679349Y-11774607D02*
X20688873Y-11793655D01*
X20688873Y-11793655D02*
X20688873Y-11898416D01*
X20812682Y-11898416D02*
X20793634Y-11888893D01*
X20793634Y-11888893D02*
X20784111Y-11879369D01*
X20784111Y-11879369D02*
X20774587Y-11860321D01*
X20774587Y-11860321D02*
X20774587Y-11803178D01*
X20774587Y-11803178D02*
X20784111Y-11784131D01*
X20784111Y-11784131D02*
X20793634Y-11774607D01*
X20793634Y-11774607D02*
X20812682Y-11765083D01*
X20812682Y-11765083D02*
X20841254Y-11765083D01*
X20841254Y-11765083D02*
X20860301Y-11774607D01*
X20860301Y-11774607D02*
X20869825Y-11784131D01*
X20869825Y-11784131D02*
X20879349Y-11803178D01*
X20879349Y-11803178D02*
X20879349Y-11860321D01*
X20879349Y-11860321D02*
X20869825Y-11879369D01*
X20869825Y-11879369D02*
X20860301Y-11888893D01*
X20860301Y-11888893D02*
X20841254Y-11898416D01*
X20841254Y-11898416D02*
X20812682Y-11898416D01*
X20936492Y-11765083D02*
X21012682Y-11765083D01*
X20965063Y-11698416D02*
X20965063Y-11869845D01*
X20965063Y-11869845D02*
X20974587Y-11888893D01*
X20974587Y-11888893D02*
X20993634Y-11898416D01*
X20993634Y-11898416D02*
X21012682Y-11898416D01*
X21231730Y-11765083D02*
X21231730Y-11965083D01*
X21231730Y-11774607D02*
X21250777Y-11765083D01*
X21250777Y-11765083D02*
X21288873Y-11765083D01*
X21288873Y-11765083D02*
X21307920Y-11774607D01*
X21307920Y-11774607D02*
X21317444Y-11784131D01*
X21317444Y-11784131D02*
X21326968Y-11803178D01*
X21326968Y-11803178D02*
X21326968Y-11860321D01*
X21326968Y-11860321D02*
X21317444Y-11879369D01*
X21317444Y-11879369D02*
X21307920Y-11888893D01*
X21307920Y-11888893D02*
X21288873Y-11898416D01*
X21288873Y-11898416D02*
X21250777Y-11898416D01*
X21250777Y-11898416D02*
X21231730Y-11888893D01*
X21441254Y-11898416D02*
X21422206Y-11888893D01*
X21422206Y-11888893D02*
X21412682Y-11869845D01*
X21412682Y-11869845D02*
X21412682Y-11698416D01*
X21603158Y-11898416D02*
X21603158Y-11793655D01*
X21603158Y-11793655D02*
X21593635Y-11774607D01*
X21593635Y-11774607D02*
X21574587Y-11765083D01*
X21574587Y-11765083D02*
X21536492Y-11765083D01*
X21536492Y-11765083D02*
X21517444Y-11774607D01*
X21603158Y-11888893D02*
X21584111Y-11898416D01*
X21584111Y-11898416D02*
X21536492Y-11898416D01*
X21536492Y-11898416D02*
X21517444Y-11888893D01*
X21517444Y-11888893D02*
X21507920Y-11869845D01*
X21507920Y-11869845D02*
X21507920Y-11850797D01*
X21507920Y-11850797D02*
X21517444Y-11831750D01*
X21517444Y-11831750D02*
X21536492Y-11822226D01*
X21536492Y-11822226D02*
X21584111Y-11822226D01*
X21584111Y-11822226D02*
X21603158Y-11812702D01*
X21669825Y-11765083D02*
X21746015Y-11765083D01*
X21698396Y-11698416D02*
X21698396Y-11869845D01*
X21698396Y-11869845D02*
X21707920Y-11888893D01*
X21707920Y-11888893D02*
X21726968Y-11898416D01*
X21726968Y-11898416D02*
X21746015Y-11898416D01*
X21888873Y-11888893D02*
X21869825Y-11898416D01*
X21869825Y-11898416D02*
X21831730Y-11898416D01*
X21831730Y-11898416D02*
X21812682Y-11888893D01*
X21812682Y-11888893D02*
X21803158Y-11869845D01*
X21803158Y-11869845D02*
X21803158Y-11793655D01*
X21803158Y-11793655D02*
X21812682Y-11774607D01*
X21812682Y-11774607D02*
X21831730Y-11765083D01*
X21831730Y-11765083D02*
X21869825Y-11765083D01*
X21869825Y-11765083D02*
X21888873Y-11774607D01*
X21888873Y-11774607D02*
X21898396Y-11793655D01*
X21898396Y-11793655D02*
X21898396Y-11812702D01*
X21898396Y-11812702D02*
X21803158Y-11831750D01*
X22069825Y-11898416D02*
X22069825Y-11698416D01*
X22069825Y-11888893D02*
X22050777Y-11898416D01*
X22050777Y-11898416D02*
X22012682Y-11898416D01*
X22012682Y-11898416D02*
X21993635Y-11888893D01*
X21993635Y-11888893D02*
X21984111Y-11879369D01*
X21984111Y-11879369D02*
X21974587Y-11860321D01*
X21974587Y-11860321D02*
X21974587Y-11803178D01*
X21974587Y-11803178D02*
X21984111Y-11784131D01*
X21984111Y-11784131D02*
X21993635Y-11774607D01*
X21993635Y-11774607D02*
X22012682Y-11765083D01*
X22012682Y-11765083D02*
X22050777Y-11765083D01*
X22050777Y-11765083D02*
X22069825Y-11774607D01*
X22146016Y-11974607D02*
X22155539Y-11965083D01*
X22155539Y-11965083D02*
X22174587Y-11936512D01*
X22174587Y-11936512D02*
X22184111Y-11917464D01*
X22184111Y-11917464D02*
X22193635Y-11888893D01*
X22193635Y-11888893D02*
X22203158Y-11841274D01*
X22203158Y-11841274D02*
X22203158Y-11803178D01*
X22203158Y-11803178D02*
X22193635Y-11755559D01*
X22193635Y-11755559D02*
X22184111Y-11726988D01*
X22184111Y-11726988D02*
X22174587Y-11707940D01*
X22174587Y-11707940D02*
X22155539Y-11679369D01*
X22155539Y-11679369D02*
X22146016Y-11669845D01*
M02*
